G04 #@! TF.GenerationSoftware,KiCad,Pcbnew,5.1.6*
G04 #@! TF.CreationDate,2020-06-02T20:33:05+02:00*
G04 #@! TF.ProjectId,Levitator,4c657669-7461-4746-9f72-2e6b69636164,rev?*
G04 #@! TF.SameCoordinates,Original*
G04 #@! TF.FileFunction,Soldermask,Top*
G04 #@! TF.FilePolarity,Negative*
%FSLAX46Y46*%
G04 Gerber Fmt 4.6, Leading zero omitted, Abs format (unit mm)*
G04 Created by KiCad (PCBNEW 5.1.6) date 2020-06-02 20:33:05*
%MOMM*%
%LPD*%
G01*
G04 APERTURE LIST*
%ADD10C,0.100000*%
G04 APERTURE END LIST*
D10*
G36*
X171290228Y-131147703D02*
G01*
X171445100Y-131211853D01*
X171584481Y-131304985D01*
X171703015Y-131423519D01*
X171796147Y-131562900D01*
X171860297Y-131717772D01*
X171893000Y-131882184D01*
X171893000Y-132049816D01*
X171860297Y-132214228D01*
X171796147Y-132369100D01*
X171703015Y-132508481D01*
X171584481Y-132627015D01*
X171445100Y-132720147D01*
X171290228Y-132784297D01*
X171125816Y-132817000D01*
X170958184Y-132817000D01*
X170793772Y-132784297D01*
X170638900Y-132720147D01*
X170499519Y-132627015D01*
X170380985Y-132508481D01*
X170287853Y-132369100D01*
X170223703Y-132214228D01*
X170191000Y-132049816D01*
X170191000Y-131882184D01*
X170223703Y-131717772D01*
X170287853Y-131562900D01*
X170380985Y-131423519D01*
X170499519Y-131304985D01*
X170638900Y-131211853D01*
X170793772Y-131147703D01*
X170958184Y-131115000D01*
X171125816Y-131115000D01*
X171290228Y-131147703D01*
G37*
G36*
X159375331Y-127082211D02*
G01*
X159703092Y-127217974D01*
X159998070Y-127415072D01*
X160248928Y-127665930D01*
X160446026Y-127960908D01*
X160581789Y-128288669D01*
X160651000Y-128636616D01*
X160651000Y-128991384D01*
X160581789Y-129339331D01*
X160446026Y-129667092D01*
X160248928Y-129962070D01*
X159998070Y-130212928D01*
X159703092Y-130410026D01*
X159375331Y-130545789D01*
X159027384Y-130615000D01*
X158672616Y-130615000D01*
X158324669Y-130545789D01*
X157996908Y-130410026D01*
X157701930Y-130212928D01*
X157451072Y-129962070D01*
X157253974Y-129667092D01*
X157118211Y-129339331D01*
X157049000Y-128991384D01*
X157049000Y-128636616D01*
X157118211Y-128288669D01*
X157253974Y-127960908D01*
X157451072Y-127665930D01*
X157701930Y-127415072D01*
X157996908Y-127217974D01*
X158324669Y-127082211D01*
X158672616Y-127013000D01*
X159027384Y-127013000D01*
X159375331Y-127082211D01*
G37*
G36*
X143833600Y-128682989D02*
G01*
X143866652Y-128693015D01*
X143897103Y-128709292D01*
X143923799Y-128731201D01*
X143945708Y-128757897D01*
X143961985Y-128788348D01*
X143972011Y-128821400D01*
X143976000Y-128861903D01*
X143976000Y-130298097D01*
X143972011Y-130338600D01*
X143961985Y-130371652D01*
X143945708Y-130402103D01*
X143923799Y-130428799D01*
X143897103Y-130450708D01*
X143866652Y-130466985D01*
X143833600Y-130477011D01*
X143793097Y-130481000D01*
X142056903Y-130481000D01*
X142016400Y-130477011D01*
X141983348Y-130466985D01*
X141952897Y-130450708D01*
X141926201Y-130428799D01*
X141904292Y-130402103D01*
X141888015Y-130371652D01*
X141877989Y-130338600D01*
X141874000Y-130298097D01*
X141874000Y-128861903D01*
X141877989Y-128821400D01*
X141888015Y-128788348D01*
X141904292Y-128757897D01*
X141926201Y-128731201D01*
X141952897Y-128709292D01*
X141983348Y-128693015D01*
X142016400Y-128682989D01*
X142056903Y-128679000D01*
X143793097Y-128679000D01*
X143833600Y-128682989D01*
G37*
G36*
X178160442Y-127475518D02*
G01*
X178226627Y-127482037D01*
X178396466Y-127533557D01*
X178552991Y-127617222D01*
X178588729Y-127646552D01*
X178690186Y-127729814D01*
X178773448Y-127831271D01*
X178802778Y-127867009D01*
X178886443Y-128023534D01*
X178937963Y-128193373D01*
X178955359Y-128370000D01*
X178937963Y-128546627D01*
X178891689Y-128699172D01*
X178886442Y-128716468D01*
X178848021Y-128788348D01*
X178802778Y-128872991D01*
X178773448Y-128908729D01*
X178690186Y-129010186D01*
X178588729Y-129093448D01*
X178552991Y-129122778D01*
X178396466Y-129206443D01*
X178226627Y-129257963D01*
X178160442Y-129264482D01*
X178094260Y-129271000D01*
X177705740Y-129271000D01*
X177639558Y-129264482D01*
X177573373Y-129257963D01*
X177403534Y-129206443D01*
X177247009Y-129122778D01*
X177211271Y-129093448D01*
X177109814Y-129010186D01*
X177026552Y-128908729D01*
X176997222Y-128872991D01*
X176951979Y-128788348D01*
X176913558Y-128716468D01*
X176908311Y-128699172D01*
X176862037Y-128546627D01*
X176844641Y-128370000D01*
X176862037Y-128193373D01*
X176913557Y-128023534D01*
X176997222Y-127867009D01*
X177026552Y-127831271D01*
X177109814Y-127729814D01*
X177211271Y-127646552D01*
X177247009Y-127617222D01*
X177403534Y-127533557D01*
X177573373Y-127482037D01*
X177639558Y-127475518D01*
X177705740Y-127469000D01*
X178094260Y-127469000D01*
X178160442Y-127475518D01*
G37*
G36*
X143185442Y-126185518D02*
G01*
X143251627Y-126192037D01*
X143421466Y-126243557D01*
X143577991Y-126327222D01*
X143613729Y-126356552D01*
X143715186Y-126439814D01*
X143798448Y-126541271D01*
X143827778Y-126577009D01*
X143827779Y-126577011D01*
X143889298Y-126692103D01*
X143911443Y-126733534D01*
X143962963Y-126903373D01*
X143980359Y-127080000D01*
X143962963Y-127256627D01*
X143911443Y-127426466D01*
X143827778Y-127582991D01*
X143799686Y-127617221D01*
X143715186Y-127720186D01*
X143613729Y-127803448D01*
X143577991Y-127832778D01*
X143421466Y-127916443D01*
X143251627Y-127967963D01*
X143185442Y-127974482D01*
X143119260Y-127981000D01*
X142730740Y-127981000D01*
X142664558Y-127974482D01*
X142598373Y-127967963D01*
X142428534Y-127916443D01*
X142272009Y-127832778D01*
X142236271Y-127803448D01*
X142134814Y-127720186D01*
X142050314Y-127617221D01*
X142022222Y-127582991D01*
X141938557Y-127426466D01*
X141887037Y-127256627D01*
X141869641Y-127080000D01*
X141887037Y-126903373D01*
X141938557Y-126733534D01*
X141960703Y-126692103D01*
X142022221Y-126577011D01*
X142022222Y-126577009D01*
X142051552Y-126541271D01*
X142134814Y-126439814D01*
X142236271Y-126356552D01*
X142272009Y-126327222D01*
X142428534Y-126243557D01*
X142598373Y-126192037D01*
X142664558Y-126185518D01*
X142730740Y-126179000D01*
X143119260Y-126179000D01*
X143185442Y-126185518D01*
G37*
G36*
X132725256Y-124091298D02*
G01*
X132831579Y-124112447D01*
X133132042Y-124236903D01*
X133402451Y-124417585D01*
X133632415Y-124647549D01*
X133632416Y-124647551D01*
X133813098Y-124917960D01*
X133840045Y-124983015D01*
X133937553Y-125218421D01*
X134001000Y-125537391D01*
X134001000Y-125862609D01*
X133937553Y-126181579D01*
X133849550Y-126394037D01*
X133830589Y-126439814D01*
X133813097Y-126482042D01*
X133632415Y-126752451D01*
X133402451Y-126982415D01*
X133132042Y-127163097D01*
X132831579Y-127287553D01*
X132725256Y-127308702D01*
X132512611Y-127351000D01*
X132187389Y-127351000D01*
X131974744Y-127308702D01*
X131868421Y-127287553D01*
X131567958Y-127163097D01*
X131297549Y-126982415D01*
X131067585Y-126752451D01*
X130886903Y-126482042D01*
X130869412Y-126439814D01*
X130850450Y-126394037D01*
X130762447Y-126181579D01*
X130699000Y-125862609D01*
X130699000Y-125537391D01*
X130762447Y-125218421D01*
X130859955Y-124983015D01*
X130886902Y-124917960D01*
X131067584Y-124647551D01*
X131067585Y-124647549D01*
X131297549Y-124417585D01*
X131567958Y-124236903D01*
X131868421Y-124112447D01*
X131974744Y-124091298D01*
X132187389Y-124049000D01*
X132512611Y-124049000D01*
X132725256Y-124091298D01*
G37*
G36*
X185725256Y-124091298D02*
G01*
X185831579Y-124112447D01*
X186132042Y-124236903D01*
X186402451Y-124417585D01*
X186632415Y-124647549D01*
X186632416Y-124647551D01*
X186813098Y-124917960D01*
X186840045Y-124983015D01*
X186937553Y-125218421D01*
X187001000Y-125537391D01*
X187001000Y-125862609D01*
X186937553Y-126181579D01*
X186849550Y-126394037D01*
X186830589Y-126439814D01*
X186813097Y-126482042D01*
X186632415Y-126752451D01*
X186402451Y-126982415D01*
X186132042Y-127163097D01*
X185831579Y-127287553D01*
X185725256Y-127308702D01*
X185512611Y-127351000D01*
X185187389Y-127351000D01*
X184974744Y-127308702D01*
X184868421Y-127287553D01*
X184567958Y-127163097D01*
X184297549Y-126982415D01*
X184067585Y-126752451D01*
X183886903Y-126482042D01*
X183869412Y-126439814D01*
X183850450Y-126394037D01*
X183762447Y-126181579D01*
X183699000Y-125862609D01*
X183699000Y-125537391D01*
X183762447Y-125218421D01*
X183859955Y-124983015D01*
X183886902Y-124917960D01*
X184067584Y-124647551D01*
X184067585Y-124647549D01*
X184297549Y-124417585D01*
X184567958Y-124236903D01*
X184868421Y-124112447D01*
X184974744Y-124091298D01*
X185187389Y-124049000D01*
X185512611Y-124049000D01*
X185725256Y-124091298D01*
G37*
G36*
X178808600Y-124972989D02*
G01*
X178841652Y-124983015D01*
X178872103Y-124999292D01*
X178898799Y-125021201D01*
X178920708Y-125047897D01*
X178936985Y-125078348D01*
X178947011Y-125111400D01*
X178951000Y-125151903D01*
X178951000Y-126588097D01*
X178947011Y-126628600D01*
X178936985Y-126661652D01*
X178920708Y-126692103D01*
X178898799Y-126718799D01*
X178872103Y-126740708D01*
X178841652Y-126756985D01*
X178808600Y-126767011D01*
X178768097Y-126771000D01*
X177031903Y-126771000D01*
X176991400Y-126767011D01*
X176958348Y-126756985D01*
X176927897Y-126740708D01*
X176901201Y-126718799D01*
X176879292Y-126692103D01*
X176863015Y-126661652D01*
X176852989Y-126628600D01*
X176849000Y-126588097D01*
X176849000Y-125151903D01*
X176852989Y-125111400D01*
X176863015Y-125078348D01*
X176879292Y-125047897D01*
X176901201Y-125021201D01*
X176927897Y-124999292D01*
X176958348Y-124983015D01*
X176991400Y-124972989D01*
X177031903Y-124969000D01*
X178768097Y-124969000D01*
X178808600Y-124972989D01*
G37*
G36*
X171893000Y-125197000D02*
G01*
X170191000Y-125197000D01*
X170191000Y-123495000D01*
X171893000Y-123495000D01*
X171893000Y-125197000D01*
G37*
G36*
X171678000Y-121503000D02*
G01*
X170052000Y-121503000D01*
X170052000Y-119877000D01*
X171678000Y-119877000D01*
X171678000Y-121503000D01*
G37*
G36*
X189458000Y-121503000D02*
G01*
X187832000Y-121503000D01*
X187832000Y-119877000D01*
X189458000Y-119877000D01*
X189458000Y-121503000D01*
G37*
G36*
X143808600Y-117887989D02*
G01*
X143841652Y-117898015D01*
X143872103Y-117914292D01*
X143898799Y-117936201D01*
X143920708Y-117962897D01*
X143936985Y-117993348D01*
X143947011Y-118026400D01*
X143951000Y-118066903D01*
X143951000Y-119503097D01*
X143947011Y-119543600D01*
X143936985Y-119576652D01*
X143920708Y-119607103D01*
X143898799Y-119633799D01*
X143872103Y-119655708D01*
X143841652Y-119671985D01*
X143808600Y-119682011D01*
X143768097Y-119686000D01*
X142081903Y-119686000D01*
X142041400Y-119682011D01*
X142008348Y-119671985D01*
X141977897Y-119655708D01*
X141951201Y-119633799D01*
X141929292Y-119607103D01*
X141913015Y-119576652D01*
X141902989Y-119543600D01*
X141899000Y-119503097D01*
X141899000Y-118066903D01*
X141902989Y-118026400D01*
X141913015Y-117993348D01*
X141929292Y-117962897D01*
X141951201Y-117936201D01*
X141977897Y-117914292D01*
X142008348Y-117898015D01*
X142041400Y-117887989D01*
X142081903Y-117884000D01*
X143768097Y-117884000D01*
X143808600Y-117887989D01*
G37*
G36*
X143160442Y-115390518D02*
G01*
X143226627Y-115397037D01*
X143396466Y-115448557D01*
X143552991Y-115532222D01*
X143588729Y-115561552D01*
X143690186Y-115644814D01*
X143770337Y-115742480D01*
X143802778Y-115782009D01*
X143886443Y-115938534D01*
X143937963Y-116108373D01*
X143955359Y-116285000D01*
X143937963Y-116461627D01*
X143886443Y-116631466D01*
X143802778Y-116787991D01*
X143773448Y-116823729D01*
X143690186Y-116925186D01*
X143588729Y-117008448D01*
X143552991Y-117037778D01*
X143396466Y-117121443D01*
X143226627Y-117172963D01*
X143160442Y-117179482D01*
X143094260Y-117186000D01*
X142755740Y-117186000D01*
X142689558Y-117179482D01*
X142623373Y-117172963D01*
X142453534Y-117121443D01*
X142297009Y-117037778D01*
X142261271Y-117008448D01*
X142159814Y-116925186D01*
X142076552Y-116823729D01*
X142047222Y-116787991D01*
X141963557Y-116631466D01*
X141912037Y-116461627D01*
X141894641Y-116285000D01*
X141912037Y-116108373D01*
X141963557Y-115938534D01*
X142047222Y-115782009D01*
X142079663Y-115742480D01*
X142159814Y-115644814D01*
X142261271Y-115561552D01*
X142297009Y-115532222D01*
X142453534Y-115448557D01*
X142623373Y-115397037D01*
X142689558Y-115390518D01*
X142755740Y-115384000D01*
X143094260Y-115384000D01*
X143160442Y-115390518D01*
G37*
G36*
X132346000Y-117096000D02*
G01*
X130644000Y-117096000D01*
X130644000Y-115394000D01*
X132346000Y-115394000D01*
X132346000Y-117096000D01*
G37*
G36*
X172098228Y-113131703D02*
G01*
X172253100Y-113195853D01*
X172392481Y-113288985D01*
X172511015Y-113407519D01*
X172604147Y-113546900D01*
X172668297Y-113701772D01*
X172701000Y-113866184D01*
X172701000Y-114033816D01*
X172668297Y-114198228D01*
X172604147Y-114353100D01*
X172511015Y-114492481D01*
X172511011Y-114492485D01*
X172506404Y-114499380D01*
X172501338Y-114505554D01*
X172489787Y-114527165D01*
X172482674Y-114550614D01*
X172480272Y-114575000D01*
X172482674Y-114599386D01*
X172489787Y-114622835D01*
X172501338Y-114644446D01*
X172506404Y-114650620D01*
X172511011Y-114657515D01*
X172511015Y-114657519D01*
X172604147Y-114796900D01*
X172668297Y-114951772D01*
X172701000Y-115116184D01*
X172701000Y-115283816D01*
X172668297Y-115448228D01*
X172604147Y-115603100D01*
X172511015Y-115742481D01*
X172392481Y-115861015D01*
X172253100Y-115954147D01*
X172098228Y-116018297D01*
X171933816Y-116051000D01*
X171766184Y-116051000D01*
X171601772Y-116018297D01*
X171446900Y-115954147D01*
X171307519Y-115861015D01*
X171188985Y-115742481D01*
X171095853Y-115603100D01*
X171031703Y-115448228D01*
X170999000Y-115283816D01*
X170999000Y-115116184D01*
X171031703Y-114951772D01*
X171095853Y-114796900D01*
X171188985Y-114657519D01*
X171188989Y-114657515D01*
X171193596Y-114650620D01*
X171198662Y-114644446D01*
X171210213Y-114622835D01*
X171217326Y-114599386D01*
X171219728Y-114575000D01*
X171217326Y-114550614D01*
X171210213Y-114527165D01*
X171198662Y-114505554D01*
X171193596Y-114499380D01*
X171188989Y-114492485D01*
X171188985Y-114492481D01*
X171095853Y-114353100D01*
X171031703Y-114198228D01*
X170999000Y-114033816D01*
X170999000Y-113866184D01*
X171031703Y-113701772D01*
X171095853Y-113546900D01*
X171188985Y-113407519D01*
X171307519Y-113288985D01*
X171446900Y-113195853D01*
X171601772Y-113131703D01*
X171766184Y-113099000D01*
X171933816Y-113099000D01*
X172098228Y-113131703D01*
G37*
G36*
X186098228Y-113131703D02*
G01*
X186253100Y-113195853D01*
X186392481Y-113288985D01*
X186511015Y-113407519D01*
X186604147Y-113546900D01*
X186668297Y-113701772D01*
X186701000Y-113866184D01*
X186701000Y-114033816D01*
X186668297Y-114198228D01*
X186604147Y-114353100D01*
X186511015Y-114492481D01*
X186511011Y-114492485D01*
X186506404Y-114499380D01*
X186501338Y-114505554D01*
X186489787Y-114527165D01*
X186482674Y-114550614D01*
X186480272Y-114575000D01*
X186482674Y-114599386D01*
X186489787Y-114622835D01*
X186501338Y-114644446D01*
X186506404Y-114650620D01*
X186511011Y-114657515D01*
X186511015Y-114657519D01*
X186604147Y-114796900D01*
X186668297Y-114951772D01*
X186701000Y-115116184D01*
X186701000Y-115283816D01*
X186668297Y-115448228D01*
X186604147Y-115603100D01*
X186511015Y-115742481D01*
X186392481Y-115861015D01*
X186253100Y-115954147D01*
X186098228Y-116018297D01*
X185933816Y-116051000D01*
X185766184Y-116051000D01*
X185601772Y-116018297D01*
X185446900Y-115954147D01*
X185307519Y-115861015D01*
X185188985Y-115742481D01*
X185095853Y-115603100D01*
X185031703Y-115448228D01*
X184999000Y-115283816D01*
X184999000Y-115116184D01*
X185031703Y-114951772D01*
X185095853Y-114796900D01*
X185188985Y-114657519D01*
X185188989Y-114657515D01*
X185193596Y-114650620D01*
X185198662Y-114644446D01*
X185210213Y-114622835D01*
X185217326Y-114599386D01*
X185219728Y-114575000D01*
X185217326Y-114550614D01*
X185210213Y-114527165D01*
X185198662Y-114505554D01*
X185193596Y-114499380D01*
X185188989Y-114492485D01*
X185188985Y-114492481D01*
X185095853Y-114353100D01*
X185031703Y-114198228D01*
X184999000Y-114033816D01*
X184999000Y-113866184D01*
X185031703Y-113701772D01*
X185095853Y-113546900D01*
X185188985Y-113407519D01*
X185307519Y-113288985D01*
X185446900Y-113195853D01*
X185601772Y-113131703D01*
X185766184Y-113099000D01*
X185933816Y-113099000D01*
X186098228Y-113131703D01*
G37*
G36*
X179098228Y-113131703D02*
G01*
X179253100Y-113195853D01*
X179392481Y-113288985D01*
X179511015Y-113407519D01*
X179604147Y-113546900D01*
X179668297Y-113701772D01*
X179701000Y-113866184D01*
X179701000Y-114033816D01*
X179668297Y-114198228D01*
X179604147Y-114353100D01*
X179511015Y-114492481D01*
X179511011Y-114492485D01*
X179506404Y-114499380D01*
X179501338Y-114505554D01*
X179489787Y-114527165D01*
X179482674Y-114550614D01*
X179480272Y-114575000D01*
X179482674Y-114599386D01*
X179489787Y-114622835D01*
X179501338Y-114644446D01*
X179506404Y-114650620D01*
X179511011Y-114657515D01*
X179511015Y-114657519D01*
X179604147Y-114796900D01*
X179668297Y-114951772D01*
X179701000Y-115116184D01*
X179701000Y-115283816D01*
X179668297Y-115448228D01*
X179604147Y-115603100D01*
X179511015Y-115742481D01*
X179392481Y-115861015D01*
X179253100Y-115954147D01*
X179098228Y-116018297D01*
X178933816Y-116051000D01*
X178766184Y-116051000D01*
X178601772Y-116018297D01*
X178446900Y-115954147D01*
X178307519Y-115861015D01*
X178188985Y-115742481D01*
X178095853Y-115603100D01*
X178031703Y-115448228D01*
X177999000Y-115283816D01*
X177999000Y-115116184D01*
X178031703Y-114951772D01*
X178095853Y-114796900D01*
X178188985Y-114657519D01*
X178188989Y-114657515D01*
X178193596Y-114650620D01*
X178198662Y-114644446D01*
X178210213Y-114622835D01*
X178217326Y-114599386D01*
X178219728Y-114575000D01*
X178217326Y-114550614D01*
X178210213Y-114527165D01*
X178198662Y-114505554D01*
X178193596Y-114499380D01*
X178188989Y-114492485D01*
X178188985Y-114492481D01*
X178095853Y-114353100D01*
X178031703Y-114198228D01*
X177999000Y-114033816D01*
X177999000Y-113866184D01*
X178031703Y-113701772D01*
X178095853Y-113546900D01*
X178188985Y-113407519D01*
X178307519Y-113288985D01*
X178446900Y-113195853D01*
X178601772Y-113131703D01*
X178766184Y-113099000D01*
X178933816Y-113099000D01*
X179098228Y-113131703D01*
G37*
G36*
X143160443Y-112890519D02*
G01*
X143226627Y-112897037D01*
X143396466Y-112948557D01*
X143552991Y-113032222D01*
X143562367Y-113039917D01*
X143690186Y-113144814D01*
X143773448Y-113246271D01*
X143802778Y-113282009D01*
X143886443Y-113438534D01*
X143937963Y-113608373D01*
X143955359Y-113785000D01*
X143937963Y-113961627D01*
X143886443Y-114131466D01*
X143802778Y-114287991D01*
X143773448Y-114323729D01*
X143690186Y-114425186D01*
X143599779Y-114499380D01*
X143552991Y-114537778D01*
X143396466Y-114621443D01*
X143226627Y-114672963D01*
X143160442Y-114679482D01*
X143094260Y-114686000D01*
X142755740Y-114686000D01*
X142689558Y-114679482D01*
X142623373Y-114672963D01*
X142453534Y-114621443D01*
X142297009Y-114537778D01*
X142250221Y-114499380D01*
X142159814Y-114425186D01*
X142076552Y-114323729D01*
X142047222Y-114287991D01*
X141963557Y-114131466D01*
X141912037Y-113961627D01*
X141894641Y-113785000D01*
X141912037Y-113608373D01*
X141963557Y-113438534D01*
X142047222Y-113282009D01*
X142076552Y-113246271D01*
X142159814Y-113144814D01*
X142287633Y-113039917D01*
X142297009Y-113032222D01*
X142453534Y-112948557D01*
X142623373Y-112897037D01*
X142689557Y-112890519D01*
X142755740Y-112884000D01*
X143094260Y-112884000D01*
X143160443Y-112890519D01*
G37*
G36*
X131743228Y-111926703D02*
G01*
X131898100Y-111990853D01*
X132037481Y-112083985D01*
X132156015Y-112202519D01*
X132249147Y-112341900D01*
X132313297Y-112496772D01*
X132346000Y-112661184D01*
X132346000Y-112828816D01*
X132313297Y-112993228D01*
X132249147Y-113148100D01*
X132156015Y-113287481D01*
X132037481Y-113406015D01*
X131898100Y-113499147D01*
X131743228Y-113563297D01*
X131578816Y-113596000D01*
X131411184Y-113596000D01*
X131246772Y-113563297D01*
X131091900Y-113499147D01*
X130952519Y-113406015D01*
X130833985Y-113287481D01*
X130740853Y-113148100D01*
X130676703Y-112993228D01*
X130644000Y-112828816D01*
X130644000Y-112661184D01*
X130676703Y-112496772D01*
X130740853Y-112341900D01*
X130833985Y-112202519D01*
X130952519Y-112083985D01*
X131091900Y-111990853D01*
X131246772Y-111926703D01*
X131411184Y-111894000D01*
X131578816Y-111894000D01*
X131743228Y-111926703D01*
G37*
G36*
X156506720Y-111117520D02*
G01*
X156695881Y-111174901D01*
X156870212Y-111268083D01*
X157023015Y-111393485D01*
X157148417Y-111546288D01*
X157192182Y-111628167D01*
X157241598Y-111720617D01*
X157241599Y-111720620D01*
X157298980Y-111909781D01*
X157313500Y-112057207D01*
X157313500Y-112250794D01*
X157298980Y-112398220D01*
X157241599Y-112587381D01*
X157148417Y-112761712D01*
X157023015Y-112914515D01*
X156870212Y-113039917D01*
X156788333Y-113083682D01*
X156695883Y-113133098D01*
X156695880Y-113133099D01*
X156506719Y-113190480D01*
X156310000Y-113209855D01*
X156113280Y-113190480D01*
X155924119Y-113133099D01*
X155749788Y-113039917D01*
X155596985Y-112914515D01*
X155471583Y-112761712D01*
X155417850Y-112661184D01*
X155378402Y-112587383D01*
X155350916Y-112496772D01*
X155321020Y-112398219D01*
X155306500Y-112250793D01*
X155306500Y-112057206D01*
X155321020Y-111909780D01*
X155378401Y-111720619D01*
X155471583Y-111546288D01*
X155596985Y-111393485D01*
X155749788Y-111268083D01*
X155924120Y-111174901D01*
X156113281Y-111117520D01*
X156310000Y-111098145D01*
X156506720Y-111117520D01*
G37*
G36*
X159046720Y-111117520D02*
G01*
X159235881Y-111174901D01*
X159410212Y-111268083D01*
X159563015Y-111393485D01*
X159688417Y-111546288D01*
X159732182Y-111628167D01*
X159781598Y-111720617D01*
X159781599Y-111720620D01*
X159838980Y-111909781D01*
X159853500Y-112057207D01*
X159853500Y-112250794D01*
X159838980Y-112398220D01*
X159781599Y-112587381D01*
X159688417Y-112761712D01*
X159563015Y-112914515D01*
X159410212Y-113039917D01*
X159328333Y-113083682D01*
X159235883Y-113133098D01*
X159235880Y-113133099D01*
X159046719Y-113190480D01*
X158850000Y-113209855D01*
X158653280Y-113190480D01*
X158464119Y-113133099D01*
X158289788Y-113039917D01*
X158136985Y-112914515D01*
X158011583Y-112761712D01*
X157957850Y-112661184D01*
X157918402Y-112587383D01*
X157890916Y-112496772D01*
X157861020Y-112398219D01*
X157846500Y-112250793D01*
X157846500Y-112057206D01*
X157861020Y-111909780D01*
X157918401Y-111720619D01*
X158011583Y-111546288D01*
X158136985Y-111393485D01*
X158289788Y-111268083D01*
X158464120Y-111174901D01*
X158653281Y-111117520D01*
X158850000Y-111098145D01*
X159046720Y-111117520D01*
G37*
G36*
X162393500Y-113205000D02*
G01*
X160386500Y-113205000D01*
X160386500Y-111103000D01*
X162393500Y-111103000D01*
X162393500Y-113205000D01*
G37*
G36*
X179098228Y-109381703D02*
G01*
X179253100Y-109445853D01*
X179392481Y-109538985D01*
X179511015Y-109657519D01*
X179604147Y-109796900D01*
X179668297Y-109951772D01*
X179701000Y-110116184D01*
X179701000Y-110283816D01*
X179668297Y-110448228D01*
X179604147Y-110603100D01*
X179511015Y-110742481D01*
X179511011Y-110742485D01*
X179506404Y-110749380D01*
X179501338Y-110755554D01*
X179489787Y-110777165D01*
X179482674Y-110800614D01*
X179480272Y-110825000D01*
X179482674Y-110849386D01*
X179489787Y-110872835D01*
X179501338Y-110894446D01*
X179506404Y-110900620D01*
X179511011Y-110907515D01*
X179511015Y-110907519D01*
X179604147Y-111046900D01*
X179668297Y-111201772D01*
X179701000Y-111366184D01*
X179701000Y-111533816D01*
X179668297Y-111698228D01*
X179604147Y-111853100D01*
X179511015Y-111992481D01*
X179392481Y-112111015D01*
X179253100Y-112204147D01*
X179098228Y-112268297D01*
X178933816Y-112301000D01*
X178766184Y-112301000D01*
X178601772Y-112268297D01*
X178446900Y-112204147D01*
X178307519Y-112111015D01*
X178188985Y-111992481D01*
X178095853Y-111853100D01*
X178031703Y-111698228D01*
X177999000Y-111533816D01*
X177999000Y-111366184D01*
X178031703Y-111201772D01*
X178095853Y-111046900D01*
X178188985Y-110907519D01*
X178188989Y-110907515D01*
X178193596Y-110900620D01*
X178198662Y-110894446D01*
X178210213Y-110872835D01*
X178217326Y-110849386D01*
X178219728Y-110825000D01*
X178217326Y-110800614D01*
X178210213Y-110777165D01*
X178198662Y-110755554D01*
X178193596Y-110749380D01*
X178188989Y-110742485D01*
X178188985Y-110742481D01*
X178095853Y-110603100D01*
X178031703Y-110448228D01*
X177999000Y-110283816D01*
X177999000Y-110116184D01*
X178031703Y-109951772D01*
X178095853Y-109796900D01*
X178188985Y-109657519D01*
X178307519Y-109538985D01*
X178446900Y-109445853D01*
X178601772Y-109381703D01*
X178766184Y-109349000D01*
X178933816Y-109349000D01*
X179098228Y-109381703D01*
G37*
G36*
X172098228Y-109381703D02*
G01*
X172253100Y-109445853D01*
X172392481Y-109538985D01*
X172511015Y-109657519D01*
X172604147Y-109796900D01*
X172668297Y-109951772D01*
X172701000Y-110116184D01*
X172701000Y-110283816D01*
X172668297Y-110448228D01*
X172604147Y-110603100D01*
X172511015Y-110742481D01*
X172511011Y-110742485D01*
X172506404Y-110749380D01*
X172501338Y-110755554D01*
X172489787Y-110777165D01*
X172482674Y-110800614D01*
X172480272Y-110825000D01*
X172482674Y-110849386D01*
X172489787Y-110872835D01*
X172501338Y-110894446D01*
X172506404Y-110900620D01*
X172511011Y-110907515D01*
X172511015Y-110907519D01*
X172604147Y-111046900D01*
X172668297Y-111201772D01*
X172701000Y-111366184D01*
X172701000Y-111533816D01*
X172668297Y-111698228D01*
X172604147Y-111853100D01*
X172511015Y-111992481D01*
X172392481Y-112111015D01*
X172253100Y-112204147D01*
X172098228Y-112268297D01*
X171933816Y-112301000D01*
X171766184Y-112301000D01*
X171601772Y-112268297D01*
X171446900Y-112204147D01*
X171307519Y-112111015D01*
X171188985Y-111992481D01*
X171095853Y-111853100D01*
X171031703Y-111698228D01*
X170999000Y-111533816D01*
X170999000Y-111366184D01*
X171031703Y-111201772D01*
X171095853Y-111046900D01*
X171188985Y-110907519D01*
X171188989Y-110907515D01*
X171193596Y-110900620D01*
X171198662Y-110894446D01*
X171210213Y-110872835D01*
X171217326Y-110849386D01*
X171219728Y-110825000D01*
X171217326Y-110800614D01*
X171210213Y-110777165D01*
X171198662Y-110755554D01*
X171193596Y-110749380D01*
X171188989Y-110742485D01*
X171188985Y-110742481D01*
X171095853Y-110603100D01*
X171031703Y-110448228D01*
X170999000Y-110283816D01*
X170999000Y-110116184D01*
X171031703Y-109951772D01*
X171095853Y-109796900D01*
X171188985Y-109657519D01*
X171307519Y-109538985D01*
X171446900Y-109445853D01*
X171601772Y-109381703D01*
X171766184Y-109349000D01*
X171933816Y-109349000D01*
X172098228Y-109381703D01*
G37*
G36*
X186098228Y-109381703D02*
G01*
X186253100Y-109445853D01*
X186392481Y-109538985D01*
X186511015Y-109657519D01*
X186604147Y-109796900D01*
X186668297Y-109951772D01*
X186701000Y-110116184D01*
X186701000Y-110283816D01*
X186668297Y-110448228D01*
X186604147Y-110603100D01*
X186511015Y-110742481D01*
X186511011Y-110742485D01*
X186506404Y-110749380D01*
X186501338Y-110755554D01*
X186489787Y-110777165D01*
X186482674Y-110800614D01*
X186480272Y-110825000D01*
X186482674Y-110849386D01*
X186489787Y-110872835D01*
X186501338Y-110894446D01*
X186506404Y-110900620D01*
X186511011Y-110907515D01*
X186511015Y-110907519D01*
X186604147Y-111046900D01*
X186668297Y-111201772D01*
X186701000Y-111366184D01*
X186701000Y-111533816D01*
X186668297Y-111698228D01*
X186604147Y-111853100D01*
X186511015Y-111992481D01*
X186392481Y-112111015D01*
X186253100Y-112204147D01*
X186098228Y-112268297D01*
X185933816Y-112301000D01*
X185766184Y-112301000D01*
X185601772Y-112268297D01*
X185446900Y-112204147D01*
X185307519Y-112111015D01*
X185188985Y-111992481D01*
X185095853Y-111853100D01*
X185031703Y-111698228D01*
X184999000Y-111533816D01*
X184999000Y-111366184D01*
X185031703Y-111201772D01*
X185095853Y-111046900D01*
X185188985Y-110907519D01*
X185188989Y-110907515D01*
X185193596Y-110900620D01*
X185198662Y-110894446D01*
X185210213Y-110872835D01*
X185217326Y-110849386D01*
X185219728Y-110825000D01*
X185217326Y-110800614D01*
X185210213Y-110777165D01*
X185198662Y-110755554D01*
X185193596Y-110749380D01*
X185188989Y-110742485D01*
X185188985Y-110742481D01*
X185095853Y-110603100D01*
X185031703Y-110448228D01*
X184999000Y-110283816D01*
X184999000Y-110116184D01*
X185031703Y-109951772D01*
X185095853Y-109796900D01*
X185188985Y-109657519D01*
X185307519Y-109538985D01*
X185446900Y-109445853D01*
X185601772Y-109381703D01*
X185766184Y-109349000D01*
X185933816Y-109349000D01*
X186098228Y-109381703D01*
G37*
G36*
X126678228Y-106021703D02*
G01*
X126833100Y-106085853D01*
X126972481Y-106178985D01*
X127091015Y-106297519D01*
X127184147Y-106436900D01*
X127248297Y-106591772D01*
X127281000Y-106756184D01*
X127281000Y-106923816D01*
X127248297Y-107088228D01*
X127184147Y-107243100D01*
X127091015Y-107382481D01*
X126972481Y-107501015D01*
X126833100Y-107594147D01*
X126678228Y-107658297D01*
X126513816Y-107691000D01*
X126346184Y-107691000D01*
X126181772Y-107658297D01*
X126026900Y-107594147D01*
X125887519Y-107501015D01*
X125768985Y-107382481D01*
X125675853Y-107243100D01*
X125611703Y-107088228D01*
X125579000Y-106923816D01*
X125579000Y-106756184D01*
X125611703Y-106591772D01*
X125675853Y-106436900D01*
X125768985Y-106297519D01*
X125887519Y-106178985D01*
X126026900Y-106085853D01*
X126181772Y-106021703D01*
X126346184Y-105989000D01*
X126513816Y-105989000D01*
X126678228Y-106021703D01*
G37*
G36*
X129218228Y-106021703D02*
G01*
X129373100Y-106085853D01*
X129512481Y-106178985D01*
X129631015Y-106297519D01*
X129724147Y-106436900D01*
X129788297Y-106591772D01*
X129821000Y-106756184D01*
X129821000Y-106923816D01*
X129788297Y-107088228D01*
X129724147Y-107243100D01*
X129631015Y-107382481D01*
X129512481Y-107501015D01*
X129373100Y-107594147D01*
X129218228Y-107658297D01*
X129053816Y-107691000D01*
X128886184Y-107691000D01*
X128721772Y-107658297D01*
X128566900Y-107594147D01*
X128427519Y-107501015D01*
X128308985Y-107382481D01*
X128215853Y-107243100D01*
X128151703Y-107088228D01*
X128119000Y-106923816D01*
X128119000Y-106756184D01*
X128151703Y-106591772D01*
X128215853Y-106436900D01*
X128308985Y-106297519D01*
X128427519Y-106178985D01*
X128566900Y-106085853D01*
X128721772Y-106021703D01*
X128886184Y-105989000D01*
X129053816Y-105989000D01*
X129218228Y-106021703D01*
G37*
G36*
X131758228Y-106021703D02*
G01*
X131913100Y-106085853D01*
X132052481Y-106178985D01*
X132171015Y-106297519D01*
X132264147Y-106436900D01*
X132328297Y-106591772D01*
X132361000Y-106756184D01*
X132361000Y-106923816D01*
X132328297Y-107088228D01*
X132264147Y-107243100D01*
X132171015Y-107382481D01*
X132052481Y-107501015D01*
X131913100Y-107594147D01*
X131758228Y-107658297D01*
X131593816Y-107691000D01*
X131426184Y-107691000D01*
X131261772Y-107658297D01*
X131106900Y-107594147D01*
X130967519Y-107501015D01*
X130848985Y-107382481D01*
X130755853Y-107243100D01*
X130691703Y-107088228D01*
X130659000Y-106923816D01*
X130659000Y-106756184D01*
X130691703Y-106591772D01*
X130755853Y-106436900D01*
X130848985Y-106297519D01*
X130967519Y-106178985D01*
X131106900Y-106085853D01*
X131261772Y-106021703D01*
X131426184Y-105989000D01*
X131593816Y-105989000D01*
X131758228Y-106021703D01*
G37*
G36*
X124138228Y-106021703D02*
G01*
X124293100Y-106085853D01*
X124432481Y-106178985D01*
X124551015Y-106297519D01*
X124644147Y-106436900D01*
X124708297Y-106591772D01*
X124741000Y-106756184D01*
X124741000Y-106923816D01*
X124708297Y-107088228D01*
X124644147Y-107243100D01*
X124551015Y-107382481D01*
X124432481Y-107501015D01*
X124293100Y-107594147D01*
X124138228Y-107658297D01*
X123973816Y-107691000D01*
X123806184Y-107691000D01*
X123641772Y-107658297D01*
X123486900Y-107594147D01*
X123347519Y-107501015D01*
X123228985Y-107382481D01*
X123135853Y-107243100D01*
X123071703Y-107088228D01*
X123039000Y-106923816D01*
X123039000Y-106756184D01*
X123071703Y-106591772D01*
X123135853Y-106436900D01*
X123228985Y-106297519D01*
X123347519Y-106178985D01*
X123486900Y-106085853D01*
X123641772Y-106021703D01*
X123806184Y-105989000D01*
X123973816Y-105989000D01*
X124138228Y-106021703D01*
G37*
G36*
X134298228Y-106021703D02*
G01*
X134453100Y-106085853D01*
X134592481Y-106178985D01*
X134711015Y-106297519D01*
X134804147Y-106436900D01*
X134868297Y-106591772D01*
X134901000Y-106756184D01*
X134901000Y-106923816D01*
X134868297Y-107088228D01*
X134804147Y-107243100D01*
X134711015Y-107382481D01*
X134592481Y-107501015D01*
X134453100Y-107594147D01*
X134298228Y-107658297D01*
X134133816Y-107691000D01*
X133966184Y-107691000D01*
X133801772Y-107658297D01*
X133646900Y-107594147D01*
X133507519Y-107501015D01*
X133388985Y-107382481D01*
X133295853Y-107243100D01*
X133231703Y-107088228D01*
X133199000Y-106923816D01*
X133199000Y-106756184D01*
X133231703Y-106591772D01*
X133295853Y-106436900D01*
X133388985Y-106297519D01*
X133507519Y-106178985D01*
X133646900Y-106085853D01*
X133801772Y-106021703D01*
X133966184Y-105989000D01*
X134133816Y-105989000D01*
X134298228Y-106021703D01*
G37*
G36*
X136838228Y-106021703D02*
G01*
X136993100Y-106085853D01*
X137132481Y-106178985D01*
X137251015Y-106297519D01*
X137344147Y-106436900D01*
X137408297Y-106591772D01*
X137441000Y-106756184D01*
X137441000Y-106923816D01*
X137408297Y-107088228D01*
X137344147Y-107243100D01*
X137251015Y-107382481D01*
X137132481Y-107501015D01*
X136993100Y-107594147D01*
X136838228Y-107658297D01*
X136673816Y-107691000D01*
X136506184Y-107691000D01*
X136341772Y-107658297D01*
X136186900Y-107594147D01*
X136047519Y-107501015D01*
X135928985Y-107382481D01*
X135835853Y-107243100D01*
X135771703Y-107088228D01*
X135739000Y-106923816D01*
X135739000Y-106756184D01*
X135771703Y-106591772D01*
X135835853Y-106436900D01*
X135928985Y-106297519D01*
X136047519Y-106178985D01*
X136186900Y-106085853D01*
X136341772Y-106021703D01*
X136506184Y-105989000D01*
X136673816Y-105989000D01*
X136838228Y-106021703D01*
G37*
G36*
X159698228Y-106021703D02*
G01*
X159853100Y-106085853D01*
X159992481Y-106178985D01*
X160111015Y-106297519D01*
X160204147Y-106436900D01*
X160268297Y-106591772D01*
X160301000Y-106756184D01*
X160301000Y-106923816D01*
X160268297Y-107088228D01*
X160204147Y-107243100D01*
X160111015Y-107382481D01*
X159992481Y-107501015D01*
X159853100Y-107594147D01*
X159698228Y-107658297D01*
X159533816Y-107691000D01*
X159366184Y-107691000D01*
X159201772Y-107658297D01*
X159046900Y-107594147D01*
X158907519Y-107501015D01*
X158788985Y-107382481D01*
X158695853Y-107243100D01*
X158631703Y-107088228D01*
X158599000Y-106923816D01*
X158599000Y-106756184D01*
X158631703Y-106591772D01*
X158695853Y-106436900D01*
X158788985Y-106297519D01*
X158907519Y-106178985D01*
X159046900Y-106085853D01*
X159201772Y-106021703D01*
X159366184Y-105989000D01*
X159533816Y-105989000D01*
X159698228Y-106021703D01*
G37*
G36*
X139378228Y-106021703D02*
G01*
X139533100Y-106085853D01*
X139672481Y-106178985D01*
X139791015Y-106297519D01*
X139884147Y-106436900D01*
X139948297Y-106591772D01*
X139981000Y-106756184D01*
X139981000Y-106923816D01*
X139948297Y-107088228D01*
X139884147Y-107243100D01*
X139791015Y-107382481D01*
X139672481Y-107501015D01*
X139533100Y-107594147D01*
X139378228Y-107658297D01*
X139213816Y-107691000D01*
X139046184Y-107691000D01*
X138881772Y-107658297D01*
X138726900Y-107594147D01*
X138587519Y-107501015D01*
X138468985Y-107382481D01*
X138375853Y-107243100D01*
X138311703Y-107088228D01*
X138279000Y-106923816D01*
X138279000Y-106756184D01*
X138311703Y-106591772D01*
X138375853Y-106436900D01*
X138468985Y-106297519D01*
X138587519Y-106178985D01*
X138726900Y-106085853D01*
X138881772Y-106021703D01*
X139046184Y-105989000D01*
X139213816Y-105989000D01*
X139378228Y-106021703D01*
G37*
G36*
X141918228Y-106021703D02*
G01*
X142073100Y-106085853D01*
X142212481Y-106178985D01*
X142331015Y-106297519D01*
X142424147Y-106436900D01*
X142488297Y-106591772D01*
X142521000Y-106756184D01*
X142521000Y-106923816D01*
X142488297Y-107088228D01*
X142424147Y-107243100D01*
X142331015Y-107382481D01*
X142212481Y-107501015D01*
X142073100Y-107594147D01*
X141918228Y-107658297D01*
X141753816Y-107691000D01*
X141586184Y-107691000D01*
X141421772Y-107658297D01*
X141266900Y-107594147D01*
X141127519Y-107501015D01*
X141008985Y-107382481D01*
X140915853Y-107243100D01*
X140851703Y-107088228D01*
X140819000Y-106923816D01*
X140819000Y-106756184D01*
X140851703Y-106591772D01*
X140915853Y-106436900D01*
X141008985Y-106297519D01*
X141127519Y-106178985D01*
X141266900Y-106085853D01*
X141421772Y-106021703D01*
X141586184Y-105989000D01*
X141753816Y-105989000D01*
X141918228Y-106021703D01*
G37*
G36*
X144458228Y-106021703D02*
G01*
X144613100Y-106085853D01*
X144752481Y-106178985D01*
X144871015Y-106297519D01*
X144964147Y-106436900D01*
X145028297Y-106591772D01*
X145061000Y-106756184D01*
X145061000Y-106923816D01*
X145028297Y-107088228D01*
X144964147Y-107243100D01*
X144871015Y-107382481D01*
X144752481Y-107501015D01*
X144613100Y-107594147D01*
X144458228Y-107658297D01*
X144293816Y-107691000D01*
X144126184Y-107691000D01*
X143961772Y-107658297D01*
X143806900Y-107594147D01*
X143667519Y-107501015D01*
X143548985Y-107382481D01*
X143455853Y-107243100D01*
X143391703Y-107088228D01*
X143359000Y-106923816D01*
X143359000Y-106756184D01*
X143391703Y-106591772D01*
X143455853Y-106436900D01*
X143548985Y-106297519D01*
X143667519Y-106178985D01*
X143806900Y-106085853D01*
X143961772Y-106021703D01*
X144126184Y-105989000D01*
X144293816Y-105989000D01*
X144458228Y-106021703D01*
G37*
G36*
X146998228Y-106021703D02*
G01*
X147153100Y-106085853D01*
X147292481Y-106178985D01*
X147411015Y-106297519D01*
X147504147Y-106436900D01*
X147568297Y-106591772D01*
X147601000Y-106756184D01*
X147601000Y-106923816D01*
X147568297Y-107088228D01*
X147504147Y-107243100D01*
X147411015Y-107382481D01*
X147292481Y-107501015D01*
X147153100Y-107594147D01*
X146998228Y-107658297D01*
X146833816Y-107691000D01*
X146666184Y-107691000D01*
X146501772Y-107658297D01*
X146346900Y-107594147D01*
X146207519Y-107501015D01*
X146088985Y-107382481D01*
X145995853Y-107243100D01*
X145931703Y-107088228D01*
X145899000Y-106923816D01*
X145899000Y-106756184D01*
X145931703Y-106591772D01*
X145995853Y-106436900D01*
X146088985Y-106297519D01*
X146207519Y-106178985D01*
X146346900Y-106085853D01*
X146501772Y-106021703D01*
X146666184Y-105989000D01*
X146833816Y-105989000D01*
X146998228Y-106021703D01*
G37*
G36*
X154618228Y-106021703D02*
G01*
X154773100Y-106085853D01*
X154912481Y-106178985D01*
X155031015Y-106297519D01*
X155124147Y-106436900D01*
X155188297Y-106591772D01*
X155221000Y-106756184D01*
X155221000Y-106923816D01*
X155188297Y-107088228D01*
X155124147Y-107243100D01*
X155031015Y-107382481D01*
X154912481Y-107501015D01*
X154773100Y-107594147D01*
X154618228Y-107658297D01*
X154453816Y-107691000D01*
X154286184Y-107691000D01*
X154121772Y-107658297D01*
X153966900Y-107594147D01*
X153827519Y-107501015D01*
X153708985Y-107382481D01*
X153615853Y-107243100D01*
X153551703Y-107088228D01*
X153519000Y-106923816D01*
X153519000Y-106756184D01*
X153551703Y-106591772D01*
X153615853Y-106436900D01*
X153708985Y-106297519D01*
X153827519Y-106178985D01*
X153966900Y-106085853D01*
X154121772Y-106021703D01*
X154286184Y-105989000D01*
X154453816Y-105989000D01*
X154618228Y-106021703D01*
G37*
G36*
X152078228Y-106021703D02*
G01*
X152233100Y-106085853D01*
X152372481Y-106178985D01*
X152491015Y-106297519D01*
X152584147Y-106436900D01*
X152648297Y-106591772D01*
X152681000Y-106756184D01*
X152681000Y-106923816D01*
X152648297Y-107088228D01*
X152584147Y-107243100D01*
X152491015Y-107382481D01*
X152372481Y-107501015D01*
X152233100Y-107594147D01*
X152078228Y-107658297D01*
X151913816Y-107691000D01*
X151746184Y-107691000D01*
X151581772Y-107658297D01*
X151426900Y-107594147D01*
X151287519Y-107501015D01*
X151168985Y-107382481D01*
X151075853Y-107243100D01*
X151011703Y-107088228D01*
X150979000Y-106923816D01*
X150979000Y-106756184D01*
X151011703Y-106591772D01*
X151075853Y-106436900D01*
X151168985Y-106297519D01*
X151287519Y-106178985D01*
X151426900Y-106085853D01*
X151581772Y-106021703D01*
X151746184Y-105989000D01*
X151913816Y-105989000D01*
X152078228Y-106021703D01*
G37*
G36*
X149538228Y-106021703D02*
G01*
X149693100Y-106085853D01*
X149832481Y-106178985D01*
X149951015Y-106297519D01*
X150044147Y-106436900D01*
X150108297Y-106591772D01*
X150141000Y-106756184D01*
X150141000Y-106923816D01*
X150108297Y-107088228D01*
X150044147Y-107243100D01*
X149951015Y-107382481D01*
X149832481Y-107501015D01*
X149693100Y-107594147D01*
X149538228Y-107658297D01*
X149373816Y-107691000D01*
X149206184Y-107691000D01*
X149041772Y-107658297D01*
X148886900Y-107594147D01*
X148747519Y-107501015D01*
X148628985Y-107382481D01*
X148535853Y-107243100D01*
X148471703Y-107088228D01*
X148439000Y-106923816D01*
X148439000Y-106756184D01*
X148471703Y-106591772D01*
X148535853Y-106436900D01*
X148628985Y-106297519D01*
X148747519Y-106178985D01*
X148886900Y-106085853D01*
X149041772Y-106021703D01*
X149206184Y-105989000D01*
X149373816Y-105989000D01*
X149538228Y-106021703D01*
G37*
G36*
X157158228Y-106021703D02*
G01*
X157313100Y-106085853D01*
X157452481Y-106178985D01*
X157571015Y-106297519D01*
X157664147Y-106436900D01*
X157728297Y-106591772D01*
X157761000Y-106756184D01*
X157761000Y-106923816D01*
X157728297Y-107088228D01*
X157664147Y-107243100D01*
X157571015Y-107382481D01*
X157452481Y-107501015D01*
X157313100Y-107594147D01*
X157158228Y-107658297D01*
X156993816Y-107691000D01*
X156826184Y-107691000D01*
X156661772Y-107658297D01*
X156506900Y-107594147D01*
X156367519Y-107501015D01*
X156248985Y-107382481D01*
X156155853Y-107243100D01*
X156091703Y-107088228D01*
X156059000Y-106923816D01*
X156059000Y-106756184D01*
X156091703Y-106591772D01*
X156155853Y-106436900D01*
X156248985Y-106297519D01*
X156367519Y-106178985D01*
X156506900Y-106085853D01*
X156661772Y-106021703D01*
X156826184Y-105989000D01*
X156993816Y-105989000D01*
X157158228Y-106021703D01*
G37*
G36*
X171695936Y-100641340D02*
G01*
X171794220Y-100651020D01*
X171983381Y-100708401D01*
X172157712Y-100801583D01*
X172310515Y-100926985D01*
X172435917Y-101079788D01*
X172529099Y-101254119D01*
X172586480Y-101443280D01*
X172605855Y-101640000D01*
X172586480Y-101836720D01*
X172529099Y-102025881D01*
X172435917Y-102200212D01*
X172310515Y-102353015D01*
X172157712Y-102478417D01*
X171983381Y-102571599D01*
X171794220Y-102628980D01*
X171695936Y-102638660D01*
X171646795Y-102643500D01*
X171453205Y-102643500D01*
X171404064Y-102638660D01*
X171305780Y-102628980D01*
X171116619Y-102571599D01*
X170942288Y-102478417D01*
X170789485Y-102353015D01*
X170664083Y-102200212D01*
X170570901Y-102025881D01*
X170513520Y-101836720D01*
X170494145Y-101640000D01*
X170513520Y-101443280D01*
X170570901Y-101254119D01*
X170664083Y-101079788D01*
X170789485Y-100926985D01*
X170942288Y-100801583D01*
X171116619Y-100708401D01*
X171305780Y-100651020D01*
X171404064Y-100641340D01*
X171453205Y-100636500D01*
X171646795Y-100636500D01*
X171695936Y-100641340D01*
G37*
G36*
X151986228Y-100667703D02*
G01*
X152141100Y-100731853D01*
X152280481Y-100824985D01*
X152399015Y-100943519D01*
X152492147Y-101082900D01*
X152556297Y-101237772D01*
X152589000Y-101402184D01*
X152589000Y-101569816D01*
X152556297Y-101734228D01*
X152492147Y-101889100D01*
X152399015Y-102028481D01*
X152280481Y-102147015D01*
X152141100Y-102240147D01*
X151986228Y-102304297D01*
X151821816Y-102337000D01*
X151654184Y-102337000D01*
X151489772Y-102304297D01*
X151334900Y-102240147D01*
X151195519Y-102147015D01*
X151076985Y-102028481D01*
X150983853Y-101889100D01*
X150919703Y-101734228D01*
X150887000Y-101569816D01*
X150887000Y-101402184D01*
X150919703Y-101237772D01*
X150983853Y-101082900D01*
X151076985Y-100943519D01*
X151195519Y-100824985D01*
X151334900Y-100731853D01*
X151489772Y-100667703D01*
X151654184Y-100635000D01*
X151821816Y-100635000D01*
X151986228Y-100667703D01*
G37*
G36*
X131666228Y-100667703D02*
G01*
X131821100Y-100731853D01*
X131960481Y-100824985D01*
X132079015Y-100943519D01*
X132172147Y-101082900D01*
X132236297Y-101237772D01*
X132269000Y-101402184D01*
X132269000Y-101569816D01*
X132236297Y-101734228D01*
X132172147Y-101889100D01*
X132079015Y-102028481D01*
X131960481Y-102147015D01*
X131821100Y-102240147D01*
X131666228Y-102304297D01*
X131501816Y-102337000D01*
X131334184Y-102337000D01*
X131169772Y-102304297D01*
X131014900Y-102240147D01*
X130875519Y-102147015D01*
X130756985Y-102028481D01*
X130663853Y-101889100D01*
X130599703Y-101734228D01*
X130567000Y-101569816D01*
X130567000Y-101402184D01*
X130599703Y-101237772D01*
X130663853Y-101082900D01*
X130756985Y-100943519D01*
X130875519Y-100824985D01*
X131014900Y-100731853D01*
X131169772Y-100667703D01*
X131334184Y-100635000D01*
X131501816Y-100635000D01*
X131666228Y-100667703D01*
G37*
G36*
X188735331Y-97368211D02*
G01*
X189063092Y-97503974D01*
X189358070Y-97701072D01*
X189608928Y-97951930D01*
X189806026Y-98246908D01*
X189941789Y-98574669D01*
X190011000Y-98922616D01*
X190011000Y-99277384D01*
X189941789Y-99625331D01*
X189806026Y-99953092D01*
X189608928Y-100248070D01*
X189358070Y-100498928D01*
X189063092Y-100696026D01*
X188735331Y-100831789D01*
X188387384Y-100901000D01*
X188032616Y-100901000D01*
X187684669Y-100831789D01*
X187356908Y-100696026D01*
X187061930Y-100498928D01*
X186811072Y-100248070D01*
X186613974Y-99953092D01*
X186478211Y-99625331D01*
X186409000Y-99277384D01*
X186409000Y-98922616D01*
X186478211Y-98574669D01*
X186613974Y-98246908D01*
X186811072Y-97951930D01*
X187061930Y-97701072D01*
X187356908Y-97503974D01*
X187684669Y-97368211D01*
X188032616Y-97299000D01*
X188387384Y-97299000D01*
X188735331Y-97368211D01*
G37*
G36*
X171695936Y-98101340D02*
G01*
X171794220Y-98111020D01*
X171983381Y-98168401D01*
X172157712Y-98261583D01*
X172310515Y-98386985D01*
X172435917Y-98539788D01*
X172529099Y-98714119D01*
X172586480Y-98903280D01*
X172605855Y-99100000D01*
X172586480Y-99296720D01*
X172529099Y-99485881D01*
X172435917Y-99660212D01*
X172310515Y-99813015D01*
X172157712Y-99938417D01*
X171983381Y-100031599D01*
X171794220Y-100088980D01*
X171695936Y-100098660D01*
X171646795Y-100103500D01*
X171453205Y-100103500D01*
X171404064Y-100098660D01*
X171305780Y-100088980D01*
X171116619Y-100031599D01*
X170942288Y-99938417D01*
X170789485Y-99813015D01*
X170664083Y-99660212D01*
X170570901Y-99485881D01*
X170513520Y-99296720D01*
X170494145Y-99100000D01*
X170513520Y-98903280D01*
X170570901Y-98714119D01*
X170664083Y-98539788D01*
X170789485Y-98386985D01*
X170942288Y-98261583D01*
X171116619Y-98168401D01*
X171305780Y-98111020D01*
X171404064Y-98101340D01*
X171453205Y-98096500D01*
X171646795Y-98096500D01*
X171695936Y-98101340D01*
G37*
G36*
X172601000Y-97563500D02*
G01*
X170499000Y-97563500D01*
X170499000Y-95556500D01*
X172601000Y-95556500D01*
X172601000Y-97563500D01*
G37*
G36*
X151986228Y-95667703D02*
G01*
X152141100Y-95731853D01*
X152280481Y-95824985D01*
X152399015Y-95943519D01*
X152492147Y-96082900D01*
X152556297Y-96237772D01*
X152589000Y-96402184D01*
X152589000Y-96569816D01*
X152556297Y-96734228D01*
X152492147Y-96889100D01*
X152399015Y-97028481D01*
X152280481Y-97147015D01*
X152141100Y-97240147D01*
X151986228Y-97304297D01*
X151821816Y-97337000D01*
X151654184Y-97337000D01*
X151489772Y-97304297D01*
X151334900Y-97240147D01*
X151195519Y-97147015D01*
X151076985Y-97028481D01*
X150983853Y-96889100D01*
X150919703Y-96734228D01*
X150887000Y-96569816D01*
X150887000Y-96402184D01*
X150919703Y-96237772D01*
X150983853Y-96082900D01*
X151076985Y-95943519D01*
X151195519Y-95824985D01*
X151334900Y-95731853D01*
X151489772Y-95667703D01*
X151654184Y-95635000D01*
X151821816Y-95635000D01*
X151986228Y-95667703D01*
G37*
G36*
X131666228Y-95667703D02*
G01*
X131821100Y-95731853D01*
X131960481Y-95824985D01*
X132079015Y-95943519D01*
X132172147Y-96082900D01*
X132236297Y-96237772D01*
X132269000Y-96402184D01*
X132269000Y-96569816D01*
X132236297Y-96734228D01*
X132172147Y-96889100D01*
X132079015Y-97028481D01*
X131960481Y-97147015D01*
X131821100Y-97240147D01*
X131666228Y-97304297D01*
X131501816Y-97337000D01*
X131334184Y-97337000D01*
X131169772Y-97304297D01*
X131014900Y-97240147D01*
X130875519Y-97147015D01*
X130756985Y-97028481D01*
X130663853Y-96889100D01*
X130599703Y-96734228D01*
X130567000Y-96569816D01*
X130567000Y-96402184D01*
X130599703Y-96237772D01*
X130663853Y-96082900D01*
X130756985Y-95943519D01*
X130875519Y-95824985D01*
X131014900Y-95731853D01*
X131169772Y-95667703D01*
X131334184Y-95635000D01*
X131501816Y-95635000D01*
X131666228Y-95667703D01*
G37*
G36*
X154618228Y-90781703D02*
G01*
X154773100Y-90845853D01*
X154912481Y-90938985D01*
X155031015Y-91057519D01*
X155124147Y-91196900D01*
X155188297Y-91351772D01*
X155221000Y-91516184D01*
X155221000Y-91683816D01*
X155188297Y-91848228D01*
X155124147Y-92003100D01*
X155031015Y-92142481D01*
X154912481Y-92261015D01*
X154773100Y-92354147D01*
X154618228Y-92418297D01*
X154453816Y-92451000D01*
X154286184Y-92451000D01*
X154121772Y-92418297D01*
X153966900Y-92354147D01*
X153827519Y-92261015D01*
X153708985Y-92142481D01*
X153615853Y-92003100D01*
X153551703Y-91848228D01*
X153519000Y-91683816D01*
X153519000Y-91516184D01*
X153551703Y-91351772D01*
X153615853Y-91196900D01*
X153708985Y-91057519D01*
X153827519Y-90938985D01*
X153966900Y-90845853D01*
X154121772Y-90781703D01*
X154286184Y-90749000D01*
X154453816Y-90749000D01*
X154618228Y-90781703D01*
G37*
G36*
X160301000Y-92451000D02*
G01*
X158599000Y-92451000D01*
X158599000Y-90749000D01*
X160301000Y-90749000D01*
X160301000Y-92451000D01*
G37*
G36*
X149538228Y-90781703D02*
G01*
X149693100Y-90845853D01*
X149832481Y-90938985D01*
X149951015Y-91057519D01*
X150044147Y-91196900D01*
X150108297Y-91351772D01*
X150141000Y-91516184D01*
X150141000Y-91683816D01*
X150108297Y-91848228D01*
X150044147Y-92003100D01*
X149951015Y-92142481D01*
X149832481Y-92261015D01*
X149693100Y-92354147D01*
X149538228Y-92418297D01*
X149373816Y-92451000D01*
X149206184Y-92451000D01*
X149041772Y-92418297D01*
X148886900Y-92354147D01*
X148747519Y-92261015D01*
X148628985Y-92142481D01*
X148535853Y-92003100D01*
X148471703Y-91848228D01*
X148439000Y-91683816D01*
X148439000Y-91516184D01*
X148471703Y-91351772D01*
X148535853Y-91196900D01*
X148628985Y-91057519D01*
X148747519Y-90938985D01*
X148886900Y-90845853D01*
X149041772Y-90781703D01*
X149206184Y-90749000D01*
X149373816Y-90749000D01*
X149538228Y-90781703D01*
G37*
G36*
X146998228Y-90781703D02*
G01*
X147153100Y-90845853D01*
X147292481Y-90938985D01*
X147411015Y-91057519D01*
X147504147Y-91196900D01*
X147568297Y-91351772D01*
X147601000Y-91516184D01*
X147601000Y-91683816D01*
X147568297Y-91848228D01*
X147504147Y-92003100D01*
X147411015Y-92142481D01*
X147292481Y-92261015D01*
X147153100Y-92354147D01*
X146998228Y-92418297D01*
X146833816Y-92451000D01*
X146666184Y-92451000D01*
X146501772Y-92418297D01*
X146346900Y-92354147D01*
X146207519Y-92261015D01*
X146088985Y-92142481D01*
X145995853Y-92003100D01*
X145931703Y-91848228D01*
X145899000Y-91683816D01*
X145899000Y-91516184D01*
X145931703Y-91351772D01*
X145995853Y-91196900D01*
X146088985Y-91057519D01*
X146207519Y-90938985D01*
X146346900Y-90845853D01*
X146501772Y-90781703D01*
X146666184Y-90749000D01*
X146833816Y-90749000D01*
X146998228Y-90781703D01*
G37*
G36*
X144458228Y-90781703D02*
G01*
X144613100Y-90845853D01*
X144752481Y-90938985D01*
X144871015Y-91057519D01*
X144964147Y-91196900D01*
X145028297Y-91351772D01*
X145061000Y-91516184D01*
X145061000Y-91683816D01*
X145028297Y-91848228D01*
X144964147Y-92003100D01*
X144871015Y-92142481D01*
X144752481Y-92261015D01*
X144613100Y-92354147D01*
X144458228Y-92418297D01*
X144293816Y-92451000D01*
X144126184Y-92451000D01*
X143961772Y-92418297D01*
X143806900Y-92354147D01*
X143667519Y-92261015D01*
X143548985Y-92142481D01*
X143455853Y-92003100D01*
X143391703Y-91848228D01*
X143359000Y-91683816D01*
X143359000Y-91516184D01*
X143391703Y-91351772D01*
X143455853Y-91196900D01*
X143548985Y-91057519D01*
X143667519Y-90938985D01*
X143806900Y-90845853D01*
X143961772Y-90781703D01*
X144126184Y-90749000D01*
X144293816Y-90749000D01*
X144458228Y-90781703D01*
G37*
G36*
X141918228Y-90781703D02*
G01*
X142073100Y-90845853D01*
X142212481Y-90938985D01*
X142331015Y-91057519D01*
X142424147Y-91196900D01*
X142488297Y-91351772D01*
X142521000Y-91516184D01*
X142521000Y-91683816D01*
X142488297Y-91848228D01*
X142424147Y-92003100D01*
X142331015Y-92142481D01*
X142212481Y-92261015D01*
X142073100Y-92354147D01*
X141918228Y-92418297D01*
X141753816Y-92451000D01*
X141586184Y-92451000D01*
X141421772Y-92418297D01*
X141266900Y-92354147D01*
X141127519Y-92261015D01*
X141008985Y-92142481D01*
X140915853Y-92003100D01*
X140851703Y-91848228D01*
X140819000Y-91683816D01*
X140819000Y-91516184D01*
X140851703Y-91351772D01*
X140915853Y-91196900D01*
X141008985Y-91057519D01*
X141127519Y-90938985D01*
X141266900Y-90845853D01*
X141421772Y-90781703D01*
X141586184Y-90749000D01*
X141753816Y-90749000D01*
X141918228Y-90781703D01*
G37*
G36*
X134298228Y-90781703D02*
G01*
X134453100Y-90845853D01*
X134592481Y-90938985D01*
X134711015Y-91057519D01*
X134804147Y-91196900D01*
X134868297Y-91351772D01*
X134901000Y-91516184D01*
X134901000Y-91683816D01*
X134868297Y-91848228D01*
X134804147Y-92003100D01*
X134711015Y-92142481D01*
X134592481Y-92261015D01*
X134453100Y-92354147D01*
X134298228Y-92418297D01*
X134133816Y-92451000D01*
X133966184Y-92451000D01*
X133801772Y-92418297D01*
X133646900Y-92354147D01*
X133507519Y-92261015D01*
X133388985Y-92142481D01*
X133295853Y-92003100D01*
X133231703Y-91848228D01*
X133199000Y-91683816D01*
X133199000Y-91516184D01*
X133231703Y-91351772D01*
X133295853Y-91196900D01*
X133388985Y-91057519D01*
X133507519Y-90938985D01*
X133646900Y-90845853D01*
X133801772Y-90781703D01*
X133966184Y-90749000D01*
X134133816Y-90749000D01*
X134298228Y-90781703D01*
G37*
G36*
X139378228Y-90781703D02*
G01*
X139533100Y-90845853D01*
X139672481Y-90938985D01*
X139791015Y-91057519D01*
X139884147Y-91196900D01*
X139948297Y-91351772D01*
X139981000Y-91516184D01*
X139981000Y-91683816D01*
X139948297Y-91848228D01*
X139884147Y-92003100D01*
X139791015Y-92142481D01*
X139672481Y-92261015D01*
X139533100Y-92354147D01*
X139378228Y-92418297D01*
X139213816Y-92451000D01*
X139046184Y-92451000D01*
X138881772Y-92418297D01*
X138726900Y-92354147D01*
X138587519Y-92261015D01*
X138468985Y-92142481D01*
X138375853Y-92003100D01*
X138311703Y-91848228D01*
X138279000Y-91683816D01*
X138279000Y-91516184D01*
X138311703Y-91351772D01*
X138375853Y-91196900D01*
X138468985Y-91057519D01*
X138587519Y-90938985D01*
X138726900Y-90845853D01*
X138881772Y-90781703D01*
X139046184Y-90749000D01*
X139213816Y-90749000D01*
X139378228Y-90781703D01*
G37*
G36*
X152078228Y-90781703D02*
G01*
X152233100Y-90845853D01*
X152372481Y-90938985D01*
X152491015Y-91057519D01*
X152584147Y-91196900D01*
X152648297Y-91351772D01*
X152681000Y-91516184D01*
X152681000Y-91683816D01*
X152648297Y-91848228D01*
X152584147Y-92003100D01*
X152491015Y-92142481D01*
X152372481Y-92261015D01*
X152233100Y-92354147D01*
X152078228Y-92418297D01*
X151913816Y-92451000D01*
X151746184Y-92451000D01*
X151581772Y-92418297D01*
X151426900Y-92354147D01*
X151287519Y-92261015D01*
X151168985Y-92142481D01*
X151075853Y-92003100D01*
X151011703Y-91848228D01*
X150979000Y-91683816D01*
X150979000Y-91516184D01*
X151011703Y-91351772D01*
X151075853Y-91196900D01*
X151168985Y-91057519D01*
X151287519Y-90938985D01*
X151426900Y-90845853D01*
X151581772Y-90781703D01*
X151746184Y-90749000D01*
X151913816Y-90749000D01*
X152078228Y-90781703D01*
G37*
G36*
X131758228Y-90781703D02*
G01*
X131913100Y-90845853D01*
X132052481Y-90938985D01*
X132171015Y-91057519D01*
X132264147Y-91196900D01*
X132328297Y-91351772D01*
X132361000Y-91516184D01*
X132361000Y-91683816D01*
X132328297Y-91848228D01*
X132264147Y-92003100D01*
X132171015Y-92142481D01*
X132052481Y-92261015D01*
X131913100Y-92354147D01*
X131758228Y-92418297D01*
X131593816Y-92451000D01*
X131426184Y-92451000D01*
X131261772Y-92418297D01*
X131106900Y-92354147D01*
X130967519Y-92261015D01*
X130848985Y-92142481D01*
X130755853Y-92003100D01*
X130691703Y-91848228D01*
X130659000Y-91683816D01*
X130659000Y-91516184D01*
X130691703Y-91351772D01*
X130755853Y-91196900D01*
X130848985Y-91057519D01*
X130967519Y-90938985D01*
X131106900Y-90845853D01*
X131261772Y-90781703D01*
X131426184Y-90749000D01*
X131593816Y-90749000D01*
X131758228Y-90781703D01*
G37*
G36*
X129218228Y-90781703D02*
G01*
X129373100Y-90845853D01*
X129512481Y-90938985D01*
X129631015Y-91057519D01*
X129724147Y-91196900D01*
X129788297Y-91351772D01*
X129821000Y-91516184D01*
X129821000Y-91683816D01*
X129788297Y-91848228D01*
X129724147Y-92003100D01*
X129631015Y-92142481D01*
X129512481Y-92261015D01*
X129373100Y-92354147D01*
X129218228Y-92418297D01*
X129053816Y-92451000D01*
X128886184Y-92451000D01*
X128721772Y-92418297D01*
X128566900Y-92354147D01*
X128427519Y-92261015D01*
X128308985Y-92142481D01*
X128215853Y-92003100D01*
X128151703Y-91848228D01*
X128119000Y-91683816D01*
X128119000Y-91516184D01*
X128151703Y-91351772D01*
X128215853Y-91196900D01*
X128308985Y-91057519D01*
X128427519Y-90938985D01*
X128566900Y-90845853D01*
X128721772Y-90781703D01*
X128886184Y-90749000D01*
X129053816Y-90749000D01*
X129218228Y-90781703D01*
G37*
G36*
X157158228Y-90781703D02*
G01*
X157313100Y-90845853D01*
X157452481Y-90938985D01*
X157571015Y-91057519D01*
X157664147Y-91196900D01*
X157728297Y-91351772D01*
X157761000Y-91516184D01*
X157761000Y-91683816D01*
X157728297Y-91848228D01*
X157664147Y-92003100D01*
X157571015Y-92142481D01*
X157452481Y-92261015D01*
X157313100Y-92354147D01*
X157158228Y-92418297D01*
X156993816Y-92451000D01*
X156826184Y-92451000D01*
X156661772Y-92418297D01*
X156506900Y-92354147D01*
X156367519Y-92261015D01*
X156248985Y-92142481D01*
X156155853Y-92003100D01*
X156091703Y-91848228D01*
X156059000Y-91683816D01*
X156059000Y-91516184D01*
X156091703Y-91351772D01*
X156155853Y-91196900D01*
X156248985Y-91057519D01*
X156367519Y-90938985D01*
X156506900Y-90845853D01*
X156661772Y-90781703D01*
X156826184Y-90749000D01*
X156993816Y-90749000D01*
X157158228Y-90781703D01*
G37*
G36*
X126678228Y-90781703D02*
G01*
X126833100Y-90845853D01*
X126972481Y-90938985D01*
X127091015Y-91057519D01*
X127184147Y-91196900D01*
X127248297Y-91351772D01*
X127281000Y-91516184D01*
X127281000Y-91683816D01*
X127248297Y-91848228D01*
X127184147Y-92003100D01*
X127091015Y-92142481D01*
X126972481Y-92261015D01*
X126833100Y-92354147D01*
X126678228Y-92418297D01*
X126513816Y-92451000D01*
X126346184Y-92451000D01*
X126181772Y-92418297D01*
X126026900Y-92354147D01*
X125887519Y-92261015D01*
X125768985Y-92142481D01*
X125675853Y-92003100D01*
X125611703Y-91848228D01*
X125579000Y-91683816D01*
X125579000Y-91516184D01*
X125611703Y-91351772D01*
X125675853Y-91196900D01*
X125768985Y-91057519D01*
X125887519Y-90938985D01*
X126026900Y-90845853D01*
X126181772Y-90781703D01*
X126346184Y-90749000D01*
X126513816Y-90749000D01*
X126678228Y-90781703D01*
G37*
G36*
X124138228Y-90781703D02*
G01*
X124293100Y-90845853D01*
X124432481Y-90938985D01*
X124551015Y-91057519D01*
X124644147Y-91196900D01*
X124708297Y-91351772D01*
X124741000Y-91516184D01*
X124741000Y-91683816D01*
X124708297Y-91848228D01*
X124644147Y-92003100D01*
X124551015Y-92142481D01*
X124432481Y-92261015D01*
X124293100Y-92354147D01*
X124138228Y-92418297D01*
X123973816Y-92451000D01*
X123806184Y-92451000D01*
X123641772Y-92418297D01*
X123486900Y-92354147D01*
X123347519Y-92261015D01*
X123228985Y-92142481D01*
X123135853Y-92003100D01*
X123071703Y-91848228D01*
X123039000Y-91683816D01*
X123039000Y-91516184D01*
X123071703Y-91351772D01*
X123135853Y-91196900D01*
X123228985Y-91057519D01*
X123347519Y-90938985D01*
X123486900Y-90845853D01*
X123641772Y-90781703D01*
X123806184Y-90749000D01*
X123973816Y-90749000D01*
X124138228Y-90781703D01*
G37*
G36*
X136838228Y-90781703D02*
G01*
X136993100Y-90845853D01*
X137132481Y-90938985D01*
X137251015Y-91057519D01*
X137344147Y-91196900D01*
X137408297Y-91351772D01*
X137441000Y-91516184D01*
X137441000Y-91683816D01*
X137408297Y-91848228D01*
X137344147Y-92003100D01*
X137251015Y-92142481D01*
X137132481Y-92261015D01*
X136993100Y-92354147D01*
X136838228Y-92418297D01*
X136673816Y-92451000D01*
X136506184Y-92451000D01*
X136341772Y-92418297D01*
X136186900Y-92354147D01*
X136047519Y-92261015D01*
X135928985Y-92142481D01*
X135835853Y-92003100D01*
X135771703Y-91848228D01*
X135739000Y-91683816D01*
X135739000Y-91516184D01*
X135771703Y-91351772D01*
X135835853Y-91196900D01*
X135928985Y-91057519D01*
X136047519Y-90938985D01*
X136186900Y-90845853D01*
X136341772Y-90781703D01*
X136506184Y-90749000D01*
X136673816Y-90749000D01*
X136838228Y-90781703D01*
G37*
G36*
X136097142Y-84308242D02*
G01*
X136245101Y-84369529D01*
X136378255Y-84458499D01*
X136491501Y-84571745D01*
X136580471Y-84704899D01*
X136641758Y-84852858D01*
X136673000Y-85009925D01*
X136673000Y-85170075D01*
X136641758Y-85327142D01*
X136580471Y-85475101D01*
X136491501Y-85608255D01*
X136378255Y-85721501D01*
X136245101Y-85810471D01*
X136097142Y-85871758D01*
X135940075Y-85903000D01*
X135779925Y-85903000D01*
X135622858Y-85871758D01*
X135474899Y-85810471D01*
X135341745Y-85721501D01*
X135228499Y-85608255D01*
X135139529Y-85475101D01*
X135078242Y-85327142D01*
X135047000Y-85170075D01*
X135047000Y-85009925D01*
X135078242Y-84852858D01*
X135139529Y-84704899D01*
X135228499Y-84571745D01*
X135341745Y-84458499D01*
X135474899Y-84369529D01*
X135622858Y-84308242D01*
X135779925Y-84277000D01*
X135940075Y-84277000D01*
X136097142Y-84308242D01*
G37*
G36*
X136673000Y-83363000D02*
G01*
X135047000Y-83363000D01*
X135047000Y-81737000D01*
X136673000Y-81737000D01*
X136673000Y-83363000D01*
G37*
G36*
X136097142Y-79228242D02*
G01*
X136245101Y-79289529D01*
X136378255Y-79378499D01*
X136491501Y-79491745D01*
X136580471Y-79624899D01*
X136641758Y-79772858D01*
X136673000Y-79929925D01*
X136673000Y-80090075D01*
X136641758Y-80247142D01*
X136580471Y-80395101D01*
X136491501Y-80528255D01*
X136378255Y-80641501D01*
X136245101Y-80730471D01*
X136097142Y-80791758D01*
X135940075Y-80823000D01*
X135779925Y-80823000D01*
X135622858Y-80791758D01*
X135474899Y-80730471D01*
X135341745Y-80641501D01*
X135228499Y-80528255D01*
X135139529Y-80395101D01*
X135078242Y-80247142D01*
X135047000Y-80090075D01*
X135047000Y-79929925D01*
X135078242Y-79772858D01*
X135139529Y-79624899D01*
X135228499Y-79491745D01*
X135341745Y-79378499D01*
X135474899Y-79289529D01*
X135622858Y-79228242D01*
X135779925Y-79197000D01*
X135940075Y-79197000D01*
X136097142Y-79228242D01*
G37*
G36*
X189458000Y-78323000D02*
G01*
X187832000Y-78323000D01*
X187832000Y-76697000D01*
X189458000Y-76697000D01*
X189458000Y-78323000D01*
G37*
G36*
X171678000Y-78323000D02*
G01*
X170052000Y-78323000D01*
X170052000Y-76697000D01*
X171678000Y-76697000D01*
X171678000Y-78323000D01*
G37*
G36*
X136097142Y-76688242D02*
G01*
X136245101Y-76749529D01*
X136378255Y-76838499D01*
X136491501Y-76951745D01*
X136580471Y-77084899D01*
X136641758Y-77232858D01*
X136673000Y-77389925D01*
X136673000Y-77550075D01*
X136641758Y-77707142D01*
X136580471Y-77855101D01*
X136491501Y-77988255D01*
X136378255Y-78101501D01*
X136245101Y-78190471D01*
X136097142Y-78251758D01*
X135940075Y-78283000D01*
X135779925Y-78283000D01*
X135622858Y-78251758D01*
X135474899Y-78190471D01*
X135341745Y-78101501D01*
X135228499Y-77988255D01*
X135139529Y-77855101D01*
X135078242Y-77707142D01*
X135047000Y-77550075D01*
X135047000Y-77389925D01*
X135078242Y-77232858D01*
X135139529Y-77084899D01*
X135228499Y-76951745D01*
X135341745Y-76838499D01*
X135474899Y-76749529D01*
X135622858Y-76688242D01*
X135779925Y-76657000D01*
X135940075Y-76657000D01*
X136097142Y-76688242D01*
G37*
G36*
X185725256Y-71091298D02*
G01*
X185831579Y-71112447D01*
X186132042Y-71236903D01*
X186402451Y-71417585D01*
X186632415Y-71647549D01*
X186747956Y-71820468D01*
X186813098Y-71917960D01*
X186837549Y-71976991D01*
X186937553Y-72218421D01*
X186955857Y-72310442D01*
X186968699Y-72375000D01*
X187001000Y-72537391D01*
X187001000Y-72862609D01*
X186937553Y-73181579D01*
X186813097Y-73482042D01*
X186632415Y-73752451D01*
X186402451Y-73982415D01*
X186132042Y-74163097D01*
X185831579Y-74287553D01*
X185725256Y-74308702D01*
X185512611Y-74351000D01*
X185187389Y-74351000D01*
X184974744Y-74308702D01*
X184868421Y-74287553D01*
X184567958Y-74163097D01*
X184297549Y-73982415D01*
X184067585Y-73752451D01*
X183886903Y-73482042D01*
X183762447Y-73181579D01*
X183699000Y-72862609D01*
X183699000Y-72537391D01*
X183731302Y-72375000D01*
X183744143Y-72310442D01*
X183762447Y-72218421D01*
X183862451Y-71976991D01*
X183886902Y-71917960D01*
X183952044Y-71820468D01*
X184067585Y-71647549D01*
X184297549Y-71417585D01*
X184567958Y-71236903D01*
X184868421Y-71112447D01*
X184974744Y-71091298D01*
X185187389Y-71049000D01*
X185512611Y-71049000D01*
X185725256Y-71091298D01*
G37*
G36*
X132725256Y-71091298D02*
G01*
X132831579Y-71112447D01*
X133132042Y-71236903D01*
X133402451Y-71417585D01*
X133632415Y-71647549D01*
X133747956Y-71820468D01*
X133813098Y-71917960D01*
X133837549Y-71976991D01*
X133937553Y-72218421D01*
X133955857Y-72310442D01*
X133968699Y-72375000D01*
X134001000Y-72537391D01*
X134001000Y-72862609D01*
X133937553Y-73181579D01*
X133813097Y-73482042D01*
X133632415Y-73752451D01*
X133402451Y-73982415D01*
X133132042Y-74163097D01*
X132831579Y-74287553D01*
X132725256Y-74308702D01*
X132512611Y-74351000D01*
X132187389Y-74351000D01*
X131974744Y-74308702D01*
X131868421Y-74287553D01*
X131567958Y-74163097D01*
X131297549Y-73982415D01*
X131067585Y-73752451D01*
X130886903Y-73482042D01*
X130762447Y-73181579D01*
X130699000Y-72862609D01*
X130699000Y-72537391D01*
X130731302Y-72375000D01*
X130744143Y-72310442D01*
X130762447Y-72218421D01*
X130862451Y-71976991D01*
X130886902Y-71917960D01*
X130952044Y-71820468D01*
X131067585Y-71647549D01*
X131297549Y-71417585D01*
X131567958Y-71236903D01*
X131868421Y-71112447D01*
X131974744Y-71091298D01*
X132187389Y-71049000D01*
X132512611Y-71049000D01*
X132725256Y-71091298D01*
G37*
G36*
X176382442Y-70579518D02*
G01*
X176448627Y-70586037D01*
X176618466Y-70637557D01*
X176774991Y-70721222D01*
X176810729Y-70750552D01*
X176912186Y-70833814D01*
X176995448Y-70935271D01*
X177024778Y-70971009D01*
X177108443Y-71127534D01*
X177159963Y-71297373D01*
X177177359Y-71474000D01*
X177159963Y-71650627D01*
X177108443Y-71820466D01*
X177024778Y-71976991D01*
X176995448Y-72012729D01*
X176912186Y-72114186D01*
X176810729Y-72197448D01*
X176774991Y-72226778D01*
X176618466Y-72310443D01*
X176448627Y-72361963D01*
X176382442Y-72368482D01*
X176316260Y-72375000D01*
X175927740Y-72375000D01*
X175861558Y-72368482D01*
X175795373Y-72361963D01*
X175625534Y-72310443D01*
X175469009Y-72226778D01*
X175433271Y-72197448D01*
X175331814Y-72114186D01*
X175248552Y-72012729D01*
X175219222Y-71976991D01*
X175135557Y-71820466D01*
X175084037Y-71650627D01*
X175066641Y-71474000D01*
X175084037Y-71297373D01*
X175135557Y-71127534D01*
X175219222Y-70971009D01*
X175248552Y-70935271D01*
X175331814Y-70833814D01*
X175433271Y-70750552D01*
X175469009Y-70721222D01*
X175625534Y-70637557D01*
X175795373Y-70586037D01*
X175861558Y-70579518D01*
X175927740Y-70573000D01*
X176316260Y-70573000D01*
X176382442Y-70579518D01*
G37*
G36*
X155844059Y-69167860D02*
G01*
X155980732Y-69224472D01*
X156103735Y-69306660D01*
X156208340Y-69411265D01*
X156208341Y-69411267D01*
X156290529Y-69534270D01*
X156347140Y-69670941D01*
X156372291Y-69797383D01*
X156376000Y-69816033D01*
X156376000Y-69963967D01*
X156347140Y-70109059D01*
X156290528Y-70245732D01*
X156208340Y-70368735D01*
X156103735Y-70473340D01*
X155980732Y-70555528D01*
X155980731Y-70555529D01*
X155980730Y-70555529D01*
X155844059Y-70612140D01*
X155698968Y-70641000D01*
X155551032Y-70641000D01*
X155405941Y-70612140D01*
X155269270Y-70555529D01*
X155269269Y-70555529D01*
X155269268Y-70555528D01*
X155146265Y-70473340D01*
X155041660Y-70368735D01*
X154959472Y-70245732D01*
X154902860Y-70109059D01*
X154874000Y-69963967D01*
X154874000Y-69816033D01*
X154877710Y-69797383D01*
X154902860Y-69670941D01*
X154959471Y-69534270D01*
X155041659Y-69411267D01*
X155041660Y-69411265D01*
X155146265Y-69306660D01*
X155269268Y-69224472D01*
X155405941Y-69167860D01*
X155551032Y-69139000D01*
X155698968Y-69139000D01*
X155844059Y-69167860D01*
G37*
G36*
X170449059Y-69167860D02*
G01*
X170585732Y-69224472D01*
X170708735Y-69306660D01*
X170813340Y-69411265D01*
X170813341Y-69411267D01*
X170895529Y-69534270D01*
X170952140Y-69670941D01*
X170977291Y-69797383D01*
X170981000Y-69816033D01*
X170981000Y-69963967D01*
X170952140Y-70109059D01*
X170895528Y-70245732D01*
X170813340Y-70368735D01*
X170708735Y-70473340D01*
X170585732Y-70555528D01*
X170585731Y-70555529D01*
X170585730Y-70555529D01*
X170449059Y-70612140D01*
X170303968Y-70641000D01*
X170156032Y-70641000D01*
X170010941Y-70612140D01*
X169874270Y-70555529D01*
X169874269Y-70555529D01*
X169874268Y-70555528D01*
X169751265Y-70473340D01*
X169646660Y-70368735D01*
X169564472Y-70245732D01*
X169507860Y-70109059D01*
X169479000Y-69963967D01*
X169479000Y-69816033D01*
X169482710Y-69797383D01*
X169507860Y-69670941D01*
X169564471Y-69534270D01*
X169646659Y-69411267D01*
X169646660Y-69411265D01*
X169751265Y-69306660D01*
X169874268Y-69224472D01*
X170010941Y-69167860D01*
X170156032Y-69139000D01*
X170303968Y-69139000D01*
X170449059Y-69167860D01*
G37*
G36*
X148224059Y-69167860D02*
G01*
X148360732Y-69224472D01*
X148483735Y-69306660D01*
X148588340Y-69411265D01*
X148588341Y-69411267D01*
X148670529Y-69534270D01*
X148727140Y-69670941D01*
X148752291Y-69797383D01*
X148756000Y-69816033D01*
X148756000Y-69963967D01*
X148727140Y-70109059D01*
X148670528Y-70245732D01*
X148588340Y-70368735D01*
X148483735Y-70473340D01*
X148360732Y-70555528D01*
X148360731Y-70555529D01*
X148360730Y-70555529D01*
X148224059Y-70612140D01*
X148078968Y-70641000D01*
X147931032Y-70641000D01*
X147785941Y-70612140D01*
X147649270Y-70555529D01*
X147649269Y-70555529D01*
X147649268Y-70555528D01*
X147526265Y-70473340D01*
X147421660Y-70368735D01*
X147339472Y-70245732D01*
X147282860Y-70109059D01*
X147254000Y-69963967D01*
X147254000Y-69816033D01*
X147257710Y-69797383D01*
X147282860Y-69670941D01*
X147339471Y-69534270D01*
X147421659Y-69411267D01*
X147421660Y-69411265D01*
X147526265Y-69306660D01*
X147649268Y-69224472D01*
X147785941Y-69167860D01*
X147931032Y-69139000D01*
X148078968Y-69139000D01*
X148224059Y-69167860D01*
G37*
G36*
X162829059Y-69167860D02*
G01*
X162965732Y-69224472D01*
X163088735Y-69306660D01*
X163193340Y-69411265D01*
X163193341Y-69411267D01*
X163275529Y-69534270D01*
X163332140Y-69670941D01*
X163357291Y-69797383D01*
X163361000Y-69816033D01*
X163361000Y-69963967D01*
X163332140Y-70109059D01*
X163275528Y-70245732D01*
X163193340Y-70368735D01*
X163088735Y-70473340D01*
X162965732Y-70555528D01*
X162965731Y-70555529D01*
X162965730Y-70555529D01*
X162829059Y-70612140D01*
X162683968Y-70641000D01*
X162536032Y-70641000D01*
X162390941Y-70612140D01*
X162254270Y-70555529D01*
X162254269Y-70555529D01*
X162254268Y-70555528D01*
X162131265Y-70473340D01*
X162026660Y-70368735D01*
X161944472Y-70245732D01*
X161887860Y-70109059D01*
X161859000Y-69963967D01*
X161859000Y-69816033D01*
X161862710Y-69797383D01*
X161887860Y-69670941D01*
X161944471Y-69534270D01*
X162026659Y-69411267D01*
X162026660Y-69411265D01*
X162131265Y-69306660D01*
X162254268Y-69224472D01*
X162390941Y-69167860D01*
X162536032Y-69139000D01*
X162683968Y-69139000D01*
X162829059Y-69167860D01*
G37*
G36*
X177030600Y-68076989D02*
G01*
X177063652Y-68087015D01*
X177094103Y-68103292D01*
X177120799Y-68125201D01*
X177142708Y-68151897D01*
X177158985Y-68182348D01*
X177169011Y-68215400D01*
X177173000Y-68255903D01*
X177173000Y-69692097D01*
X177169011Y-69732600D01*
X177158985Y-69765652D01*
X177142708Y-69796103D01*
X177120799Y-69822799D01*
X177094103Y-69844708D01*
X177063652Y-69860985D01*
X177030600Y-69871011D01*
X176990097Y-69875000D01*
X175253903Y-69875000D01*
X175213400Y-69871011D01*
X175180348Y-69860985D01*
X175149897Y-69844708D01*
X175123201Y-69822799D01*
X175101292Y-69796103D01*
X175085015Y-69765652D01*
X175074989Y-69732600D01*
X175071000Y-69692097D01*
X175071000Y-68255903D01*
X175074989Y-68215400D01*
X175085015Y-68182348D01*
X175101292Y-68151897D01*
X175123201Y-68125201D01*
X175149897Y-68103292D01*
X175180348Y-68087015D01*
X175213400Y-68076989D01*
X175253903Y-68073000D01*
X176990097Y-68073000D01*
X177030600Y-68076989D01*
G37*
G36*
X166101000Y-64491000D02*
G01*
X164199000Y-64491000D01*
X164199000Y-62589000D01*
X166101000Y-62589000D01*
X166101000Y-64491000D01*
G37*
G36*
X156576000Y-64491000D02*
G01*
X154674000Y-64491000D01*
X154674000Y-62589000D01*
X156576000Y-62589000D01*
X156576000Y-64491000D01*
G37*
G36*
X153362395Y-62625546D02*
G01*
X153535466Y-62697234D01*
X153535467Y-62697235D01*
X153691227Y-62801310D01*
X153823690Y-62933773D01*
X153823691Y-62933775D01*
X153927766Y-63089534D01*
X153999454Y-63262605D01*
X154036000Y-63446333D01*
X154036000Y-63633667D01*
X153999454Y-63817395D01*
X153927766Y-63990466D01*
X153927765Y-63990467D01*
X153823690Y-64146227D01*
X153691227Y-64278690D01*
X153612818Y-64331081D01*
X153535466Y-64382766D01*
X153362395Y-64454454D01*
X153178667Y-64491000D01*
X152991333Y-64491000D01*
X152807605Y-64454454D01*
X152634534Y-64382766D01*
X152557182Y-64331081D01*
X152478773Y-64278690D01*
X152346310Y-64146227D01*
X152242235Y-63990467D01*
X152242234Y-63990466D01*
X152170546Y-63817395D01*
X152134000Y-63633667D01*
X152134000Y-63446333D01*
X152170546Y-63262605D01*
X152242234Y-63089534D01*
X152346309Y-62933775D01*
X152346310Y-62933773D01*
X152478773Y-62801310D01*
X152634533Y-62697235D01*
X152634534Y-62697234D01*
X152807605Y-62625546D01*
X152991333Y-62589000D01*
X153178667Y-62589000D01*
X153362395Y-62625546D01*
G37*
G36*
X162887395Y-62625546D02*
G01*
X163060466Y-62697234D01*
X163060467Y-62697235D01*
X163216227Y-62801310D01*
X163348690Y-62933773D01*
X163348691Y-62933775D01*
X163452766Y-63089534D01*
X163524454Y-63262605D01*
X163561000Y-63446333D01*
X163561000Y-63633667D01*
X163524454Y-63817395D01*
X163452766Y-63990466D01*
X163452765Y-63990467D01*
X163348690Y-64146227D01*
X163216227Y-64278690D01*
X163137818Y-64331081D01*
X163060466Y-64382766D01*
X162887395Y-64454454D01*
X162703667Y-64491000D01*
X162516333Y-64491000D01*
X162332605Y-64454454D01*
X162159534Y-64382766D01*
X162082182Y-64331081D01*
X162003773Y-64278690D01*
X161871310Y-64146227D01*
X161767235Y-63990467D01*
X161767234Y-63990466D01*
X161695546Y-63817395D01*
X161659000Y-63633667D01*
X161659000Y-63446333D01*
X161695546Y-63262605D01*
X161767234Y-63089534D01*
X161871309Y-62933775D01*
X161871310Y-62933773D01*
X162003773Y-62801310D01*
X162159533Y-62697235D01*
X162159534Y-62697234D01*
X162332605Y-62625546D01*
X162516333Y-62589000D01*
X162703667Y-62589000D01*
X162887395Y-62625546D01*
G37*
M02*
