M48
; DRILL file {KiCad 5.1.5} date So 31 Mai 2020 22:52:06 CEST
; FORMAT={-:-/ absolute / metric / decimal}
; #@! TF.CreationDate,2020-05-31T22:52:06+02:00
; #@! TF.GenerationSoftware,Kicad,Pcbnew,5.1.5
; #@! TF.FileFunction,Plated,1,2,PTH
FMAT,2
METRIC
T1C0.700
T2C0.762
T3C0.800
T4C0.900
T5C0.950
T6C1.000
T7C1.100
%
G90
G05
T1
X148.005Y-69.89
X155.625Y-69.89
X162.61Y-69.89
X170.23Y-69.89
T2
X162.406Y-76.594
X162.406Y-79.134
X162.406Y-81.674
X162.406Y-84.214
X170.865Y-77.51
X170.865Y-120.69
X188.645Y-77.51
X188.645Y-120.69
T3
X171.042Y-124.346
X171.042Y-131.966
X131.418Y-96.486
X131.418Y-101.486
X185.85Y-110.2
X185.85Y-111.45
X185.85Y-113.95
X185.85Y-115.2
X171.85Y-110.2
X171.85Y-111.45
X171.85Y-113.95
X171.85Y-115.2
X123.89Y-91.6
X123.89Y-106.84
X126.43Y-91.6
X126.43Y-106.84
X128.97Y-91.6
X128.97Y-106.84
X131.51Y-91.6
X131.51Y-106.84
X134.05Y-91.6
X134.05Y-106.84
X136.59Y-91.6
X136.59Y-106.84
X139.13Y-91.6
X139.13Y-106.84
X141.67Y-91.6
X141.67Y-106.84
X144.21Y-91.6
X144.21Y-106.84
X146.75Y-91.6
X146.75Y-106.84
X149.29Y-91.6
X149.29Y-106.84
X151.83Y-91.6
X151.83Y-106.84
X154.37Y-91.6
X154.37Y-106.84
X156.91Y-91.6
X156.91Y-106.84
X159.45Y-91.6
X159.45Y-106.84
X151.738Y-96.486
X151.738Y-101.486
X131.495Y-112.745
X131.495Y-116.245
X178.85Y-110.2
X178.85Y-111.45
X178.85Y-113.95
X178.85Y-115.2
T4
X153.085Y-63.54
X155.625Y-63.54
X162.61Y-63.54
X165.15Y-63.54
T5
X142.925Y-113.785
X142.925Y-116.285
X142.925Y-118.785
T6
X177.9Y-125.87
X177.9Y-128.37
X166.85Y-116.0
X166.85Y-118.6
X166.85Y-121.2
X142.925Y-127.08
X142.925Y-129.58
X176.122Y-68.974
X176.122Y-71.474
T7
X156.31Y-112.154
X158.85Y-112.154
X161.39Y-112.154
X171.55Y-96.56
X171.55Y-99.1
X171.55Y-101.64
T0
M30
