G04 #@! TF.GenerationSoftware,KiCad,Pcbnew,5.1.5*
G04 #@! TF.CreationDate,2020-05-31T22:52:18+02:00*
G04 #@! TF.ProjectId,Levitator,4c657669-7461-4746-9f72-2e6b69636164,rev?*
G04 #@! TF.SameCoordinates,Original*
G04 #@! TF.FileFunction,Legend,Top*
G04 #@! TF.FilePolarity,Positive*
%FSLAX46Y46*%
G04 Gerber Fmt 4.6, Leading zero omitted, Abs format (unit mm)*
G04 Created by KiCad (PCBNEW 5.1.5) date 2020-05-31 22:52:18*
%MOMM*%
%LPD*%
G04 APERTURE LIST*
%ADD10C,0.150000*%
%ADD11C,0.120000*%
%ADD12C,0.010000*%
G04 APERTURE END LIST*
D10*
X177326190Y-91104761D02*
X178659523Y-91104761D01*
X177802380Y-93104761D01*
X179707142Y-91961904D02*
X179516666Y-91866666D01*
X179421428Y-91771428D01*
X179326190Y-91580952D01*
X179326190Y-91485714D01*
X179421428Y-91295238D01*
X179516666Y-91200000D01*
X179707142Y-91104761D01*
X180088095Y-91104761D01*
X180278571Y-91200000D01*
X180373809Y-91295238D01*
X180469047Y-91485714D01*
X180469047Y-91580952D01*
X180373809Y-91771428D01*
X180278571Y-91866666D01*
X180088095Y-91961904D01*
X179707142Y-91961904D01*
X179516666Y-92057142D01*
X179421428Y-92152380D01*
X179326190Y-92342857D01*
X179326190Y-92723809D01*
X179421428Y-92914285D01*
X179516666Y-93009523D01*
X179707142Y-93104761D01*
X180088095Y-93104761D01*
X180278571Y-93009523D01*
X180373809Y-92914285D01*
X180469047Y-92723809D01*
X180469047Y-92342857D01*
X180373809Y-92152380D01*
X180278571Y-92057142D01*
X180088095Y-91961904D01*
X181707142Y-91104761D02*
X181897619Y-91104761D01*
X182088095Y-91200000D01*
X182183333Y-91295238D01*
X182278571Y-91485714D01*
X182373809Y-91866666D01*
X182373809Y-92342857D01*
X182278571Y-92723809D01*
X182183333Y-92914285D01*
X182088095Y-93009523D01*
X181897619Y-93104761D01*
X181707142Y-93104761D01*
X181516666Y-93009523D01*
X181421428Y-92914285D01*
X181326190Y-92723809D01*
X181230952Y-92342857D01*
X181230952Y-91866666D01*
X181326190Y-91485714D01*
X181421428Y-91295238D01*
X181516666Y-91200000D01*
X181707142Y-91104761D01*
X184183333Y-91104761D02*
X183230952Y-91104761D01*
X183135714Y-92057142D01*
X183230952Y-91961904D01*
X183421428Y-91866666D01*
X183897619Y-91866666D01*
X184088095Y-91961904D01*
X184183333Y-92057142D01*
X184278571Y-92247619D01*
X184278571Y-92723809D01*
X184183333Y-92914285D01*
X184088095Y-93009523D01*
X183897619Y-93104761D01*
X183421428Y-93104761D01*
X183230952Y-93009523D01*
X183135714Y-92914285D01*
D11*
X168850000Y-92200000D02*
X168850000Y-117200000D01*
X192850000Y-92200000D02*
X168850000Y-92200000D01*
X192850000Y-117200000D02*
X192850000Y-92200000D01*
X168850000Y-117200000D02*
X192850000Y-117200000D01*
D10*
X170707142Y-86652380D02*
X171373809Y-86652380D01*
X170945238Y-87652380D01*
X171897619Y-87080952D02*
X171802380Y-87033333D01*
X171754761Y-86985714D01*
X171707142Y-86890476D01*
X171707142Y-86842857D01*
X171754761Y-86747619D01*
X171802380Y-86700000D01*
X171897619Y-86652380D01*
X172088095Y-86652380D01*
X172183333Y-86700000D01*
X172230952Y-86747619D01*
X172278571Y-86842857D01*
X172278571Y-86890476D01*
X172230952Y-86985714D01*
X172183333Y-87033333D01*
X172088095Y-87080952D01*
X171897619Y-87080952D01*
X171802380Y-87128571D01*
X171754761Y-87176190D01*
X171707142Y-87271428D01*
X171707142Y-87461904D01*
X171754761Y-87557142D01*
X171802380Y-87604761D01*
X171897619Y-87652380D01*
X172088095Y-87652380D01*
X172183333Y-87604761D01*
X172230952Y-87557142D01*
X172278571Y-87461904D01*
X172278571Y-87271428D01*
X172230952Y-87176190D01*
X172183333Y-87128571D01*
X172088095Y-87080952D01*
X172897619Y-86652380D02*
X172992857Y-86652380D01*
X173088095Y-86700000D01*
X173135714Y-86747619D01*
X173183333Y-86842857D01*
X173230952Y-87033333D01*
X173230952Y-87271428D01*
X173183333Y-87461904D01*
X173135714Y-87557142D01*
X173088095Y-87604761D01*
X172992857Y-87652380D01*
X172897619Y-87652380D01*
X172802380Y-87604761D01*
X172754761Y-87557142D01*
X172707142Y-87461904D01*
X172659523Y-87271428D01*
X172659523Y-87033333D01*
X172707142Y-86842857D01*
X172754761Y-86747619D01*
X172802380Y-86700000D01*
X172897619Y-86652380D01*
X174135714Y-86652380D02*
X173659523Y-86652380D01*
X173611904Y-87128571D01*
X173659523Y-87080952D01*
X173754761Y-87033333D01*
X173992857Y-87033333D01*
X174088095Y-87080952D01*
X174135714Y-87128571D01*
X174183333Y-87223809D01*
X174183333Y-87461904D01*
X174135714Y-87557142D01*
X174088095Y-87604761D01*
X173992857Y-87652380D01*
X173754761Y-87652380D01*
X173659523Y-87604761D01*
X173611904Y-87557142D01*
X175564285Y-86652380D02*
X175754761Y-86652380D01*
X175850000Y-86700000D01*
X175945238Y-86795238D01*
X175992857Y-86985714D01*
X175992857Y-87319047D01*
X175945238Y-87509523D01*
X175850000Y-87604761D01*
X175754761Y-87652380D01*
X175564285Y-87652380D01*
X175469047Y-87604761D01*
X175373809Y-87509523D01*
X175326190Y-87319047D01*
X175326190Y-86985714D01*
X175373809Y-86795238D01*
X175469047Y-86700000D01*
X175564285Y-86652380D01*
X176992857Y-87652380D02*
X176659523Y-87176190D01*
X176421428Y-87652380D02*
X176421428Y-86652380D01*
X176802380Y-86652380D01*
X176897619Y-86700000D01*
X176945238Y-86747619D01*
X176992857Y-86842857D01*
X176992857Y-86985714D01*
X176945238Y-87080952D01*
X176897619Y-87128571D01*
X176802380Y-87176190D01*
X176421428Y-87176190D01*
X178183333Y-87652380D02*
X178183333Y-86652380D01*
X178421428Y-86652380D01*
X178564285Y-86700000D01*
X178659523Y-86795238D01*
X178707142Y-86890476D01*
X178754761Y-87080952D01*
X178754761Y-87223809D01*
X178707142Y-87414285D01*
X178659523Y-87509523D01*
X178564285Y-87604761D01*
X178421428Y-87652380D01*
X178183333Y-87652380D01*
X179754761Y-87557142D02*
X179707142Y-87604761D01*
X179564285Y-87652380D01*
X179469047Y-87652380D01*
X179326190Y-87604761D01*
X179230952Y-87509523D01*
X179183333Y-87414285D01*
X179135714Y-87223809D01*
X179135714Y-87080952D01*
X179183333Y-86890476D01*
X179230952Y-86795238D01*
X179326190Y-86700000D01*
X179469047Y-86652380D01*
X179564285Y-86652380D01*
X179707142Y-86700000D01*
X179754761Y-86747619D01*
X180183333Y-87271428D02*
X180945238Y-87271428D01*
X181421428Y-87652380D02*
X181421428Y-86652380D01*
X181659523Y-86652380D01*
X181802380Y-86700000D01*
X181897619Y-86795238D01*
X181945238Y-86890476D01*
X181992857Y-87080952D01*
X181992857Y-87223809D01*
X181945238Y-87414285D01*
X181897619Y-87509523D01*
X181802380Y-87604761D01*
X181659523Y-87652380D01*
X181421428Y-87652380D01*
X182992857Y-87557142D02*
X182945238Y-87604761D01*
X182802380Y-87652380D01*
X182707142Y-87652380D01*
X182564285Y-87604761D01*
X182469047Y-87509523D01*
X182421428Y-87414285D01*
X182373809Y-87223809D01*
X182373809Y-87080952D01*
X182421428Y-86890476D01*
X182469047Y-86795238D01*
X182564285Y-86700000D01*
X182707142Y-86652380D01*
X182802380Y-86652380D01*
X182945238Y-86700000D01*
X182992857Y-86747619D01*
X184754761Y-87652380D02*
X184421428Y-87176190D01*
X184183333Y-87652380D02*
X184183333Y-86652380D01*
X184564285Y-86652380D01*
X184659523Y-86700000D01*
X184707142Y-86747619D01*
X184754761Y-86842857D01*
X184754761Y-86985714D01*
X184707142Y-87080952D01*
X184659523Y-87128571D01*
X184564285Y-87176190D01*
X184183333Y-87176190D01*
X185564285Y-87604761D02*
X185469047Y-87652380D01*
X185278571Y-87652380D01*
X185183333Y-87604761D01*
X185135714Y-87509523D01*
X185135714Y-87128571D01*
X185183333Y-87033333D01*
X185278571Y-86985714D01*
X185469047Y-86985714D01*
X185564285Y-87033333D01*
X185611904Y-87128571D01*
X185611904Y-87223809D01*
X185135714Y-87319047D01*
X186469047Y-86985714D02*
X186469047Y-87795238D01*
X186421428Y-87890476D01*
X186373809Y-87938095D01*
X186278571Y-87985714D01*
X186135714Y-87985714D01*
X186040476Y-87938095D01*
X186469047Y-87604761D02*
X186373809Y-87652380D01*
X186183333Y-87652380D01*
X186088095Y-87604761D01*
X186040476Y-87557142D01*
X185992857Y-87461904D01*
X185992857Y-87176190D01*
X186040476Y-87080952D01*
X186088095Y-87033333D01*
X186183333Y-86985714D01*
X186373809Y-86985714D01*
X186469047Y-87033333D01*
X187373809Y-86985714D02*
X187373809Y-87652380D01*
X186945238Y-86985714D02*
X186945238Y-87509523D01*
X186992857Y-87604761D01*
X187088095Y-87652380D01*
X187230952Y-87652380D01*
X187326190Y-87604761D01*
X187373809Y-87557142D01*
X187992857Y-87652380D02*
X187897619Y-87604761D01*
X187850000Y-87509523D01*
X187850000Y-86652380D01*
X188802380Y-87652380D02*
X188802380Y-87128571D01*
X188754761Y-87033333D01*
X188659523Y-86985714D01*
X188469047Y-86985714D01*
X188373809Y-87033333D01*
X188802380Y-87604761D02*
X188707142Y-87652380D01*
X188469047Y-87652380D01*
X188373809Y-87604761D01*
X188326190Y-87509523D01*
X188326190Y-87414285D01*
X188373809Y-87319047D01*
X188469047Y-87271428D01*
X188707142Y-87271428D01*
X188802380Y-87223809D01*
X189135714Y-86985714D02*
X189516666Y-86985714D01*
X189278571Y-86652380D02*
X189278571Y-87509523D01*
X189326190Y-87604761D01*
X189421428Y-87652380D01*
X189516666Y-87652380D01*
X189992857Y-87652380D02*
X189897619Y-87604761D01*
X189849999Y-87557142D01*
X189802380Y-87461904D01*
X189802380Y-87176190D01*
X189849999Y-87080952D01*
X189897619Y-87033333D01*
X189992857Y-86985714D01*
X190135714Y-86985714D01*
X190230952Y-87033333D01*
X190278571Y-87080952D01*
X190326190Y-87176190D01*
X190326190Y-87461904D01*
X190278571Y-87557142D01*
X190230952Y-87604761D01*
X190135714Y-87652380D01*
X189992857Y-87652380D01*
X190754761Y-87652380D02*
X190754761Y-86985714D01*
X190754761Y-87176190D02*
X190802380Y-87080952D01*
X190849999Y-87033333D01*
X190945238Y-86985714D01*
X191040476Y-86985714D01*
X166754761Y-104247619D02*
X166754761Y-105200000D01*
X164754761Y-105200000D01*
X166659523Y-102819047D02*
X166754761Y-103009523D01*
X166754761Y-103390476D01*
X166659523Y-103580952D01*
X166469047Y-103676190D01*
X165707142Y-103676190D01*
X165516666Y-103580952D01*
X165421428Y-103390476D01*
X165421428Y-103009523D01*
X165516666Y-102819047D01*
X165707142Y-102723809D01*
X165897619Y-102723809D01*
X166088095Y-103676190D01*
X165421428Y-102057142D02*
X166754761Y-101580952D01*
X165421428Y-101104761D01*
X166754761Y-100342857D02*
X165421428Y-100342857D01*
X164754761Y-100342857D02*
X164850000Y-100438095D01*
X164945238Y-100342857D01*
X164850000Y-100247619D01*
X164754761Y-100342857D01*
X164945238Y-100342857D01*
X165421428Y-99676190D02*
X165421428Y-98914285D01*
X164754761Y-99390476D02*
X166469047Y-99390476D01*
X166659523Y-99295238D01*
X166754761Y-99104761D01*
X166754761Y-98914285D01*
X166754761Y-97390476D02*
X165707142Y-97390476D01*
X165516666Y-97485714D01*
X165421428Y-97676190D01*
X165421428Y-98057142D01*
X165516666Y-98247619D01*
X166659523Y-97390476D02*
X166754761Y-97580952D01*
X166754761Y-98057142D01*
X166659523Y-98247619D01*
X166469047Y-98342857D01*
X166278571Y-98342857D01*
X166088095Y-98247619D01*
X165992857Y-98057142D01*
X165992857Y-97580952D01*
X165897619Y-97390476D01*
X165421428Y-96723809D02*
X165421428Y-95961904D01*
X164754761Y-96438095D02*
X166469047Y-96438095D01*
X166659523Y-96342857D01*
X166754761Y-96152380D01*
X166754761Y-95961904D01*
X166754761Y-95009523D02*
X166659523Y-95200000D01*
X166564285Y-95295238D01*
X166373809Y-95390476D01*
X165802380Y-95390476D01*
X165611904Y-95295238D01*
X165516666Y-95200000D01*
X165421428Y-95009523D01*
X165421428Y-94723809D01*
X165516666Y-94533333D01*
X165611904Y-94438095D01*
X165802380Y-94342857D01*
X166373809Y-94342857D01*
X166564285Y-94438095D01*
X166659523Y-94533333D01*
X166754761Y-94723809D01*
X166754761Y-95009523D01*
X166754761Y-93485714D02*
X165421428Y-93485714D01*
X165802380Y-93485714D02*
X165611904Y-93390476D01*
X165516666Y-93295238D01*
X165421428Y-93104761D01*
X165421428Y-92914285D01*
D12*
G36*
X165078823Y-137474533D02*
G01*
X165110202Y-137496776D01*
X165137911Y-137524485D01*
X165137911Y-137833920D01*
X165137838Y-137925799D01*
X165137495Y-137997840D01*
X165136692Y-138052780D01*
X165135241Y-138093360D01*
X165132952Y-138122317D01*
X165129636Y-138142391D01*
X165125105Y-138156321D01*
X165119169Y-138166845D01*
X165114514Y-138173100D01*
X165083783Y-138197673D01*
X165048496Y-138200341D01*
X165016245Y-138185271D01*
X165005588Y-138176374D01*
X164998464Y-138164557D01*
X164994167Y-138145526D01*
X164991991Y-138114992D01*
X164991228Y-138068662D01*
X164991155Y-138032871D01*
X164991155Y-137898045D01*
X164494444Y-137898045D01*
X164494444Y-138020700D01*
X164493931Y-138076787D01*
X164491876Y-138115333D01*
X164487508Y-138141361D01*
X164480056Y-138159897D01*
X164471047Y-138173100D01*
X164440144Y-138197604D01*
X164405196Y-138200506D01*
X164371738Y-138183089D01*
X164362604Y-138173959D01*
X164356152Y-138161855D01*
X164351897Y-138143001D01*
X164349352Y-138113620D01*
X164348029Y-138069937D01*
X164347443Y-138008175D01*
X164347375Y-137994000D01*
X164346891Y-137877631D01*
X164346641Y-137781727D01*
X164346723Y-137704177D01*
X164347231Y-137642869D01*
X164348262Y-137595690D01*
X164349913Y-137560530D01*
X164352279Y-137535276D01*
X164355457Y-137517817D01*
X164359544Y-137506041D01*
X164364634Y-137497835D01*
X164370266Y-137491645D01*
X164402128Y-137471844D01*
X164435357Y-137474533D01*
X164466735Y-137496776D01*
X164479433Y-137511126D01*
X164487526Y-137526978D01*
X164492042Y-137549554D01*
X164494006Y-137584078D01*
X164494444Y-137635776D01*
X164494444Y-137751289D01*
X164991155Y-137751289D01*
X164991155Y-137632756D01*
X164991662Y-137578148D01*
X164993698Y-137541275D01*
X164998035Y-137517307D01*
X165005447Y-137501415D01*
X165013733Y-137491645D01*
X165045594Y-137471844D01*
X165078823Y-137474533D01*
G37*
X165078823Y-137474533D02*
X165110202Y-137496776D01*
X165137911Y-137524485D01*
X165137911Y-137833920D01*
X165137838Y-137925799D01*
X165137495Y-137997840D01*
X165136692Y-138052780D01*
X165135241Y-138093360D01*
X165132952Y-138122317D01*
X165129636Y-138142391D01*
X165125105Y-138156321D01*
X165119169Y-138166845D01*
X165114514Y-138173100D01*
X165083783Y-138197673D01*
X165048496Y-138200341D01*
X165016245Y-138185271D01*
X165005588Y-138176374D01*
X164998464Y-138164557D01*
X164994167Y-138145526D01*
X164991991Y-138114992D01*
X164991228Y-138068662D01*
X164991155Y-138032871D01*
X164991155Y-137898045D01*
X164494444Y-137898045D01*
X164494444Y-138020700D01*
X164493931Y-138076787D01*
X164491876Y-138115333D01*
X164487508Y-138141361D01*
X164480056Y-138159897D01*
X164471047Y-138173100D01*
X164440144Y-138197604D01*
X164405196Y-138200506D01*
X164371738Y-138183089D01*
X164362604Y-138173959D01*
X164356152Y-138161855D01*
X164351897Y-138143001D01*
X164349352Y-138113620D01*
X164348029Y-138069937D01*
X164347443Y-138008175D01*
X164347375Y-137994000D01*
X164346891Y-137877631D01*
X164346641Y-137781727D01*
X164346723Y-137704177D01*
X164347231Y-137642869D01*
X164348262Y-137595690D01*
X164349913Y-137560530D01*
X164352279Y-137535276D01*
X164355457Y-137517817D01*
X164359544Y-137506041D01*
X164364634Y-137497835D01*
X164370266Y-137491645D01*
X164402128Y-137471844D01*
X164435357Y-137474533D01*
X164466735Y-137496776D01*
X164479433Y-137511126D01*
X164487526Y-137526978D01*
X164492042Y-137549554D01*
X164494006Y-137584078D01*
X164494444Y-137635776D01*
X164494444Y-137751289D01*
X164991155Y-137751289D01*
X164991155Y-137632756D01*
X164991662Y-137578148D01*
X164993698Y-137541275D01*
X164998035Y-137517307D01*
X165005447Y-137501415D01*
X165013733Y-137491645D01*
X165045594Y-137471844D01*
X165078823Y-137474533D01*
G36*
X163813065Y-137469163D02*
G01*
X163891772Y-137469542D01*
X163952863Y-137470333D01*
X163998817Y-137471670D01*
X164032114Y-137473683D01*
X164055236Y-137476506D01*
X164070662Y-137480269D01*
X164080871Y-137485105D01*
X164085813Y-137488822D01*
X164111457Y-137521358D01*
X164114559Y-137555138D01*
X164098711Y-137585826D01*
X164088348Y-137598089D01*
X164077196Y-137606450D01*
X164061035Y-137611657D01*
X164035642Y-137614457D01*
X163996798Y-137615596D01*
X163940280Y-137615821D01*
X163929180Y-137615822D01*
X163783244Y-137615822D01*
X163783244Y-137886756D01*
X163783148Y-137972154D01*
X163782711Y-138037864D01*
X163781712Y-138086774D01*
X163779928Y-138121773D01*
X163777137Y-138145749D01*
X163773117Y-138161593D01*
X163767645Y-138172191D01*
X163760666Y-138180267D01*
X163727734Y-138200112D01*
X163693354Y-138198548D01*
X163662176Y-138175906D01*
X163659886Y-138173100D01*
X163652429Y-138162492D01*
X163646747Y-138150081D01*
X163642601Y-138132850D01*
X163639750Y-138107784D01*
X163637954Y-138071867D01*
X163636972Y-138022083D01*
X163636564Y-137955417D01*
X163636489Y-137879589D01*
X163636489Y-137615822D01*
X163497127Y-137615822D01*
X163437322Y-137615418D01*
X163395918Y-137613840D01*
X163368748Y-137610547D01*
X163351646Y-137604992D01*
X163340443Y-137596631D01*
X163339083Y-137595178D01*
X163322725Y-137561939D01*
X163324172Y-137524362D01*
X163342978Y-137491645D01*
X163350250Y-137485298D01*
X163359627Y-137480266D01*
X163373609Y-137476396D01*
X163394696Y-137473537D01*
X163425389Y-137471535D01*
X163468189Y-137470239D01*
X163525595Y-137469498D01*
X163600110Y-137469158D01*
X163694233Y-137469068D01*
X163714260Y-137469067D01*
X163813065Y-137469163D01*
G37*
X163813065Y-137469163D02*
X163891772Y-137469542D01*
X163952863Y-137470333D01*
X163998817Y-137471670D01*
X164032114Y-137473683D01*
X164055236Y-137476506D01*
X164070662Y-137480269D01*
X164080871Y-137485105D01*
X164085813Y-137488822D01*
X164111457Y-137521358D01*
X164114559Y-137555138D01*
X164098711Y-137585826D01*
X164088348Y-137598089D01*
X164077196Y-137606450D01*
X164061035Y-137611657D01*
X164035642Y-137614457D01*
X163996798Y-137615596D01*
X163940280Y-137615821D01*
X163929180Y-137615822D01*
X163783244Y-137615822D01*
X163783244Y-137886756D01*
X163783148Y-137972154D01*
X163782711Y-138037864D01*
X163781712Y-138086774D01*
X163779928Y-138121773D01*
X163777137Y-138145749D01*
X163773117Y-138161593D01*
X163767645Y-138172191D01*
X163760666Y-138180267D01*
X163727734Y-138200112D01*
X163693354Y-138198548D01*
X163662176Y-138175906D01*
X163659886Y-138173100D01*
X163652429Y-138162492D01*
X163646747Y-138150081D01*
X163642601Y-138132850D01*
X163639750Y-138107784D01*
X163637954Y-138071867D01*
X163636972Y-138022083D01*
X163636564Y-137955417D01*
X163636489Y-137879589D01*
X163636489Y-137615822D01*
X163497127Y-137615822D01*
X163437322Y-137615418D01*
X163395918Y-137613840D01*
X163368748Y-137610547D01*
X163351646Y-137604992D01*
X163340443Y-137596631D01*
X163339083Y-137595178D01*
X163322725Y-137561939D01*
X163324172Y-137524362D01*
X163342978Y-137491645D01*
X163350250Y-137485298D01*
X163359627Y-137480266D01*
X163373609Y-137476396D01*
X163394696Y-137473537D01*
X163425389Y-137471535D01*
X163468189Y-137470239D01*
X163525595Y-137469498D01*
X163600110Y-137469158D01*
X163694233Y-137469068D01*
X163714260Y-137469067D01*
X163813065Y-137469163D01*
G36*
X163038614Y-137475877D02*
G01*
X163062327Y-137490647D01*
X163088978Y-137512227D01*
X163088978Y-137833773D01*
X163088893Y-137927830D01*
X163088529Y-138001932D01*
X163087724Y-138058704D01*
X163086313Y-138100768D01*
X163084133Y-138130748D01*
X163081021Y-138151267D01*
X163076814Y-138164949D01*
X163071348Y-138174416D01*
X163067472Y-138179082D01*
X163036034Y-138199575D01*
X163000233Y-138198739D01*
X162968873Y-138181264D01*
X162942222Y-138159684D01*
X162942222Y-137512227D01*
X162968873Y-137490647D01*
X162994594Y-137474949D01*
X163015600Y-137469067D01*
X163038614Y-137475877D01*
G37*
X163038614Y-137475877D02*
X163062327Y-137490647D01*
X163088978Y-137512227D01*
X163088978Y-137833773D01*
X163088893Y-137927830D01*
X163088529Y-138001932D01*
X163087724Y-138058704D01*
X163086313Y-138100768D01*
X163084133Y-138130748D01*
X163081021Y-138151267D01*
X163076814Y-138164949D01*
X163071348Y-138174416D01*
X163067472Y-138179082D01*
X163036034Y-138199575D01*
X163000233Y-138198739D01*
X162968873Y-138181264D01*
X162942222Y-138159684D01*
X162942222Y-137512227D01*
X162968873Y-137490647D01*
X162994594Y-137474949D01*
X163015600Y-137469067D01*
X163038614Y-137475877D01*
G36*
X162594665Y-137471034D02*
G01*
X162614255Y-137478035D01*
X162615010Y-137478377D01*
X162641613Y-137498678D01*
X162656270Y-137519561D01*
X162659138Y-137529352D01*
X162658996Y-137542361D01*
X162654961Y-137560895D01*
X162646146Y-137587257D01*
X162631669Y-137623752D01*
X162610645Y-137672687D01*
X162582188Y-137736365D01*
X162545415Y-137817093D01*
X162525175Y-137861216D01*
X162488625Y-137939985D01*
X162454315Y-138012423D01*
X162423552Y-138075880D01*
X162397648Y-138127708D01*
X162377910Y-138165259D01*
X162365650Y-138185884D01*
X162363224Y-138188733D01*
X162332183Y-138201302D01*
X162297121Y-138199619D01*
X162269000Y-138184332D01*
X162267854Y-138183089D01*
X162256668Y-138166154D01*
X162237904Y-138133170D01*
X162213875Y-138088380D01*
X162186897Y-138036032D01*
X162177201Y-138016742D01*
X162104014Y-137870150D01*
X162024240Y-138029393D01*
X161995767Y-138084415D01*
X161969350Y-138132132D01*
X161947148Y-138168893D01*
X161931319Y-138191044D01*
X161925954Y-138195741D01*
X161884257Y-138202102D01*
X161849849Y-138188733D01*
X161839728Y-138174446D01*
X161822214Y-138142692D01*
X161798735Y-138096597D01*
X161770720Y-138039285D01*
X161739599Y-137973880D01*
X161706799Y-137903507D01*
X161673750Y-137831291D01*
X161641881Y-137760355D01*
X161612619Y-137693825D01*
X161587395Y-137634826D01*
X161567636Y-137586481D01*
X161554772Y-137551915D01*
X161550231Y-137534253D01*
X161550277Y-137533613D01*
X161561326Y-137511388D01*
X161583410Y-137488753D01*
X161584710Y-137487768D01*
X161611853Y-137472425D01*
X161636958Y-137472574D01*
X161646368Y-137475466D01*
X161657834Y-137481718D01*
X161670010Y-137494014D01*
X161684357Y-137514908D01*
X161702336Y-137546949D01*
X161725407Y-137592688D01*
X161755030Y-137654677D01*
X161781745Y-137711898D01*
X161812480Y-137778226D01*
X161840021Y-137837874D01*
X161862938Y-137887725D01*
X161879798Y-137924664D01*
X161889173Y-137945573D01*
X161890540Y-137948845D01*
X161896689Y-137943497D01*
X161910822Y-137921109D01*
X161931057Y-137884946D01*
X161955515Y-137838277D01*
X161965248Y-137819022D01*
X161998217Y-137754004D01*
X162023643Y-137706654D01*
X162043612Y-137674219D01*
X162060210Y-137653946D01*
X162075524Y-137643082D01*
X162091640Y-137638875D01*
X162102143Y-137638400D01*
X162120670Y-137640042D01*
X162136904Y-137646831D01*
X162153035Y-137661566D01*
X162171251Y-137687044D01*
X162193739Y-137726061D01*
X162222689Y-137781414D01*
X162238662Y-137812903D01*
X162264570Y-137863087D01*
X162287167Y-137904704D01*
X162304458Y-137934242D01*
X162314450Y-137948189D01*
X162315809Y-137948770D01*
X162322261Y-137937793D01*
X162336708Y-137909290D01*
X162357703Y-137866244D01*
X162383797Y-137811638D01*
X162413546Y-137748454D01*
X162428180Y-137717071D01*
X162466250Y-137636078D01*
X162496905Y-137573756D01*
X162521737Y-137528071D01*
X162542337Y-137496989D01*
X162560298Y-137478478D01*
X162577210Y-137470504D01*
X162594665Y-137471034D01*
G37*
X162594665Y-137471034D02*
X162614255Y-137478035D01*
X162615010Y-137478377D01*
X162641613Y-137498678D01*
X162656270Y-137519561D01*
X162659138Y-137529352D01*
X162658996Y-137542361D01*
X162654961Y-137560895D01*
X162646146Y-137587257D01*
X162631669Y-137623752D01*
X162610645Y-137672687D01*
X162582188Y-137736365D01*
X162545415Y-137817093D01*
X162525175Y-137861216D01*
X162488625Y-137939985D01*
X162454315Y-138012423D01*
X162423552Y-138075880D01*
X162397648Y-138127708D01*
X162377910Y-138165259D01*
X162365650Y-138185884D01*
X162363224Y-138188733D01*
X162332183Y-138201302D01*
X162297121Y-138199619D01*
X162269000Y-138184332D01*
X162267854Y-138183089D01*
X162256668Y-138166154D01*
X162237904Y-138133170D01*
X162213875Y-138088380D01*
X162186897Y-138036032D01*
X162177201Y-138016742D01*
X162104014Y-137870150D01*
X162024240Y-138029393D01*
X161995767Y-138084415D01*
X161969350Y-138132132D01*
X161947148Y-138168893D01*
X161931319Y-138191044D01*
X161925954Y-138195741D01*
X161884257Y-138202102D01*
X161849849Y-138188733D01*
X161839728Y-138174446D01*
X161822214Y-138142692D01*
X161798735Y-138096597D01*
X161770720Y-138039285D01*
X161739599Y-137973880D01*
X161706799Y-137903507D01*
X161673750Y-137831291D01*
X161641881Y-137760355D01*
X161612619Y-137693825D01*
X161587395Y-137634826D01*
X161567636Y-137586481D01*
X161554772Y-137551915D01*
X161550231Y-137534253D01*
X161550277Y-137533613D01*
X161561326Y-137511388D01*
X161583410Y-137488753D01*
X161584710Y-137487768D01*
X161611853Y-137472425D01*
X161636958Y-137472574D01*
X161646368Y-137475466D01*
X161657834Y-137481718D01*
X161670010Y-137494014D01*
X161684357Y-137514908D01*
X161702336Y-137546949D01*
X161725407Y-137592688D01*
X161755030Y-137654677D01*
X161781745Y-137711898D01*
X161812480Y-137778226D01*
X161840021Y-137837874D01*
X161862938Y-137887725D01*
X161879798Y-137924664D01*
X161889173Y-137945573D01*
X161890540Y-137948845D01*
X161896689Y-137943497D01*
X161910822Y-137921109D01*
X161931057Y-137884946D01*
X161955515Y-137838277D01*
X161965248Y-137819022D01*
X161998217Y-137754004D01*
X162023643Y-137706654D01*
X162043612Y-137674219D01*
X162060210Y-137653946D01*
X162075524Y-137643082D01*
X162091640Y-137638875D01*
X162102143Y-137638400D01*
X162120670Y-137640042D01*
X162136904Y-137646831D01*
X162153035Y-137661566D01*
X162171251Y-137687044D01*
X162193739Y-137726061D01*
X162222689Y-137781414D01*
X162238662Y-137812903D01*
X162264570Y-137863087D01*
X162287167Y-137904704D01*
X162304458Y-137934242D01*
X162314450Y-137948189D01*
X162315809Y-137948770D01*
X162322261Y-137937793D01*
X162336708Y-137909290D01*
X162357703Y-137866244D01*
X162383797Y-137811638D01*
X162413546Y-137748454D01*
X162428180Y-137717071D01*
X162466250Y-137636078D01*
X162496905Y-137573756D01*
X162521737Y-137528071D01*
X162542337Y-137496989D01*
X162560298Y-137478478D01*
X162577210Y-137470504D01*
X162594665Y-137471034D01*
G36*
X159868309Y-137469275D02*
G01*
X159997288Y-137473636D01*
X160106991Y-137486861D01*
X160199226Y-137509741D01*
X160275802Y-137543070D01*
X160338527Y-137587638D01*
X160389212Y-137644236D01*
X160429663Y-137713658D01*
X160430459Y-137715351D01*
X160454601Y-137777483D01*
X160463203Y-137832509D01*
X160456231Y-137887887D01*
X160433654Y-137951073D01*
X160429372Y-137960689D01*
X160400172Y-138016966D01*
X160367356Y-138060451D01*
X160325002Y-138097417D01*
X160267190Y-138134135D01*
X160263831Y-138136052D01*
X160213504Y-138160227D01*
X160156621Y-138178282D01*
X160089527Y-138190839D01*
X160008565Y-138198522D01*
X159910082Y-138201953D01*
X159875286Y-138202251D01*
X159709594Y-138202845D01*
X159686197Y-138173100D01*
X159679257Y-138163319D01*
X159673842Y-138151897D01*
X159669765Y-138136095D01*
X159666837Y-138113175D01*
X159664867Y-138080396D01*
X159664225Y-138056089D01*
X159820844Y-138056089D01*
X159914726Y-138056089D01*
X159969664Y-138054483D01*
X160026060Y-138050255D01*
X160072345Y-138044292D01*
X160075139Y-138043790D01*
X160157348Y-138021736D01*
X160221114Y-137988600D01*
X160268452Y-137942847D01*
X160301382Y-137882939D01*
X160307108Y-137867061D01*
X160312721Y-137842333D01*
X160310291Y-137817902D01*
X160298467Y-137785400D01*
X160291340Y-137769434D01*
X160268000Y-137727006D01*
X160239880Y-137697240D01*
X160208940Y-137676511D01*
X160146966Y-137649537D01*
X160067651Y-137629998D01*
X159975253Y-137618746D01*
X159908333Y-137616270D01*
X159820844Y-137615822D01*
X159820844Y-138056089D01*
X159664225Y-138056089D01*
X159663668Y-138035021D01*
X159663050Y-137974311D01*
X159662825Y-137895526D01*
X159662800Y-137833920D01*
X159662800Y-137524485D01*
X159690509Y-137496776D01*
X159702806Y-137485544D01*
X159716103Y-137477853D01*
X159734672Y-137473040D01*
X159762786Y-137470446D01*
X159804717Y-137469410D01*
X159864737Y-137469270D01*
X159868309Y-137469275D01*
G37*
X159868309Y-137469275D02*
X159997288Y-137473636D01*
X160106991Y-137486861D01*
X160199226Y-137509741D01*
X160275802Y-137543070D01*
X160338527Y-137587638D01*
X160389212Y-137644236D01*
X160429663Y-137713658D01*
X160430459Y-137715351D01*
X160454601Y-137777483D01*
X160463203Y-137832509D01*
X160456231Y-137887887D01*
X160433654Y-137951073D01*
X160429372Y-137960689D01*
X160400172Y-138016966D01*
X160367356Y-138060451D01*
X160325002Y-138097417D01*
X160267190Y-138134135D01*
X160263831Y-138136052D01*
X160213504Y-138160227D01*
X160156621Y-138178282D01*
X160089527Y-138190839D01*
X160008565Y-138198522D01*
X159910082Y-138201953D01*
X159875286Y-138202251D01*
X159709594Y-138202845D01*
X159686197Y-138173100D01*
X159679257Y-138163319D01*
X159673842Y-138151897D01*
X159669765Y-138136095D01*
X159666837Y-138113175D01*
X159664867Y-138080396D01*
X159664225Y-138056089D01*
X159820844Y-138056089D01*
X159914726Y-138056089D01*
X159969664Y-138054483D01*
X160026060Y-138050255D01*
X160072345Y-138044292D01*
X160075139Y-138043790D01*
X160157348Y-138021736D01*
X160221114Y-137988600D01*
X160268452Y-137942847D01*
X160301382Y-137882939D01*
X160307108Y-137867061D01*
X160312721Y-137842333D01*
X160310291Y-137817902D01*
X160298467Y-137785400D01*
X160291340Y-137769434D01*
X160268000Y-137727006D01*
X160239880Y-137697240D01*
X160208940Y-137676511D01*
X160146966Y-137649537D01*
X160067651Y-137629998D01*
X159975253Y-137618746D01*
X159908333Y-137616270D01*
X159820844Y-137615822D01*
X159820844Y-138056089D01*
X159664225Y-138056089D01*
X159663668Y-138035021D01*
X159663050Y-137974311D01*
X159662825Y-137895526D01*
X159662800Y-137833920D01*
X159662800Y-137524485D01*
X159690509Y-137496776D01*
X159702806Y-137485544D01*
X159716103Y-137477853D01*
X159734672Y-137473040D01*
X159762786Y-137470446D01*
X159804717Y-137469410D01*
X159864737Y-137469270D01*
X159868309Y-137469275D01*
G36*
X159080343Y-137469260D02*
G01*
X159156701Y-137470174D01*
X159215217Y-137472311D01*
X159258255Y-137476175D01*
X159288183Y-137482267D01*
X159307368Y-137491090D01*
X159318176Y-137503146D01*
X159322973Y-137518939D01*
X159324127Y-137538970D01*
X159324133Y-137541335D01*
X159323131Y-137563992D01*
X159318396Y-137581503D01*
X159307333Y-137594574D01*
X159287348Y-137603913D01*
X159255846Y-137610227D01*
X159210232Y-137614222D01*
X159147913Y-137616606D01*
X159066293Y-137618086D01*
X159041277Y-137618414D01*
X158799200Y-137621467D01*
X158795814Y-137686378D01*
X158792429Y-137751289D01*
X158960576Y-137751289D01*
X159026266Y-137751531D01*
X159073172Y-137752556D01*
X159105083Y-137754811D01*
X159125791Y-137758742D01*
X159139084Y-137764798D01*
X159148755Y-137773424D01*
X159148817Y-137773493D01*
X159166356Y-137807112D01*
X159165722Y-137843448D01*
X159147314Y-137874423D01*
X159143671Y-137877607D01*
X159130741Y-137885812D01*
X159113024Y-137891521D01*
X159086570Y-137895162D01*
X159047432Y-137897167D01*
X158991662Y-137897964D01*
X158955994Y-137898045D01*
X158793555Y-137898045D01*
X158793555Y-138056089D01*
X159040161Y-138056089D01*
X159121580Y-138056231D01*
X159183410Y-138056814D01*
X159228637Y-138058068D01*
X159260248Y-138060227D01*
X159281231Y-138063523D01*
X159294573Y-138068189D01*
X159303261Y-138074457D01*
X159305450Y-138076733D01*
X159321614Y-138108280D01*
X159322797Y-138144168D01*
X159309536Y-138175285D01*
X159299043Y-138185271D01*
X159288129Y-138190769D01*
X159271217Y-138195022D01*
X159245633Y-138198180D01*
X159208701Y-138200392D01*
X159157746Y-138201806D01*
X159090094Y-138202572D01*
X159003069Y-138202838D01*
X158983394Y-138202845D01*
X158894911Y-138202787D01*
X158826227Y-138202467D01*
X158774564Y-138201667D01*
X158737145Y-138200167D01*
X158711190Y-138197749D01*
X158693922Y-138194194D01*
X158682562Y-138189282D01*
X158674332Y-138182795D01*
X158669817Y-138178138D01*
X158663021Y-138169889D01*
X158657712Y-138159669D01*
X158653706Y-138144800D01*
X158650821Y-138122602D01*
X158648874Y-138090393D01*
X158647681Y-138045496D01*
X158647061Y-137985228D01*
X158646829Y-137906911D01*
X158646800Y-137840994D01*
X158646871Y-137748628D01*
X158647208Y-137676117D01*
X158647998Y-137620737D01*
X158649426Y-137579765D01*
X158651679Y-137550478D01*
X158654943Y-137530153D01*
X158659404Y-137516066D01*
X158665248Y-137505495D01*
X158670197Y-137498811D01*
X158693594Y-137469067D01*
X158983774Y-137469067D01*
X159080343Y-137469260D01*
G37*
X159080343Y-137469260D02*
X159156701Y-137470174D01*
X159215217Y-137472311D01*
X159258255Y-137476175D01*
X159288183Y-137482267D01*
X159307368Y-137491090D01*
X159318176Y-137503146D01*
X159322973Y-137518939D01*
X159324127Y-137538970D01*
X159324133Y-137541335D01*
X159323131Y-137563992D01*
X159318396Y-137581503D01*
X159307333Y-137594574D01*
X159287348Y-137603913D01*
X159255846Y-137610227D01*
X159210232Y-137614222D01*
X159147913Y-137616606D01*
X159066293Y-137618086D01*
X159041277Y-137618414D01*
X158799200Y-137621467D01*
X158795814Y-137686378D01*
X158792429Y-137751289D01*
X158960576Y-137751289D01*
X159026266Y-137751531D01*
X159073172Y-137752556D01*
X159105083Y-137754811D01*
X159125791Y-137758742D01*
X159139084Y-137764798D01*
X159148755Y-137773424D01*
X159148817Y-137773493D01*
X159166356Y-137807112D01*
X159165722Y-137843448D01*
X159147314Y-137874423D01*
X159143671Y-137877607D01*
X159130741Y-137885812D01*
X159113024Y-137891521D01*
X159086570Y-137895162D01*
X159047432Y-137897167D01*
X158991662Y-137897964D01*
X158955994Y-137898045D01*
X158793555Y-137898045D01*
X158793555Y-138056089D01*
X159040161Y-138056089D01*
X159121580Y-138056231D01*
X159183410Y-138056814D01*
X159228637Y-138058068D01*
X159260248Y-138060227D01*
X159281231Y-138063523D01*
X159294573Y-138068189D01*
X159303261Y-138074457D01*
X159305450Y-138076733D01*
X159321614Y-138108280D01*
X159322797Y-138144168D01*
X159309536Y-138175285D01*
X159299043Y-138185271D01*
X159288129Y-138190769D01*
X159271217Y-138195022D01*
X159245633Y-138198180D01*
X159208701Y-138200392D01*
X159157746Y-138201806D01*
X159090094Y-138202572D01*
X159003069Y-138202838D01*
X158983394Y-138202845D01*
X158894911Y-138202787D01*
X158826227Y-138202467D01*
X158774564Y-138201667D01*
X158737145Y-138200167D01*
X158711190Y-138197749D01*
X158693922Y-138194194D01*
X158682562Y-138189282D01*
X158674332Y-138182795D01*
X158669817Y-138178138D01*
X158663021Y-138169889D01*
X158657712Y-138159669D01*
X158653706Y-138144800D01*
X158650821Y-138122602D01*
X158648874Y-138090393D01*
X158647681Y-138045496D01*
X158647061Y-137985228D01*
X158646829Y-137906911D01*
X158646800Y-137840994D01*
X158646871Y-137748628D01*
X158647208Y-137676117D01*
X158647998Y-137620737D01*
X158649426Y-137579765D01*
X158651679Y-137550478D01*
X158654943Y-137530153D01*
X158659404Y-137516066D01*
X158665248Y-137505495D01*
X158670197Y-137498811D01*
X158693594Y-137469067D01*
X158983774Y-137469067D01*
X159080343Y-137469260D01*
G36*
X157549886Y-137473448D02*
G01*
X157573452Y-137487273D01*
X157604265Y-137509881D01*
X157643922Y-137542338D01*
X157694020Y-137585708D01*
X157756157Y-137641058D01*
X157831928Y-137709451D01*
X157918666Y-137788084D01*
X158099289Y-137951878D01*
X158104933Y-137732029D01*
X158106971Y-137656351D01*
X158108937Y-137599994D01*
X158111266Y-137559706D01*
X158114394Y-137532235D01*
X158118755Y-137514329D01*
X158124784Y-137502737D01*
X158132916Y-137494208D01*
X158137228Y-137490623D01*
X158171759Y-137471670D01*
X158204617Y-137474441D01*
X158230682Y-137490633D01*
X158257333Y-137512199D01*
X158260648Y-137827151D01*
X158261565Y-137919779D01*
X158262032Y-137992544D01*
X158261887Y-138048161D01*
X158260968Y-138089342D01*
X158259113Y-138118803D01*
X158256161Y-138139255D01*
X158251950Y-138153413D01*
X158246318Y-138163991D01*
X158240073Y-138172474D01*
X158226561Y-138188207D01*
X158213117Y-138198636D01*
X158197876Y-138202639D01*
X158178974Y-138199094D01*
X158154545Y-138186879D01*
X158122727Y-138164871D01*
X158081652Y-138131949D01*
X158029458Y-138086991D01*
X157964278Y-138028875D01*
X157890444Y-137962099D01*
X157625155Y-137721458D01*
X157619511Y-137940589D01*
X157617469Y-138016128D01*
X157615498Y-138072354D01*
X157613161Y-138112524D01*
X157610019Y-138139896D01*
X157605636Y-138157728D01*
X157599576Y-138169279D01*
X157591400Y-138177807D01*
X157587216Y-138181282D01*
X157550235Y-138200372D01*
X157515292Y-138197493D01*
X157484864Y-138173100D01*
X157477903Y-138163286D01*
X157472477Y-138151826D01*
X157468397Y-138135968D01*
X157465471Y-138112963D01*
X157463508Y-138080062D01*
X157462317Y-138034516D01*
X157461708Y-137973573D01*
X157461489Y-137894486D01*
X157461466Y-137835956D01*
X157461540Y-137744407D01*
X157461887Y-137672687D01*
X157462699Y-137618045D01*
X157464167Y-137577732D01*
X157466481Y-137548998D01*
X157469833Y-137529093D01*
X157474412Y-137515268D01*
X157480411Y-137504772D01*
X157484864Y-137498811D01*
X157496150Y-137484691D01*
X157506699Y-137474029D01*
X157518107Y-137467892D01*
X157531970Y-137467343D01*
X157549886Y-137473448D01*
G37*
X157549886Y-137473448D02*
X157573452Y-137487273D01*
X157604265Y-137509881D01*
X157643922Y-137542338D01*
X157694020Y-137585708D01*
X157756157Y-137641058D01*
X157831928Y-137709451D01*
X157918666Y-137788084D01*
X158099289Y-137951878D01*
X158104933Y-137732029D01*
X158106971Y-137656351D01*
X158108937Y-137599994D01*
X158111266Y-137559706D01*
X158114394Y-137532235D01*
X158118755Y-137514329D01*
X158124784Y-137502737D01*
X158132916Y-137494208D01*
X158137228Y-137490623D01*
X158171759Y-137471670D01*
X158204617Y-137474441D01*
X158230682Y-137490633D01*
X158257333Y-137512199D01*
X158260648Y-137827151D01*
X158261565Y-137919779D01*
X158262032Y-137992544D01*
X158261887Y-138048161D01*
X158260968Y-138089342D01*
X158259113Y-138118803D01*
X158256161Y-138139255D01*
X158251950Y-138153413D01*
X158246318Y-138163991D01*
X158240073Y-138172474D01*
X158226561Y-138188207D01*
X158213117Y-138198636D01*
X158197876Y-138202639D01*
X158178974Y-138199094D01*
X158154545Y-138186879D01*
X158122727Y-138164871D01*
X158081652Y-138131949D01*
X158029458Y-138086991D01*
X157964278Y-138028875D01*
X157890444Y-137962099D01*
X157625155Y-137721458D01*
X157619511Y-137940589D01*
X157617469Y-138016128D01*
X157615498Y-138072354D01*
X157613161Y-138112524D01*
X157610019Y-138139896D01*
X157605636Y-138157728D01*
X157599576Y-138169279D01*
X157591400Y-138177807D01*
X157587216Y-138181282D01*
X157550235Y-138200372D01*
X157515292Y-138197493D01*
X157484864Y-138173100D01*
X157477903Y-138163286D01*
X157472477Y-138151826D01*
X157468397Y-138135968D01*
X157465471Y-138112963D01*
X157463508Y-138080062D01*
X157462317Y-138034516D01*
X157461708Y-137973573D01*
X157461489Y-137894486D01*
X157461466Y-137835956D01*
X157461540Y-137744407D01*
X157461887Y-137672687D01*
X157462699Y-137618045D01*
X157464167Y-137577732D01*
X157466481Y-137548998D01*
X157469833Y-137529093D01*
X157474412Y-137515268D01*
X157480411Y-137504772D01*
X157484864Y-137498811D01*
X157496150Y-137484691D01*
X157506699Y-137474029D01*
X157518107Y-137467892D01*
X157531970Y-137467343D01*
X157549886Y-137473448D01*
G36*
X156899919Y-137474599D02*
G01*
X156968435Y-137486095D01*
X157021057Y-137503967D01*
X157055292Y-137527499D01*
X157064621Y-137540924D01*
X157074107Y-137572148D01*
X157067723Y-137600395D01*
X157047570Y-137627182D01*
X157016255Y-137639713D01*
X156970817Y-137638696D01*
X156935674Y-137631906D01*
X156857581Y-137618971D01*
X156777774Y-137617742D01*
X156688445Y-137628241D01*
X156663771Y-137632690D01*
X156580709Y-137656108D01*
X156515727Y-137690945D01*
X156469539Y-137736604D01*
X156442855Y-137792494D01*
X156437337Y-137821388D01*
X156440949Y-137880012D01*
X156464271Y-137931879D01*
X156505176Y-137975978D01*
X156561541Y-138011299D01*
X156631240Y-138036829D01*
X156712148Y-138051559D01*
X156802140Y-138054478D01*
X156899090Y-138044575D01*
X156904564Y-138043641D01*
X156943125Y-138036459D01*
X156964506Y-138029521D01*
X156973773Y-138019227D01*
X156975994Y-138001976D01*
X156976044Y-137992841D01*
X156976044Y-137954489D01*
X156907569Y-137954489D01*
X156847100Y-137950347D01*
X156805835Y-137937147D01*
X156781825Y-137913730D01*
X156773123Y-137878936D01*
X156773017Y-137874394D01*
X156778108Y-137844654D01*
X156795567Y-137823419D01*
X156828061Y-137809366D01*
X156878257Y-137801173D01*
X156926877Y-137798161D01*
X156997544Y-137796433D01*
X157048802Y-137799070D01*
X157083761Y-137808800D01*
X157105530Y-137828353D01*
X157117220Y-137860456D01*
X157121940Y-137907838D01*
X157122800Y-137970071D01*
X157121391Y-138039535D01*
X157117152Y-138086786D01*
X157110064Y-138112012D01*
X157108689Y-138113988D01*
X157069772Y-138145508D01*
X157012714Y-138170470D01*
X156941131Y-138188340D01*
X156858642Y-138198586D01*
X156768861Y-138200673D01*
X156675408Y-138194068D01*
X156620444Y-138185956D01*
X156534234Y-138161554D01*
X156454108Y-138121662D01*
X156387023Y-138069887D01*
X156376827Y-138059539D01*
X156343698Y-138016035D01*
X156313806Y-137962118D01*
X156290643Y-137905592D01*
X156277702Y-137854259D01*
X156276142Y-137834544D01*
X156282782Y-137793419D01*
X156300432Y-137742252D01*
X156325703Y-137688394D01*
X156355211Y-137639195D01*
X156381281Y-137606334D01*
X156442235Y-137557452D01*
X156521031Y-137518545D01*
X156614843Y-137490494D01*
X156720850Y-137474179D01*
X156818000Y-137470192D01*
X156899919Y-137474599D01*
G37*
X156899919Y-137474599D02*
X156968435Y-137486095D01*
X157021057Y-137503967D01*
X157055292Y-137527499D01*
X157064621Y-137540924D01*
X157074107Y-137572148D01*
X157067723Y-137600395D01*
X157047570Y-137627182D01*
X157016255Y-137639713D01*
X156970817Y-137638696D01*
X156935674Y-137631906D01*
X156857581Y-137618971D01*
X156777774Y-137617742D01*
X156688445Y-137628241D01*
X156663771Y-137632690D01*
X156580709Y-137656108D01*
X156515727Y-137690945D01*
X156469539Y-137736604D01*
X156442855Y-137792494D01*
X156437337Y-137821388D01*
X156440949Y-137880012D01*
X156464271Y-137931879D01*
X156505176Y-137975978D01*
X156561541Y-138011299D01*
X156631240Y-138036829D01*
X156712148Y-138051559D01*
X156802140Y-138054478D01*
X156899090Y-138044575D01*
X156904564Y-138043641D01*
X156943125Y-138036459D01*
X156964506Y-138029521D01*
X156973773Y-138019227D01*
X156975994Y-138001976D01*
X156976044Y-137992841D01*
X156976044Y-137954489D01*
X156907569Y-137954489D01*
X156847100Y-137950347D01*
X156805835Y-137937147D01*
X156781825Y-137913730D01*
X156773123Y-137878936D01*
X156773017Y-137874394D01*
X156778108Y-137844654D01*
X156795567Y-137823419D01*
X156828061Y-137809366D01*
X156878257Y-137801173D01*
X156926877Y-137798161D01*
X156997544Y-137796433D01*
X157048802Y-137799070D01*
X157083761Y-137808800D01*
X157105530Y-137828353D01*
X157117220Y-137860456D01*
X157121940Y-137907838D01*
X157122800Y-137970071D01*
X157121391Y-138039535D01*
X157117152Y-138086786D01*
X157110064Y-138112012D01*
X157108689Y-138113988D01*
X157069772Y-138145508D01*
X157012714Y-138170470D01*
X156941131Y-138188340D01*
X156858642Y-138198586D01*
X156768861Y-138200673D01*
X156675408Y-138194068D01*
X156620444Y-138185956D01*
X156534234Y-138161554D01*
X156454108Y-138121662D01*
X156387023Y-138069887D01*
X156376827Y-138059539D01*
X156343698Y-138016035D01*
X156313806Y-137962118D01*
X156290643Y-137905592D01*
X156277702Y-137854259D01*
X156276142Y-137834544D01*
X156282782Y-137793419D01*
X156300432Y-137742252D01*
X156325703Y-137688394D01*
X156355211Y-137639195D01*
X156381281Y-137606334D01*
X156442235Y-137557452D01*
X156521031Y-137518545D01*
X156614843Y-137490494D01*
X156720850Y-137474179D01*
X156818000Y-137470192D01*
X156899919Y-137474599D01*
G36*
X155926178Y-137491645D02*
G01*
X155932758Y-137499218D01*
X155937921Y-137508987D01*
X155941836Y-137523571D01*
X155944676Y-137545585D01*
X155946613Y-137577648D01*
X155947817Y-137622375D01*
X155948461Y-137682385D01*
X155948716Y-137760294D01*
X155948755Y-137835956D01*
X155948686Y-137929802D01*
X155948362Y-138003689D01*
X155947614Y-138060232D01*
X155946268Y-138102049D01*
X155944154Y-138131757D01*
X155941100Y-138151973D01*
X155936934Y-138165314D01*
X155931484Y-138174398D01*
X155926178Y-138180267D01*
X155893174Y-138199947D01*
X155858009Y-138198181D01*
X155826545Y-138176717D01*
X155819316Y-138168337D01*
X155813666Y-138158614D01*
X155809401Y-138144861D01*
X155806327Y-138124389D01*
X155804248Y-138094512D01*
X155802970Y-138052541D01*
X155802299Y-137995789D01*
X155802041Y-137921567D01*
X155802000Y-137837537D01*
X155802000Y-137524485D01*
X155829709Y-137496776D01*
X155863863Y-137473463D01*
X155896994Y-137472623D01*
X155926178Y-137491645D01*
G37*
X155926178Y-137491645D02*
X155932758Y-137499218D01*
X155937921Y-137508987D01*
X155941836Y-137523571D01*
X155944676Y-137545585D01*
X155946613Y-137577648D01*
X155947817Y-137622375D01*
X155948461Y-137682385D01*
X155948716Y-137760294D01*
X155948755Y-137835956D01*
X155948686Y-137929802D01*
X155948362Y-138003689D01*
X155947614Y-138060232D01*
X155946268Y-138102049D01*
X155944154Y-138131757D01*
X155941100Y-138151973D01*
X155936934Y-138165314D01*
X155931484Y-138174398D01*
X155926178Y-138180267D01*
X155893174Y-138199947D01*
X155858009Y-138198181D01*
X155826545Y-138176717D01*
X155819316Y-138168337D01*
X155813666Y-138158614D01*
X155809401Y-138144861D01*
X155806327Y-138124389D01*
X155804248Y-138094512D01*
X155802970Y-138052541D01*
X155802299Y-137995789D01*
X155802041Y-137921567D01*
X155802000Y-137837537D01*
X155802000Y-137524485D01*
X155829709Y-137496776D01*
X155863863Y-137473463D01*
X155896994Y-137472623D01*
X155926178Y-137491645D01*
G36*
X155158297Y-137470351D02*
G01*
X155233112Y-137475581D01*
X155302694Y-137483750D01*
X155362998Y-137494550D01*
X155409980Y-137507673D01*
X155439594Y-137522813D01*
X155444140Y-137527269D01*
X155459946Y-137561850D01*
X155455153Y-137597351D01*
X155430636Y-137627725D01*
X155429466Y-137628596D01*
X155415046Y-137637954D01*
X155399992Y-137642876D01*
X155378995Y-137643473D01*
X155346743Y-137639861D01*
X155297927Y-137632154D01*
X155294000Y-137631505D01*
X155221261Y-137622569D01*
X155142783Y-137618161D01*
X155064073Y-137618119D01*
X154990639Y-137622279D01*
X154927989Y-137630479D01*
X154881630Y-137642557D01*
X154878584Y-137643771D01*
X154844952Y-137662615D01*
X154833136Y-137681685D01*
X154842386Y-137700439D01*
X154871953Y-137718337D01*
X154921089Y-137734837D01*
X154989043Y-137749396D01*
X155034355Y-137756406D01*
X155128544Y-137769889D01*
X155203456Y-137782214D01*
X155262283Y-137794449D01*
X155308215Y-137807661D01*
X155344445Y-137822917D01*
X155374162Y-137841285D01*
X155400558Y-137863831D01*
X155421770Y-137885971D01*
X155446935Y-137916819D01*
X155459319Y-137943345D01*
X155463192Y-137976026D01*
X155463333Y-137987995D01*
X155460424Y-138027712D01*
X155448798Y-138057259D01*
X155428677Y-138083486D01*
X155387784Y-138123576D01*
X155342183Y-138154149D01*
X155288487Y-138176203D01*
X155223308Y-138190735D01*
X155143256Y-138198741D01*
X155044943Y-138201218D01*
X155028711Y-138201177D01*
X154963151Y-138199818D01*
X154898134Y-138196730D01*
X154840748Y-138192356D01*
X154798078Y-138187140D01*
X154794628Y-138186541D01*
X154752204Y-138176491D01*
X154716220Y-138163796D01*
X154695850Y-138152190D01*
X154676893Y-138121572D01*
X154675573Y-138085918D01*
X154691915Y-138054144D01*
X154695571Y-138050551D01*
X154710685Y-138039876D01*
X154729585Y-138035276D01*
X154758838Y-138036059D01*
X154794349Y-138040127D01*
X154834030Y-138043762D01*
X154889655Y-138046828D01*
X154954594Y-138049053D01*
X155022215Y-138050164D01*
X155040000Y-138050237D01*
X155107872Y-138049964D01*
X155157546Y-138048646D01*
X155193390Y-138045827D01*
X155219776Y-138041050D01*
X155241074Y-138033857D01*
X155253874Y-138027867D01*
X155282000Y-138011233D01*
X155299932Y-137996168D01*
X155302553Y-137991897D01*
X155297024Y-137974263D01*
X155270740Y-137957192D01*
X155225522Y-137941458D01*
X155163192Y-137927838D01*
X155144829Y-137924804D01*
X155048910Y-137909738D01*
X154972359Y-137897146D01*
X154912220Y-137886111D01*
X154865540Y-137875720D01*
X154829363Y-137865056D01*
X154800735Y-137853205D01*
X154776702Y-137839251D01*
X154754308Y-137822281D01*
X154730598Y-137801378D01*
X154722620Y-137794049D01*
X154694647Y-137766699D01*
X154679840Y-137745029D01*
X154674048Y-137720232D01*
X154673111Y-137688983D01*
X154683425Y-137627705D01*
X154714248Y-137575640D01*
X154765405Y-137532958D01*
X154836717Y-137499825D01*
X154887600Y-137484964D01*
X154942900Y-137475366D01*
X155009147Y-137469936D01*
X155082294Y-137468367D01*
X155158297Y-137470351D01*
G37*
X155158297Y-137470351D02*
X155233112Y-137475581D01*
X155302694Y-137483750D01*
X155362998Y-137494550D01*
X155409980Y-137507673D01*
X155439594Y-137522813D01*
X155444140Y-137527269D01*
X155459946Y-137561850D01*
X155455153Y-137597351D01*
X155430636Y-137627725D01*
X155429466Y-137628596D01*
X155415046Y-137637954D01*
X155399992Y-137642876D01*
X155378995Y-137643473D01*
X155346743Y-137639861D01*
X155297927Y-137632154D01*
X155294000Y-137631505D01*
X155221261Y-137622569D01*
X155142783Y-137618161D01*
X155064073Y-137618119D01*
X154990639Y-137622279D01*
X154927989Y-137630479D01*
X154881630Y-137642557D01*
X154878584Y-137643771D01*
X154844952Y-137662615D01*
X154833136Y-137681685D01*
X154842386Y-137700439D01*
X154871953Y-137718337D01*
X154921089Y-137734837D01*
X154989043Y-137749396D01*
X155034355Y-137756406D01*
X155128544Y-137769889D01*
X155203456Y-137782214D01*
X155262283Y-137794449D01*
X155308215Y-137807661D01*
X155344445Y-137822917D01*
X155374162Y-137841285D01*
X155400558Y-137863831D01*
X155421770Y-137885971D01*
X155446935Y-137916819D01*
X155459319Y-137943345D01*
X155463192Y-137976026D01*
X155463333Y-137987995D01*
X155460424Y-138027712D01*
X155448798Y-138057259D01*
X155428677Y-138083486D01*
X155387784Y-138123576D01*
X155342183Y-138154149D01*
X155288487Y-138176203D01*
X155223308Y-138190735D01*
X155143256Y-138198741D01*
X155044943Y-138201218D01*
X155028711Y-138201177D01*
X154963151Y-138199818D01*
X154898134Y-138196730D01*
X154840748Y-138192356D01*
X154798078Y-138187140D01*
X154794628Y-138186541D01*
X154752204Y-138176491D01*
X154716220Y-138163796D01*
X154695850Y-138152190D01*
X154676893Y-138121572D01*
X154675573Y-138085918D01*
X154691915Y-138054144D01*
X154695571Y-138050551D01*
X154710685Y-138039876D01*
X154729585Y-138035276D01*
X154758838Y-138036059D01*
X154794349Y-138040127D01*
X154834030Y-138043762D01*
X154889655Y-138046828D01*
X154954594Y-138049053D01*
X155022215Y-138050164D01*
X155040000Y-138050237D01*
X155107872Y-138049964D01*
X155157546Y-138048646D01*
X155193390Y-138045827D01*
X155219776Y-138041050D01*
X155241074Y-138033857D01*
X155253874Y-138027867D01*
X155282000Y-138011233D01*
X155299932Y-137996168D01*
X155302553Y-137991897D01*
X155297024Y-137974263D01*
X155270740Y-137957192D01*
X155225522Y-137941458D01*
X155163192Y-137927838D01*
X155144829Y-137924804D01*
X155048910Y-137909738D01*
X154972359Y-137897146D01*
X154912220Y-137886111D01*
X154865540Y-137875720D01*
X154829363Y-137865056D01*
X154800735Y-137853205D01*
X154776702Y-137839251D01*
X154754308Y-137822281D01*
X154730598Y-137801378D01*
X154722620Y-137794049D01*
X154694647Y-137766699D01*
X154679840Y-137745029D01*
X154674048Y-137720232D01*
X154673111Y-137688983D01*
X154683425Y-137627705D01*
X154714248Y-137575640D01*
X154765405Y-137532958D01*
X154836717Y-137499825D01*
X154887600Y-137484964D01*
X154942900Y-137475366D01*
X155009147Y-137469936D01*
X155082294Y-137468367D01*
X155158297Y-137470351D01*
G36*
X154137206Y-137469146D02*
G01*
X154206614Y-137469518D01*
X154259003Y-137470385D01*
X154297153Y-137471946D01*
X154323841Y-137474403D01*
X154341847Y-137477957D01*
X154353951Y-137482810D01*
X154362931Y-137489161D01*
X154366182Y-137492084D01*
X154385957Y-137523142D01*
X154389518Y-137558828D01*
X154376509Y-137590510D01*
X154370494Y-137596913D01*
X154360765Y-137603121D01*
X154345099Y-137607910D01*
X154320592Y-137611514D01*
X154284339Y-137614164D01*
X154233435Y-137616095D01*
X154164974Y-137617539D01*
X154102383Y-137618418D01*
X153854666Y-137621467D01*
X153851281Y-137686378D01*
X153847895Y-137751289D01*
X154016042Y-137751289D01*
X154089041Y-137751919D01*
X154142483Y-137754553D01*
X154179372Y-137760309D01*
X154202712Y-137770304D01*
X154215506Y-137785656D01*
X154220758Y-137807482D01*
X154221555Y-137827738D01*
X154219077Y-137852592D01*
X154209723Y-137870906D01*
X154190617Y-137883637D01*
X154158882Y-137891741D01*
X154111641Y-137896176D01*
X154046017Y-137897899D01*
X154010199Y-137898045D01*
X153849022Y-137898045D01*
X153849022Y-138056089D01*
X154097378Y-138056089D01*
X154178787Y-138056202D01*
X154240658Y-138056712D01*
X154286032Y-138057870D01*
X154317946Y-138059930D01*
X154339441Y-138063146D01*
X154353557Y-138067772D01*
X154363332Y-138074059D01*
X154368311Y-138078667D01*
X154385390Y-138105560D01*
X154390889Y-138129467D01*
X154383037Y-138158667D01*
X154368311Y-138180267D01*
X154360454Y-138187066D01*
X154350312Y-138192346D01*
X154335156Y-138196298D01*
X154312259Y-138199113D01*
X154278891Y-138200982D01*
X154232325Y-138202098D01*
X154169833Y-138202651D01*
X154088686Y-138202833D01*
X154046578Y-138202845D01*
X153956402Y-138202765D01*
X153886076Y-138202398D01*
X153832871Y-138201552D01*
X153794060Y-138200036D01*
X153766913Y-138197659D01*
X153748702Y-138194229D01*
X153736700Y-138189554D01*
X153728178Y-138183444D01*
X153724844Y-138180267D01*
X153718245Y-138172670D01*
X153713073Y-138162870D01*
X153709154Y-138148239D01*
X153706316Y-138126152D01*
X153704385Y-138093982D01*
X153703188Y-138049103D01*
X153702552Y-137988889D01*
X153702303Y-137910713D01*
X153702266Y-137837923D01*
X153702300Y-137744707D01*
X153702535Y-137671431D01*
X153703170Y-137615458D01*
X153704406Y-137574151D01*
X153706444Y-137544872D01*
X153709483Y-137524984D01*
X153713723Y-137511850D01*
X153719365Y-137502832D01*
X153726609Y-137495293D01*
X153728394Y-137493612D01*
X153737055Y-137486172D01*
X153747118Y-137480409D01*
X153761375Y-137476112D01*
X153782617Y-137473064D01*
X153813636Y-137471051D01*
X153857223Y-137469860D01*
X153916169Y-137469275D01*
X153993266Y-137469083D01*
X154047999Y-137469067D01*
X154137206Y-137469146D01*
G37*
X154137206Y-137469146D02*
X154206614Y-137469518D01*
X154259003Y-137470385D01*
X154297153Y-137471946D01*
X154323841Y-137474403D01*
X154341847Y-137477957D01*
X154353951Y-137482810D01*
X154362931Y-137489161D01*
X154366182Y-137492084D01*
X154385957Y-137523142D01*
X154389518Y-137558828D01*
X154376509Y-137590510D01*
X154370494Y-137596913D01*
X154360765Y-137603121D01*
X154345099Y-137607910D01*
X154320592Y-137611514D01*
X154284339Y-137614164D01*
X154233435Y-137616095D01*
X154164974Y-137617539D01*
X154102383Y-137618418D01*
X153854666Y-137621467D01*
X153851281Y-137686378D01*
X153847895Y-137751289D01*
X154016042Y-137751289D01*
X154089041Y-137751919D01*
X154142483Y-137754553D01*
X154179372Y-137760309D01*
X154202712Y-137770304D01*
X154215506Y-137785656D01*
X154220758Y-137807482D01*
X154221555Y-137827738D01*
X154219077Y-137852592D01*
X154209723Y-137870906D01*
X154190617Y-137883637D01*
X154158882Y-137891741D01*
X154111641Y-137896176D01*
X154046017Y-137897899D01*
X154010199Y-137898045D01*
X153849022Y-137898045D01*
X153849022Y-138056089D01*
X154097378Y-138056089D01*
X154178787Y-138056202D01*
X154240658Y-138056712D01*
X154286032Y-138057870D01*
X154317946Y-138059930D01*
X154339441Y-138063146D01*
X154353557Y-138067772D01*
X154363332Y-138074059D01*
X154368311Y-138078667D01*
X154385390Y-138105560D01*
X154390889Y-138129467D01*
X154383037Y-138158667D01*
X154368311Y-138180267D01*
X154360454Y-138187066D01*
X154350312Y-138192346D01*
X154335156Y-138196298D01*
X154312259Y-138199113D01*
X154278891Y-138200982D01*
X154232325Y-138202098D01*
X154169833Y-138202651D01*
X154088686Y-138202833D01*
X154046578Y-138202845D01*
X153956402Y-138202765D01*
X153886076Y-138202398D01*
X153832871Y-138201552D01*
X153794060Y-138200036D01*
X153766913Y-138197659D01*
X153748702Y-138194229D01*
X153736700Y-138189554D01*
X153728178Y-138183444D01*
X153724844Y-138180267D01*
X153718245Y-138172670D01*
X153713073Y-138162870D01*
X153709154Y-138148239D01*
X153706316Y-138126152D01*
X153704385Y-138093982D01*
X153703188Y-138049103D01*
X153702552Y-137988889D01*
X153702303Y-137910713D01*
X153702266Y-137837923D01*
X153702300Y-137744707D01*
X153702535Y-137671431D01*
X153703170Y-137615458D01*
X153704406Y-137574151D01*
X153706444Y-137544872D01*
X153709483Y-137524984D01*
X153713723Y-137511850D01*
X153719365Y-137502832D01*
X153726609Y-137495293D01*
X153728394Y-137493612D01*
X153737055Y-137486172D01*
X153747118Y-137480409D01*
X153761375Y-137476112D01*
X153782617Y-137473064D01*
X153813636Y-137471051D01*
X153857223Y-137469860D01*
X153916169Y-137469275D01*
X153993266Y-137469083D01*
X154047999Y-137469067D01*
X154137206Y-137469146D01*
G36*
X152728629Y-137469066D02*
G01*
X152768111Y-137469467D01*
X152883800Y-137472259D01*
X152980689Y-137480550D01*
X153062081Y-137495232D01*
X153131277Y-137517193D01*
X153191580Y-137547322D01*
X153246292Y-137586510D01*
X153265833Y-137603532D01*
X153298250Y-137643363D01*
X153327480Y-137697413D01*
X153350009Y-137757323D01*
X153362321Y-137814739D01*
X153363600Y-137835956D01*
X153355583Y-137894769D01*
X153334101Y-137959013D01*
X153303001Y-138019821D01*
X153266134Y-138068330D01*
X153260146Y-138074182D01*
X153209421Y-138115321D01*
X153153875Y-138147435D01*
X153090304Y-138171365D01*
X153015506Y-138187953D01*
X152926278Y-138198041D01*
X152819418Y-138202469D01*
X152770472Y-138202845D01*
X152708238Y-138202545D01*
X152664472Y-138201292D01*
X152635069Y-138198554D01*
X152615921Y-138193801D01*
X152602923Y-138186501D01*
X152595955Y-138180267D01*
X152589374Y-138172694D01*
X152584212Y-138162924D01*
X152580297Y-138148340D01*
X152577457Y-138126326D01*
X152575520Y-138094264D01*
X152574316Y-138049536D01*
X152573672Y-137989526D01*
X152573417Y-137911617D01*
X152573378Y-137835956D01*
X152573130Y-137735041D01*
X152573183Y-137654427D01*
X152574143Y-137615822D01*
X152720133Y-137615822D01*
X152720133Y-138056089D01*
X152813266Y-138056004D01*
X152869307Y-138054396D01*
X152928001Y-138050256D01*
X152976972Y-138044464D01*
X152978462Y-138044226D01*
X153057608Y-138025090D01*
X153118998Y-137995287D01*
X153165695Y-137952878D01*
X153195365Y-137906961D01*
X153213647Y-137856026D01*
X153212229Y-137808200D01*
X153191012Y-137756933D01*
X153149511Y-137703899D01*
X153092002Y-137664600D01*
X153017250Y-137638331D01*
X152967292Y-137629035D01*
X152910584Y-137622507D01*
X152850481Y-137617782D01*
X152799361Y-137615817D01*
X152796333Y-137615808D01*
X152720133Y-137615822D01*
X152574143Y-137615822D01*
X152574740Y-137591851D01*
X152579002Y-137545055D01*
X152587170Y-137511778D01*
X152600444Y-137489759D01*
X152620026Y-137476739D01*
X152647117Y-137470457D01*
X152682918Y-137468653D01*
X152728629Y-137469066D01*
G37*
X152728629Y-137469066D02*
X152768111Y-137469467D01*
X152883800Y-137472259D01*
X152980689Y-137480550D01*
X153062081Y-137495232D01*
X153131277Y-137517193D01*
X153191580Y-137547322D01*
X153246292Y-137586510D01*
X153265833Y-137603532D01*
X153298250Y-137643363D01*
X153327480Y-137697413D01*
X153350009Y-137757323D01*
X153362321Y-137814739D01*
X153363600Y-137835956D01*
X153355583Y-137894769D01*
X153334101Y-137959013D01*
X153303001Y-138019821D01*
X153266134Y-138068330D01*
X153260146Y-138074182D01*
X153209421Y-138115321D01*
X153153875Y-138147435D01*
X153090304Y-138171365D01*
X153015506Y-138187953D01*
X152926278Y-138198041D01*
X152819418Y-138202469D01*
X152770472Y-138202845D01*
X152708238Y-138202545D01*
X152664472Y-138201292D01*
X152635069Y-138198554D01*
X152615921Y-138193801D01*
X152602923Y-138186501D01*
X152595955Y-138180267D01*
X152589374Y-138172694D01*
X152584212Y-138162924D01*
X152580297Y-138148340D01*
X152577457Y-138126326D01*
X152575520Y-138094264D01*
X152574316Y-138049536D01*
X152573672Y-137989526D01*
X152573417Y-137911617D01*
X152573378Y-137835956D01*
X152573130Y-137735041D01*
X152573183Y-137654427D01*
X152574143Y-137615822D01*
X152720133Y-137615822D01*
X152720133Y-138056089D01*
X152813266Y-138056004D01*
X152869307Y-138054396D01*
X152928001Y-138050256D01*
X152976972Y-138044464D01*
X152978462Y-138044226D01*
X153057608Y-138025090D01*
X153118998Y-137995287D01*
X153165695Y-137952878D01*
X153195365Y-137906961D01*
X153213647Y-137856026D01*
X153212229Y-137808200D01*
X153191012Y-137756933D01*
X153149511Y-137703899D01*
X153092002Y-137664600D01*
X153017250Y-137638331D01*
X152967292Y-137629035D01*
X152910584Y-137622507D01*
X152850481Y-137617782D01*
X152799361Y-137615817D01*
X152796333Y-137615808D01*
X152720133Y-137615822D01*
X152574143Y-137615822D01*
X152574740Y-137591851D01*
X152579002Y-137545055D01*
X152587170Y-137511778D01*
X152600444Y-137489759D01*
X152620026Y-137476739D01*
X152647117Y-137470457D01*
X152682918Y-137468653D01*
X152728629Y-137469066D01*
G36*
X156576957Y-132226571D02*
G01*
X156673232Y-132250809D01*
X156759816Y-132293641D01*
X156834627Y-132353419D01*
X156895582Y-132428494D01*
X156940601Y-132517220D01*
X156966864Y-132613530D01*
X156972714Y-132710795D01*
X156957860Y-132804654D01*
X156924160Y-132892511D01*
X156873472Y-132971770D01*
X156807655Y-133039836D01*
X156728566Y-133094112D01*
X156638066Y-133132002D01*
X156586800Y-133144426D01*
X156542302Y-133151947D01*
X156508001Y-133154919D01*
X156475040Y-133153094D01*
X156434566Y-133146225D01*
X156401469Y-133139250D01*
X156308053Y-133107741D01*
X156224381Y-133056617D01*
X156152335Y-132987429D01*
X156093800Y-132901728D01*
X156079852Y-132874489D01*
X156063414Y-132838122D01*
X156053106Y-132807582D01*
X156047540Y-132775450D01*
X156045331Y-132734307D01*
X156045052Y-132688222D01*
X156049139Y-132603865D01*
X156062554Y-132534586D01*
X156087744Y-132473961D01*
X156127154Y-132415567D01*
X156165702Y-132371302D01*
X156237594Y-132305484D01*
X156312687Y-132260053D01*
X156395438Y-132232850D01*
X156473072Y-132222576D01*
X156576957Y-132226571D01*
G37*
X156576957Y-132226571D02*
X156673232Y-132250809D01*
X156759816Y-132293641D01*
X156834627Y-132353419D01*
X156895582Y-132428494D01*
X156940601Y-132517220D01*
X156966864Y-132613530D01*
X156972714Y-132710795D01*
X156957860Y-132804654D01*
X156924160Y-132892511D01*
X156873472Y-132971770D01*
X156807655Y-133039836D01*
X156728566Y-133094112D01*
X156638066Y-133132002D01*
X156586800Y-133144426D01*
X156542302Y-133151947D01*
X156508001Y-133154919D01*
X156475040Y-133153094D01*
X156434566Y-133146225D01*
X156401469Y-133139250D01*
X156308053Y-133107741D01*
X156224381Y-133056617D01*
X156152335Y-132987429D01*
X156093800Y-132901728D01*
X156079852Y-132874489D01*
X156063414Y-132838122D01*
X156053106Y-132807582D01*
X156047540Y-132775450D01*
X156045331Y-132734307D01*
X156045052Y-132688222D01*
X156049139Y-132603865D01*
X156062554Y-132534586D01*
X156087744Y-132473961D01*
X156127154Y-132415567D01*
X156165702Y-132371302D01*
X156237594Y-132305484D01*
X156312687Y-132260053D01*
X156395438Y-132232850D01*
X156473072Y-132222576D01*
X156576957Y-132226571D01*
G36*
X165036507Y-134672245D02*
G01*
X165036526Y-134906662D01*
X165036552Y-135119603D01*
X165036625Y-135312168D01*
X165036782Y-135485459D01*
X165037064Y-135640576D01*
X165037509Y-135778620D01*
X165038156Y-135900692D01*
X165039045Y-136007894D01*
X165040213Y-136101326D01*
X165041701Y-136182090D01*
X165043546Y-136251286D01*
X165045789Y-136310015D01*
X165048469Y-136359379D01*
X165051623Y-136400478D01*
X165055292Y-136434413D01*
X165059513Y-136462286D01*
X165064327Y-136485198D01*
X165069773Y-136504249D01*
X165075888Y-136520540D01*
X165082712Y-136535173D01*
X165090285Y-136549249D01*
X165098645Y-136563868D01*
X165103839Y-136572974D01*
X165138104Y-136633689D01*
X164279955Y-136633689D01*
X164279955Y-136537733D01*
X164279224Y-136494370D01*
X164277272Y-136461205D01*
X164274463Y-136443424D01*
X164273221Y-136441778D01*
X164261799Y-136448662D01*
X164239084Y-136466505D01*
X164216385Y-136485879D01*
X164161800Y-136526614D01*
X164092321Y-136567617D01*
X164015270Y-136605123D01*
X163937965Y-136635364D01*
X163907113Y-136645012D01*
X163838616Y-136659578D01*
X163755764Y-136669539D01*
X163666371Y-136674583D01*
X163578248Y-136674396D01*
X163499207Y-136668666D01*
X163461511Y-136662858D01*
X163323414Y-136624797D01*
X163196113Y-136567073D01*
X163080292Y-136490211D01*
X162976637Y-136394739D01*
X162885833Y-136281179D01*
X162819031Y-136170381D01*
X162764164Y-136053625D01*
X162722163Y-135934276D01*
X162692167Y-135808283D01*
X162673311Y-135671594D01*
X162664732Y-135520158D01*
X162664006Y-135442711D01*
X162666100Y-135385934D01*
X163495217Y-135385934D01*
X163495424Y-135479002D01*
X163498337Y-135566692D01*
X163504000Y-135643772D01*
X163512455Y-135705009D01*
X163515038Y-135717350D01*
X163546840Y-135824633D01*
X163588498Y-135911658D01*
X163640363Y-135978642D01*
X163702781Y-136025805D01*
X163776100Y-136053365D01*
X163860669Y-136061541D01*
X163956835Y-136050551D01*
X164020311Y-136034829D01*
X164069454Y-136016639D01*
X164123583Y-135990791D01*
X164164244Y-135967089D01*
X164234800Y-135920721D01*
X164234800Y-134770530D01*
X164167392Y-134726962D01*
X164088867Y-134686040D01*
X164004681Y-134659389D01*
X163919557Y-134647465D01*
X163838216Y-134650722D01*
X163765380Y-134669615D01*
X163733426Y-134685184D01*
X163675501Y-134728181D01*
X163626544Y-134784953D01*
X163585390Y-134857575D01*
X163550874Y-134948121D01*
X163521833Y-135058666D01*
X163520552Y-135064533D01*
X163510381Y-135126788D01*
X163502739Y-135204594D01*
X163497670Y-135292720D01*
X163495217Y-135385934D01*
X162666100Y-135385934D01*
X162671857Y-135229895D01*
X162693802Y-135034059D01*
X162729786Y-134855332D01*
X162779759Y-134693845D01*
X162843668Y-134549726D01*
X162921462Y-134423106D01*
X163013089Y-134314115D01*
X163118497Y-134222883D01*
X163163662Y-134191932D01*
X163264611Y-134135785D01*
X163367901Y-134096174D01*
X163477989Y-134072014D01*
X163599330Y-134062219D01*
X163691836Y-134063265D01*
X163821490Y-134074231D01*
X163934084Y-134096046D01*
X164032875Y-134129714D01*
X164121121Y-134176236D01*
X164169986Y-134210448D01*
X164199353Y-134232362D01*
X164221043Y-134247333D01*
X164229253Y-134251733D01*
X164230868Y-134240904D01*
X164232159Y-134210251D01*
X164233138Y-134162526D01*
X164233817Y-134100479D01*
X164234210Y-134026862D01*
X164234330Y-133944427D01*
X164234188Y-133855925D01*
X164233797Y-133764107D01*
X164233171Y-133671724D01*
X164232320Y-133581528D01*
X164231260Y-133496271D01*
X164230001Y-133418703D01*
X164228556Y-133351576D01*
X164226938Y-133297641D01*
X164225161Y-133259650D01*
X164224669Y-133252667D01*
X164217092Y-133182251D01*
X164205531Y-133127102D01*
X164187792Y-133079981D01*
X164161682Y-133033647D01*
X164155415Y-133024067D01*
X164130983Y-132987378D01*
X165036311Y-132987378D01*
X165036507Y-134672245D01*
G37*
X165036507Y-134672245D02*
X165036526Y-134906662D01*
X165036552Y-135119603D01*
X165036625Y-135312168D01*
X165036782Y-135485459D01*
X165037064Y-135640576D01*
X165037509Y-135778620D01*
X165038156Y-135900692D01*
X165039045Y-136007894D01*
X165040213Y-136101326D01*
X165041701Y-136182090D01*
X165043546Y-136251286D01*
X165045789Y-136310015D01*
X165048469Y-136359379D01*
X165051623Y-136400478D01*
X165055292Y-136434413D01*
X165059513Y-136462286D01*
X165064327Y-136485198D01*
X165069773Y-136504249D01*
X165075888Y-136520540D01*
X165082712Y-136535173D01*
X165090285Y-136549249D01*
X165098645Y-136563868D01*
X165103839Y-136572974D01*
X165138104Y-136633689D01*
X164279955Y-136633689D01*
X164279955Y-136537733D01*
X164279224Y-136494370D01*
X164277272Y-136461205D01*
X164274463Y-136443424D01*
X164273221Y-136441778D01*
X164261799Y-136448662D01*
X164239084Y-136466505D01*
X164216385Y-136485879D01*
X164161800Y-136526614D01*
X164092321Y-136567617D01*
X164015270Y-136605123D01*
X163937965Y-136635364D01*
X163907113Y-136645012D01*
X163838616Y-136659578D01*
X163755764Y-136669539D01*
X163666371Y-136674583D01*
X163578248Y-136674396D01*
X163499207Y-136668666D01*
X163461511Y-136662858D01*
X163323414Y-136624797D01*
X163196113Y-136567073D01*
X163080292Y-136490211D01*
X162976637Y-136394739D01*
X162885833Y-136281179D01*
X162819031Y-136170381D01*
X162764164Y-136053625D01*
X162722163Y-135934276D01*
X162692167Y-135808283D01*
X162673311Y-135671594D01*
X162664732Y-135520158D01*
X162664006Y-135442711D01*
X162666100Y-135385934D01*
X163495217Y-135385934D01*
X163495424Y-135479002D01*
X163498337Y-135566692D01*
X163504000Y-135643772D01*
X163512455Y-135705009D01*
X163515038Y-135717350D01*
X163546840Y-135824633D01*
X163588498Y-135911658D01*
X163640363Y-135978642D01*
X163702781Y-136025805D01*
X163776100Y-136053365D01*
X163860669Y-136061541D01*
X163956835Y-136050551D01*
X164020311Y-136034829D01*
X164069454Y-136016639D01*
X164123583Y-135990791D01*
X164164244Y-135967089D01*
X164234800Y-135920721D01*
X164234800Y-134770530D01*
X164167392Y-134726962D01*
X164088867Y-134686040D01*
X164004681Y-134659389D01*
X163919557Y-134647465D01*
X163838216Y-134650722D01*
X163765380Y-134669615D01*
X163733426Y-134685184D01*
X163675501Y-134728181D01*
X163626544Y-134784953D01*
X163585390Y-134857575D01*
X163550874Y-134948121D01*
X163521833Y-135058666D01*
X163520552Y-135064533D01*
X163510381Y-135126788D01*
X163502739Y-135204594D01*
X163497670Y-135292720D01*
X163495217Y-135385934D01*
X162666100Y-135385934D01*
X162671857Y-135229895D01*
X162693802Y-135034059D01*
X162729786Y-134855332D01*
X162779759Y-134693845D01*
X162843668Y-134549726D01*
X162921462Y-134423106D01*
X163013089Y-134314115D01*
X163118497Y-134222883D01*
X163163662Y-134191932D01*
X163264611Y-134135785D01*
X163367901Y-134096174D01*
X163477989Y-134072014D01*
X163599330Y-134062219D01*
X163691836Y-134063265D01*
X163821490Y-134074231D01*
X163934084Y-134096046D01*
X164032875Y-134129714D01*
X164121121Y-134176236D01*
X164169986Y-134210448D01*
X164199353Y-134232362D01*
X164221043Y-134247333D01*
X164229253Y-134251733D01*
X164230868Y-134240904D01*
X164232159Y-134210251D01*
X164233138Y-134162526D01*
X164233817Y-134100479D01*
X164234210Y-134026862D01*
X164234330Y-133944427D01*
X164234188Y-133855925D01*
X164233797Y-133764107D01*
X164233171Y-133671724D01*
X164232320Y-133581528D01*
X164231260Y-133496271D01*
X164230001Y-133418703D01*
X164228556Y-133351576D01*
X164226938Y-133297641D01*
X164225161Y-133259650D01*
X164224669Y-133252667D01*
X164217092Y-133182251D01*
X164205531Y-133127102D01*
X164187792Y-133079981D01*
X164161682Y-133033647D01*
X164155415Y-133024067D01*
X164130983Y-132987378D01*
X165036311Y-132987378D01*
X165036507Y-134672245D01*
G36*
X161523574Y-134066552D02*
G01*
X161675492Y-134086567D01*
X161810756Y-134120202D01*
X161930239Y-134167725D01*
X162034815Y-134229405D01*
X162112424Y-134292965D01*
X162181265Y-134367099D01*
X162235006Y-134446871D01*
X162277910Y-134539091D01*
X162293384Y-134582161D01*
X162306244Y-134621142D01*
X162317446Y-134657289D01*
X162327120Y-134692434D01*
X162335396Y-134728410D01*
X162342403Y-134767050D01*
X162348272Y-134810185D01*
X162353131Y-134859649D01*
X162357110Y-134917273D01*
X162360340Y-134984891D01*
X162362949Y-135064334D01*
X162365067Y-135157436D01*
X162366824Y-135266027D01*
X162368349Y-135391942D01*
X162369772Y-135537012D01*
X162371025Y-135679778D01*
X162372351Y-135835968D01*
X162373556Y-135971239D01*
X162374766Y-136087246D01*
X162376106Y-136185645D01*
X162377700Y-136268093D01*
X162379675Y-136336246D01*
X162382156Y-136391760D01*
X162385269Y-136436292D01*
X162389138Y-136471498D01*
X162393889Y-136499034D01*
X162399648Y-136520556D01*
X162406539Y-136537722D01*
X162414689Y-136552186D01*
X162424223Y-136565606D01*
X162435266Y-136579638D01*
X162439566Y-136585071D01*
X162455386Y-136607910D01*
X162462422Y-136623463D01*
X162462444Y-136623922D01*
X162451567Y-136626121D01*
X162420582Y-136628147D01*
X162371957Y-136629942D01*
X162308163Y-136631451D01*
X162231669Y-136632616D01*
X162144944Y-136633380D01*
X162050457Y-136633686D01*
X162039550Y-136633689D01*
X161616657Y-136633689D01*
X161613395Y-136537622D01*
X161610133Y-136441556D01*
X161548044Y-136492543D01*
X161450714Y-136560057D01*
X161340813Y-136614749D01*
X161254349Y-136644978D01*
X161185278Y-136659666D01*
X161101925Y-136669659D01*
X161012159Y-136674646D01*
X160923845Y-136674313D01*
X160844851Y-136668351D01*
X160808622Y-136662638D01*
X160668603Y-136624776D01*
X160542178Y-136569932D01*
X160430260Y-136498924D01*
X160333762Y-136412568D01*
X160253600Y-136311679D01*
X160190687Y-136197076D01*
X160146312Y-136070984D01*
X160133978Y-136014401D01*
X160126368Y-135952202D01*
X160122739Y-135877363D01*
X160122245Y-135843467D01*
X160122310Y-135840282D01*
X160882248Y-135840282D01*
X160891541Y-135915333D01*
X160919728Y-135979160D01*
X160968197Y-136034798D01*
X160973254Y-136039211D01*
X161021548Y-136074037D01*
X161073257Y-136096620D01*
X161133989Y-136108540D01*
X161209352Y-136111383D01*
X161227459Y-136110978D01*
X161281278Y-136108325D01*
X161321308Y-136102909D01*
X161356324Y-136092745D01*
X161395103Y-136075850D01*
X161405745Y-136070672D01*
X161466396Y-136034844D01*
X161513215Y-135992212D01*
X161525952Y-135976973D01*
X161570622Y-135920462D01*
X161570622Y-135724586D01*
X161570086Y-135645939D01*
X161568396Y-135587988D01*
X161565428Y-135548875D01*
X161561057Y-135526741D01*
X161556972Y-135520274D01*
X161541047Y-135517111D01*
X161507264Y-135514488D01*
X161460340Y-135512655D01*
X161404993Y-135511857D01*
X161396106Y-135511842D01*
X161275330Y-135517096D01*
X161172660Y-135533263D01*
X161086106Y-135560961D01*
X161013681Y-135600808D01*
X160958751Y-135647758D01*
X160914204Y-135705645D01*
X160889480Y-135768693D01*
X160882248Y-135840282D01*
X160122310Y-135840282D01*
X160124178Y-135749712D01*
X160132522Y-135670812D01*
X160148768Y-135599590D01*
X160174405Y-135528864D01*
X160198401Y-135476493D01*
X160257020Y-135381196D01*
X160335117Y-135293170D01*
X160430315Y-135214017D01*
X160540238Y-135145340D01*
X160662510Y-135088741D01*
X160794755Y-135045821D01*
X160859422Y-135030882D01*
X160995604Y-135008777D01*
X161144049Y-134994194D01*
X161295505Y-134987813D01*
X161422064Y-134989445D01*
X161583950Y-134996224D01*
X161576530Y-134937245D01*
X161557238Y-134838092D01*
X161526104Y-134757372D01*
X161482269Y-134694466D01*
X161424871Y-134648756D01*
X161353048Y-134619622D01*
X161265941Y-134606447D01*
X161162686Y-134608611D01*
X161124711Y-134612612D01*
X160983520Y-134637780D01*
X160846707Y-134678814D01*
X160752178Y-134716815D01*
X160707018Y-134736190D01*
X160668585Y-134751760D01*
X160642234Y-134761405D01*
X160634546Y-134763452D01*
X160624802Y-134754374D01*
X160608083Y-134725405D01*
X160584232Y-134676217D01*
X160553093Y-134606484D01*
X160514507Y-134515879D01*
X160507910Y-134500089D01*
X160477853Y-134427772D01*
X160450874Y-134362425D01*
X160428136Y-134306906D01*
X160410806Y-134264072D01*
X160400048Y-134236781D01*
X160396941Y-134227942D01*
X160406940Y-134223187D01*
X160433217Y-134217910D01*
X160461489Y-134214231D01*
X160491646Y-134209474D01*
X160539433Y-134200028D01*
X160600612Y-134186820D01*
X160670946Y-134170776D01*
X160746194Y-134152820D01*
X160774755Y-134145797D01*
X160879816Y-134120209D01*
X160967480Y-134100147D01*
X161042068Y-134084969D01*
X161107903Y-134074035D01*
X161169307Y-134066704D01*
X161230602Y-134062335D01*
X161296110Y-134060287D01*
X161354128Y-134059889D01*
X161523574Y-134066552D01*
G37*
X161523574Y-134066552D02*
X161675492Y-134086567D01*
X161810756Y-134120202D01*
X161930239Y-134167725D01*
X162034815Y-134229405D01*
X162112424Y-134292965D01*
X162181265Y-134367099D01*
X162235006Y-134446871D01*
X162277910Y-134539091D01*
X162293384Y-134582161D01*
X162306244Y-134621142D01*
X162317446Y-134657289D01*
X162327120Y-134692434D01*
X162335396Y-134728410D01*
X162342403Y-134767050D01*
X162348272Y-134810185D01*
X162353131Y-134859649D01*
X162357110Y-134917273D01*
X162360340Y-134984891D01*
X162362949Y-135064334D01*
X162365067Y-135157436D01*
X162366824Y-135266027D01*
X162368349Y-135391942D01*
X162369772Y-135537012D01*
X162371025Y-135679778D01*
X162372351Y-135835968D01*
X162373556Y-135971239D01*
X162374766Y-136087246D01*
X162376106Y-136185645D01*
X162377700Y-136268093D01*
X162379675Y-136336246D01*
X162382156Y-136391760D01*
X162385269Y-136436292D01*
X162389138Y-136471498D01*
X162393889Y-136499034D01*
X162399648Y-136520556D01*
X162406539Y-136537722D01*
X162414689Y-136552186D01*
X162424223Y-136565606D01*
X162435266Y-136579638D01*
X162439566Y-136585071D01*
X162455386Y-136607910D01*
X162462422Y-136623463D01*
X162462444Y-136623922D01*
X162451567Y-136626121D01*
X162420582Y-136628147D01*
X162371957Y-136629942D01*
X162308163Y-136631451D01*
X162231669Y-136632616D01*
X162144944Y-136633380D01*
X162050457Y-136633686D01*
X162039550Y-136633689D01*
X161616657Y-136633689D01*
X161613395Y-136537622D01*
X161610133Y-136441556D01*
X161548044Y-136492543D01*
X161450714Y-136560057D01*
X161340813Y-136614749D01*
X161254349Y-136644978D01*
X161185278Y-136659666D01*
X161101925Y-136669659D01*
X161012159Y-136674646D01*
X160923845Y-136674313D01*
X160844851Y-136668351D01*
X160808622Y-136662638D01*
X160668603Y-136624776D01*
X160542178Y-136569932D01*
X160430260Y-136498924D01*
X160333762Y-136412568D01*
X160253600Y-136311679D01*
X160190687Y-136197076D01*
X160146312Y-136070984D01*
X160133978Y-136014401D01*
X160126368Y-135952202D01*
X160122739Y-135877363D01*
X160122245Y-135843467D01*
X160122310Y-135840282D01*
X160882248Y-135840282D01*
X160891541Y-135915333D01*
X160919728Y-135979160D01*
X160968197Y-136034798D01*
X160973254Y-136039211D01*
X161021548Y-136074037D01*
X161073257Y-136096620D01*
X161133989Y-136108540D01*
X161209352Y-136111383D01*
X161227459Y-136110978D01*
X161281278Y-136108325D01*
X161321308Y-136102909D01*
X161356324Y-136092745D01*
X161395103Y-136075850D01*
X161405745Y-136070672D01*
X161466396Y-136034844D01*
X161513215Y-135992212D01*
X161525952Y-135976973D01*
X161570622Y-135920462D01*
X161570622Y-135724586D01*
X161570086Y-135645939D01*
X161568396Y-135587988D01*
X161565428Y-135548875D01*
X161561057Y-135526741D01*
X161556972Y-135520274D01*
X161541047Y-135517111D01*
X161507264Y-135514488D01*
X161460340Y-135512655D01*
X161404993Y-135511857D01*
X161396106Y-135511842D01*
X161275330Y-135517096D01*
X161172660Y-135533263D01*
X161086106Y-135560961D01*
X161013681Y-135600808D01*
X160958751Y-135647758D01*
X160914204Y-135705645D01*
X160889480Y-135768693D01*
X160882248Y-135840282D01*
X160122310Y-135840282D01*
X160124178Y-135749712D01*
X160132522Y-135670812D01*
X160148768Y-135599590D01*
X160174405Y-135528864D01*
X160198401Y-135476493D01*
X160257020Y-135381196D01*
X160335117Y-135293170D01*
X160430315Y-135214017D01*
X160540238Y-135145340D01*
X160662510Y-135088741D01*
X160794755Y-135045821D01*
X160859422Y-135030882D01*
X160995604Y-135008777D01*
X161144049Y-134994194D01*
X161295505Y-134987813D01*
X161422064Y-134989445D01*
X161583950Y-134996224D01*
X161576530Y-134937245D01*
X161557238Y-134838092D01*
X161526104Y-134757372D01*
X161482269Y-134694466D01*
X161424871Y-134648756D01*
X161353048Y-134619622D01*
X161265941Y-134606447D01*
X161162686Y-134608611D01*
X161124711Y-134612612D01*
X160983520Y-134637780D01*
X160846707Y-134678814D01*
X160752178Y-134716815D01*
X160707018Y-134736190D01*
X160668585Y-134751760D01*
X160642234Y-134761405D01*
X160634546Y-134763452D01*
X160624802Y-134754374D01*
X160608083Y-134725405D01*
X160584232Y-134676217D01*
X160553093Y-134606484D01*
X160514507Y-134515879D01*
X160507910Y-134500089D01*
X160477853Y-134427772D01*
X160450874Y-134362425D01*
X160428136Y-134306906D01*
X160410806Y-134264072D01*
X160400048Y-134236781D01*
X160396941Y-134227942D01*
X160406940Y-134223187D01*
X160433217Y-134217910D01*
X160461489Y-134214231D01*
X160491646Y-134209474D01*
X160539433Y-134200028D01*
X160600612Y-134186820D01*
X160670946Y-134170776D01*
X160746194Y-134152820D01*
X160774755Y-134145797D01*
X160879816Y-134120209D01*
X160967480Y-134100147D01*
X161042068Y-134084969D01*
X161107903Y-134074035D01*
X161169307Y-134066704D01*
X161230602Y-134062335D01*
X161296110Y-134060287D01*
X161354128Y-134059889D01*
X161523574Y-134066552D01*
G36*
X159178429Y-133149071D02*
G01*
X159338570Y-133170245D01*
X159502510Y-133210385D01*
X159672313Y-133269889D01*
X159850043Y-133349154D01*
X159861310Y-133354699D01*
X159919005Y-133382725D01*
X159970552Y-133406802D01*
X160012191Y-133425249D01*
X160040162Y-133436386D01*
X160049733Y-133438933D01*
X160068950Y-133443941D01*
X160073561Y-133448147D01*
X160068458Y-133458580D01*
X160052418Y-133484868D01*
X160027288Y-133524257D01*
X159994914Y-133573991D01*
X159957143Y-133631315D01*
X159915822Y-133693476D01*
X159872798Y-133757718D01*
X159829917Y-133821285D01*
X159789026Y-133881425D01*
X159751971Y-133935380D01*
X159720600Y-133980397D01*
X159696759Y-134013721D01*
X159682294Y-134032597D01*
X159680309Y-134034787D01*
X159670191Y-134030138D01*
X159647850Y-134012962D01*
X159617280Y-133986440D01*
X159601536Y-133971964D01*
X159505047Y-133896682D01*
X159398336Y-133841241D01*
X159282832Y-133806141D01*
X159159962Y-133791880D01*
X159090561Y-133793051D01*
X158969423Y-133810212D01*
X158860205Y-133846094D01*
X158762582Y-133900959D01*
X158676228Y-133975070D01*
X158600815Y-134068688D01*
X158536018Y-134182076D01*
X158498601Y-134268667D01*
X158454748Y-134404366D01*
X158422428Y-134551850D01*
X158401557Y-134707314D01*
X158392051Y-134866956D01*
X158393827Y-135026973D01*
X158406803Y-135183561D01*
X158430894Y-135332918D01*
X158466018Y-135471240D01*
X158512092Y-135594724D01*
X158528373Y-135628978D01*
X158596620Y-135743064D01*
X158677079Y-135839557D01*
X158768570Y-135917670D01*
X158869911Y-135976617D01*
X158979920Y-136015612D01*
X159097415Y-136033868D01*
X159138883Y-136035211D01*
X159260441Y-136024290D01*
X159380878Y-135991474D01*
X159498666Y-135937439D01*
X159612277Y-135862865D01*
X159703685Y-135784539D01*
X159750215Y-135740008D01*
X159931483Y-136037271D01*
X159976580Y-136111433D01*
X160017819Y-136179646D01*
X160053735Y-136239459D01*
X160082866Y-136288420D01*
X160103750Y-136324079D01*
X160114924Y-136343984D01*
X160116375Y-136347079D01*
X160108146Y-136356718D01*
X160082567Y-136373999D01*
X160042873Y-136397283D01*
X159992297Y-136424934D01*
X159934074Y-136455315D01*
X159871437Y-136486790D01*
X159807621Y-136517722D01*
X159745860Y-136546473D01*
X159689388Y-136571408D01*
X159641438Y-136590889D01*
X159617986Y-136599318D01*
X159484221Y-136637133D01*
X159346327Y-136662136D01*
X159198622Y-136675140D01*
X159071833Y-136677468D01*
X159003878Y-136676373D01*
X158938277Y-136674275D01*
X158880847Y-136671434D01*
X158837403Y-136668106D01*
X158823298Y-136666422D01*
X158684284Y-136637587D01*
X158542757Y-136592468D01*
X158405275Y-136533750D01*
X158278394Y-136464120D01*
X158200889Y-136411441D01*
X158073481Y-136303239D01*
X157955178Y-136176671D01*
X157848172Y-136034866D01*
X157754652Y-135880951D01*
X157676810Y-135718053D01*
X157632956Y-135600756D01*
X157582708Y-135417128D01*
X157549209Y-135222581D01*
X157532449Y-135021325D01*
X157532416Y-134817568D01*
X157549101Y-134615521D01*
X157582493Y-134419392D01*
X157632580Y-134233391D01*
X157636397Y-134221803D01*
X157699281Y-134059750D01*
X157776028Y-133911832D01*
X157869242Y-133773865D01*
X157981527Y-133641661D01*
X158025392Y-133596399D01*
X158161534Y-133472457D01*
X158301491Y-133369915D01*
X158447411Y-133287656D01*
X158601442Y-133224564D01*
X158765732Y-133179523D01*
X158861289Y-133162033D01*
X159020023Y-133146466D01*
X159178429Y-133149071D01*
G37*
X159178429Y-133149071D02*
X159338570Y-133170245D01*
X159502510Y-133210385D01*
X159672313Y-133269889D01*
X159850043Y-133349154D01*
X159861310Y-133354699D01*
X159919005Y-133382725D01*
X159970552Y-133406802D01*
X160012191Y-133425249D01*
X160040162Y-133436386D01*
X160049733Y-133438933D01*
X160068950Y-133443941D01*
X160073561Y-133448147D01*
X160068458Y-133458580D01*
X160052418Y-133484868D01*
X160027288Y-133524257D01*
X159994914Y-133573991D01*
X159957143Y-133631315D01*
X159915822Y-133693476D01*
X159872798Y-133757718D01*
X159829917Y-133821285D01*
X159789026Y-133881425D01*
X159751971Y-133935380D01*
X159720600Y-133980397D01*
X159696759Y-134013721D01*
X159682294Y-134032597D01*
X159680309Y-134034787D01*
X159670191Y-134030138D01*
X159647850Y-134012962D01*
X159617280Y-133986440D01*
X159601536Y-133971964D01*
X159505047Y-133896682D01*
X159398336Y-133841241D01*
X159282832Y-133806141D01*
X159159962Y-133791880D01*
X159090561Y-133793051D01*
X158969423Y-133810212D01*
X158860205Y-133846094D01*
X158762582Y-133900959D01*
X158676228Y-133975070D01*
X158600815Y-134068688D01*
X158536018Y-134182076D01*
X158498601Y-134268667D01*
X158454748Y-134404366D01*
X158422428Y-134551850D01*
X158401557Y-134707314D01*
X158392051Y-134866956D01*
X158393827Y-135026973D01*
X158406803Y-135183561D01*
X158430894Y-135332918D01*
X158466018Y-135471240D01*
X158512092Y-135594724D01*
X158528373Y-135628978D01*
X158596620Y-135743064D01*
X158677079Y-135839557D01*
X158768570Y-135917670D01*
X158869911Y-135976617D01*
X158979920Y-136015612D01*
X159097415Y-136033868D01*
X159138883Y-136035211D01*
X159260441Y-136024290D01*
X159380878Y-135991474D01*
X159498666Y-135937439D01*
X159612277Y-135862865D01*
X159703685Y-135784539D01*
X159750215Y-135740008D01*
X159931483Y-136037271D01*
X159976580Y-136111433D01*
X160017819Y-136179646D01*
X160053735Y-136239459D01*
X160082866Y-136288420D01*
X160103750Y-136324079D01*
X160114924Y-136343984D01*
X160116375Y-136347079D01*
X160108146Y-136356718D01*
X160082567Y-136373999D01*
X160042873Y-136397283D01*
X159992297Y-136424934D01*
X159934074Y-136455315D01*
X159871437Y-136486790D01*
X159807621Y-136517722D01*
X159745860Y-136546473D01*
X159689388Y-136571408D01*
X159641438Y-136590889D01*
X159617986Y-136599318D01*
X159484221Y-136637133D01*
X159346327Y-136662136D01*
X159198622Y-136675140D01*
X159071833Y-136677468D01*
X159003878Y-136676373D01*
X158938277Y-136674275D01*
X158880847Y-136671434D01*
X158837403Y-136668106D01*
X158823298Y-136666422D01*
X158684284Y-136637587D01*
X158542757Y-136592468D01*
X158405275Y-136533750D01*
X158278394Y-136464120D01*
X158200889Y-136411441D01*
X158073481Y-136303239D01*
X157955178Y-136176671D01*
X157848172Y-136034866D01*
X157754652Y-135880951D01*
X157676810Y-135718053D01*
X157632956Y-135600756D01*
X157582708Y-135417128D01*
X157549209Y-135222581D01*
X157532449Y-135021325D01*
X157532416Y-134817568D01*
X157549101Y-134615521D01*
X157582493Y-134419392D01*
X157632580Y-134233391D01*
X157636397Y-134221803D01*
X157699281Y-134059750D01*
X157776028Y-133911832D01*
X157869242Y-133773865D01*
X157981527Y-133641661D01*
X158025392Y-133596399D01*
X158161534Y-133472457D01*
X158301491Y-133369915D01*
X158447411Y-133287656D01*
X158601442Y-133224564D01*
X158765732Y-133179523D01*
X158861289Y-133162033D01*
X159020023Y-133146466D01*
X159178429Y-133149071D01*
G36*
X155903600Y-132689054D02*
G01*
X155914465Y-132802993D01*
X155946082Y-132910616D01*
X155996985Y-133009615D01*
X156065707Y-133097684D01*
X156150781Y-133172516D01*
X156247768Y-133230384D01*
X156354036Y-133270005D01*
X156461050Y-133288573D01*
X156566700Y-133287434D01*
X156668875Y-133267930D01*
X156765466Y-133231406D01*
X156854362Y-133179205D01*
X156933454Y-133112673D01*
X157000631Y-133033152D01*
X157053783Y-132941987D01*
X157090801Y-132840523D01*
X157109573Y-132730102D01*
X157111511Y-132680206D01*
X157111511Y-132592267D01*
X157163440Y-132592267D01*
X157199747Y-132595111D01*
X157226645Y-132606911D01*
X157253751Y-132630649D01*
X157292133Y-132669031D01*
X157292133Y-134860602D01*
X157292124Y-135122739D01*
X157292092Y-135363241D01*
X157292028Y-135583048D01*
X157291924Y-135783101D01*
X157291773Y-135964344D01*
X157291566Y-136127716D01*
X157291294Y-136274160D01*
X157290950Y-136404617D01*
X157290526Y-136520029D01*
X157290013Y-136621338D01*
X157289403Y-136709484D01*
X157288688Y-136785410D01*
X157287860Y-136850057D01*
X157286911Y-136904367D01*
X157285833Y-136949280D01*
X157284617Y-136985740D01*
X157283255Y-137014687D01*
X157281739Y-137037063D01*
X157280062Y-137053809D01*
X157278214Y-137065868D01*
X157276187Y-137074180D01*
X157273975Y-137079687D01*
X157272892Y-137081537D01*
X157268729Y-137088549D01*
X157265195Y-137094996D01*
X157261365Y-137100900D01*
X157256318Y-137106286D01*
X157249129Y-137111178D01*
X157238877Y-137115598D01*
X157224636Y-137119572D01*
X157205486Y-137123121D01*
X157180501Y-137126270D01*
X157148760Y-137129042D01*
X157109338Y-137131461D01*
X157061314Y-137133551D01*
X157003763Y-137135335D01*
X156935763Y-137136837D01*
X156856390Y-137138080D01*
X156764721Y-137139089D01*
X156659834Y-137139885D01*
X156540804Y-137140494D01*
X156406710Y-137140939D01*
X156256627Y-137141243D01*
X156089633Y-137141430D01*
X155904804Y-137141524D01*
X155701217Y-137141548D01*
X155477950Y-137141525D01*
X155234078Y-137141480D01*
X154968679Y-137141437D01*
X154930296Y-137141432D01*
X154663318Y-137141389D01*
X154417998Y-137141318D01*
X154193417Y-137141213D01*
X153988655Y-137141066D01*
X153802794Y-137140869D01*
X153634912Y-137140616D01*
X153484092Y-137140300D01*
X153349413Y-137139913D01*
X153229956Y-137139447D01*
X153124801Y-137138897D01*
X153033029Y-137138253D01*
X152953721Y-137137511D01*
X152885957Y-137136661D01*
X152828818Y-137135697D01*
X152781383Y-137134611D01*
X152742734Y-137133397D01*
X152711951Y-137132047D01*
X152688115Y-137130555D01*
X152670306Y-137128911D01*
X152657605Y-137127111D01*
X152649092Y-137125145D01*
X152644734Y-137123477D01*
X152636272Y-137119906D01*
X152628503Y-137117270D01*
X152621398Y-137114634D01*
X152614927Y-137111062D01*
X152609061Y-137105621D01*
X152603771Y-137097375D01*
X152599026Y-137085390D01*
X152594798Y-137068731D01*
X152591057Y-137046463D01*
X152587773Y-137017652D01*
X152584917Y-136981363D01*
X152582460Y-136936661D01*
X152580371Y-136882611D01*
X152578622Y-136818279D01*
X152577183Y-136742730D01*
X152576024Y-136655030D01*
X152575117Y-136554243D01*
X152574431Y-136439434D01*
X152573937Y-136309670D01*
X152573605Y-136164015D01*
X152573407Y-136001535D01*
X152573313Y-135821295D01*
X152573292Y-135622360D01*
X152573315Y-135403796D01*
X152573354Y-135164668D01*
X152573378Y-134904040D01*
X152573378Y-134861889D01*
X152573364Y-134598992D01*
X152573339Y-134357732D01*
X152573329Y-134137165D01*
X152573358Y-133936352D01*
X152573452Y-133754349D01*
X152573638Y-133590216D01*
X152573941Y-133443011D01*
X152574386Y-133311792D01*
X152574966Y-133201867D01*
X152877803Y-133201867D01*
X152917593Y-133259711D01*
X152928764Y-133275479D01*
X152938834Y-133289441D01*
X152947862Y-133302784D01*
X152955903Y-133316693D01*
X152963014Y-133332356D01*
X152969253Y-133350958D01*
X152974675Y-133373686D01*
X152979338Y-133401727D01*
X152983299Y-133436267D01*
X152986615Y-133478492D01*
X152989341Y-133529589D01*
X152991536Y-133590744D01*
X152993255Y-133663144D01*
X152994556Y-133747975D01*
X152995495Y-133846422D01*
X152996130Y-133959674D01*
X152996516Y-134088916D01*
X152996712Y-134235334D01*
X152996773Y-134400116D01*
X152996757Y-134584447D01*
X152996720Y-134789513D01*
X152996711Y-134912133D01*
X152996735Y-135129082D01*
X152996769Y-135324642D01*
X152996757Y-135499999D01*
X152996642Y-135656341D01*
X152996370Y-135794857D01*
X152995882Y-135916734D01*
X152995124Y-136023160D01*
X152994038Y-136115322D01*
X152992569Y-136194409D01*
X152990660Y-136261608D01*
X152988256Y-136318107D01*
X152985299Y-136365093D01*
X152981734Y-136403755D01*
X152977505Y-136435280D01*
X152972554Y-136460855D01*
X152966827Y-136481670D01*
X152960267Y-136498911D01*
X152952817Y-136513765D01*
X152944421Y-136527422D01*
X152935024Y-136541069D01*
X152924568Y-136555893D01*
X152918477Y-136564783D01*
X152879704Y-136622400D01*
X153411268Y-136622400D01*
X153534517Y-136622365D01*
X153637013Y-136622215D01*
X153720580Y-136621878D01*
X153787044Y-136621286D01*
X153838229Y-136620367D01*
X153875959Y-136619051D01*
X153902060Y-136617269D01*
X153918356Y-136614951D01*
X153926672Y-136612026D01*
X153928832Y-136608424D01*
X153926661Y-136604075D01*
X153925465Y-136602645D01*
X153900315Y-136565573D01*
X153874417Y-136512772D01*
X153850808Y-136450770D01*
X153842539Y-136424357D01*
X153837922Y-136406416D01*
X153834021Y-136385355D01*
X153830752Y-136359089D01*
X153828034Y-136325532D01*
X153825785Y-136282599D01*
X153823923Y-136228204D01*
X153822364Y-136160262D01*
X153821028Y-136076688D01*
X153819831Y-135975395D01*
X153818692Y-135854300D01*
X153818315Y-135809600D01*
X153817298Y-135684449D01*
X153816540Y-135580082D01*
X153816097Y-135494707D01*
X153816030Y-135426533D01*
X153816395Y-135373765D01*
X153817252Y-135334614D01*
X153818659Y-135307285D01*
X153820675Y-135289986D01*
X153823357Y-135280926D01*
X153826764Y-135278312D01*
X153830956Y-135280351D01*
X153835429Y-135284667D01*
X153845784Y-135297602D01*
X153867842Y-135326676D01*
X153900043Y-135369759D01*
X153940826Y-135424718D01*
X153988630Y-135489423D01*
X154041895Y-135561742D01*
X154099060Y-135639544D01*
X154158563Y-135720698D01*
X154218845Y-135803072D01*
X154278345Y-135884536D01*
X154335502Y-135962957D01*
X154388755Y-136036204D01*
X154436543Y-136102147D01*
X154477307Y-136158654D01*
X154509484Y-136203593D01*
X154531515Y-136234834D01*
X154536083Y-136241466D01*
X154559004Y-136278369D01*
X154585812Y-136326359D01*
X154611211Y-136375897D01*
X154614432Y-136382577D01*
X154636110Y-136430772D01*
X154648696Y-136468334D01*
X154654426Y-136504160D01*
X154655544Y-136546200D01*
X154654910Y-136622400D01*
X155809349Y-136622400D01*
X155718185Y-136528669D01*
X155671388Y-136478775D01*
X155621101Y-136422295D01*
X155575056Y-136368026D01*
X155554631Y-136342673D01*
X155524193Y-136303128D01*
X155484138Y-136249916D01*
X155435639Y-136184667D01*
X155379865Y-136109011D01*
X155317989Y-136024577D01*
X155251181Y-135932994D01*
X155180613Y-135835892D01*
X155107455Y-135734901D01*
X155032879Y-135631650D01*
X154958056Y-135527768D01*
X154884157Y-135424885D01*
X154812354Y-135324631D01*
X154743816Y-135228636D01*
X154679716Y-135138527D01*
X154621225Y-135055936D01*
X154569514Y-134982492D01*
X154525753Y-134919824D01*
X154491115Y-134869561D01*
X154466770Y-134833334D01*
X154453889Y-134812771D01*
X154452131Y-134808668D01*
X154460090Y-134797342D01*
X154480885Y-134770162D01*
X154513153Y-134728829D01*
X154555530Y-134675044D01*
X154606653Y-134610506D01*
X154665159Y-134536918D01*
X154729686Y-134455978D01*
X154798869Y-134369388D01*
X154871347Y-134278848D01*
X154945754Y-134186060D01*
X155005483Y-134111702D01*
X156016489Y-134111702D01*
X156022398Y-134124659D01*
X156036728Y-134146908D01*
X156037775Y-134148391D01*
X156056562Y-134178544D01*
X156076209Y-134215375D01*
X156080108Y-134223511D01*
X156083644Y-134231940D01*
X156086770Y-134242059D01*
X156089514Y-134255260D01*
X156091908Y-134272938D01*
X156093981Y-134296484D01*
X156095765Y-134327293D01*
X156097288Y-134366757D01*
X156098581Y-134416269D01*
X156099674Y-134477223D01*
X156100597Y-134551011D01*
X156101381Y-134639028D01*
X156102055Y-134742665D01*
X156102650Y-134863316D01*
X156103195Y-135002374D01*
X156103721Y-135161232D01*
X156104255Y-135340089D01*
X156104794Y-135525207D01*
X156105228Y-135689145D01*
X156105491Y-135833303D01*
X156105516Y-135959079D01*
X156105235Y-136067871D01*
X156104581Y-136161077D01*
X156103486Y-136240097D01*
X156101882Y-136306328D01*
X156099703Y-136361170D01*
X156096881Y-136406021D01*
X156093349Y-136442278D01*
X156089039Y-136471341D01*
X156083883Y-136494609D01*
X156077815Y-136513479D01*
X156070767Y-136529351D01*
X156062671Y-136543622D01*
X156053460Y-136557691D01*
X156044960Y-136570158D01*
X156027824Y-136596452D01*
X156017678Y-136614037D01*
X156016489Y-136617257D01*
X156027396Y-136618334D01*
X156058589Y-136619335D01*
X156107777Y-136620235D01*
X156172667Y-136621010D01*
X156250970Y-136621637D01*
X156340393Y-136622091D01*
X156438644Y-136622349D01*
X156507555Y-136622400D01*
X156612548Y-136622180D01*
X156709390Y-136621548D01*
X156795893Y-136620549D01*
X156869868Y-136619227D01*
X156929126Y-136617626D01*
X156971480Y-136615791D01*
X156994740Y-136613765D01*
X156998622Y-136612493D01*
X156990924Y-136597591D01*
X156982926Y-136589560D01*
X156969754Y-136572434D01*
X156952515Y-136542183D01*
X156940593Y-136517622D01*
X156913955Y-136458711D01*
X156910880Y-135281845D01*
X156907805Y-134104978D01*
X156462147Y-134104978D01*
X156364330Y-134105142D01*
X156273936Y-134105611D01*
X156193370Y-134106347D01*
X156125038Y-134107316D01*
X156071344Y-134108480D01*
X156034695Y-134109803D01*
X156017496Y-134111249D01*
X156016489Y-134111702D01*
X155005483Y-134111702D01*
X155020730Y-134092722D01*
X155094910Y-134000537D01*
X155166931Y-133911204D01*
X155235431Y-133826424D01*
X155299045Y-133747898D01*
X155356412Y-133677326D01*
X155406167Y-133616409D01*
X155446948Y-133566847D01*
X155464112Y-133546178D01*
X155550404Y-133445516D01*
X155627003Y-133362259D01*
X155695817Y-133294438D01*
X155758752Y-133240089D01*
X155768133Y-133232722D01*
X155807644Y-133202117D01*
X154675884Y-133201867D01*
X154681173Y-133249844D01*
X154677870Y-133307188D01*
X154656339Y-133375463D01*
X154616365Y-133455212D01*
X154571057Y-133527495D01*
X154554839Y-133550140D01*
X154526786Y-133587696D01*
X154488570Y-133638021D01*
X154441863Y-133698973D01*
X154388339Y-133768411D01*
X154329669Y-133844194D01*
X154267525Y-133924180D01*
X154203579Y-134006228D01*
X154139505Y-134088196D01*
X154076973Y-134167943D01*
X154017657Y-134243327D01*
X153963229Y-134312207D01*
X153915361Y-134372442D01*
X153875725Y-134421889D01*
X153845994Y-134458408D01*
X153827839Y-134479858D01*
X153824780Y-134483156D01*
X153821921Y-134475149D01*
X153819707Y-134444855D01*
X153818143Y-134392556D01*
X153817233Y-134318531D01*
X153816980Y-134223063D01*
X153817387Y-134106434D01*
X153818296Y-133986445D01*
X153819618Y-133854333D01*
X153821143Y-133742594D01*
X153823119Y-133649025D01*
X153825794Y-133571419D01*
X153829418Y-133507574D01*
X153834239Y-133455283D01*
X153840506Y-133412344D01*
X153848468Y-133376551D01*
X153858373Y-133345700D01*
X153870469Y-133317586D01*
X153885007Y-133290005D01*
X153899689Y-133264966D01*
X153937686Y-133201867D01*
X152877803Y-133201867D01*
X152574966Y-133201867D01*
X152574999Y-133195617D01*
X152575805Y-133093544D01*
X152576830Y-133004633D01*
X152578100Y-132927941D01*
X152579640Y-132862527D01*
X152581476Y-132807449D01*
X152583633Y-132761765D01*
X152586137Y-132724534D01*
X152589013Y-132694813D01*
X152592287Y-132671662D01*
X152595985Y-132654139D01*
X152600131Y-132641301D01*
X152604753Y-132632208D01*
X152609874Y-132625918D01*
X152615522Y-132621488D01*
X152621721Y-132617978D01*
X152628496Y-132614445D01*
X152634492Y-132610876D01*
X152639725Y-132608300D01*
X152647901Y-132605972D01*
X152660114Y-132603878D01*
X152677459Y-132602007D01*
X152701031Y-132600347D01*
X152731923Y-132598884D01*
X152771232Y-132597608D01*
X152820050Y-132596504D01*
X152879473Y-132595561D01*
X152950596Y-132594767D01*
X153034512Y-132594109D01*
X153132317Y-132593575D01*
X153245106Y-132593153D01*
X153373971Y-132592829D01*
X153520009Y-132592592D01*
X153684314Y-132592430D01*
X153867980Y-132592330D01*
X154072103Y-132592280D01*
X154283247Y-132592267D01*
X155903600Y-132592267D01*
X155903600Y-132689054D01*
G37*
X155903600Y-132689054D02*
X155914465Y-132802993D01*
X155946082Y-132910616D01*
X155996985Y-133009615D01*
X156065707Y-133097684D01*
X156150781Y-133172516D01*
X156247768Y-133230384D01*
X156354036Y-133270005D01*
X156461050Y-133288573D01*
X156566700Y-133287434D01*
X156668875Y-133267930D01*
X156765466Y-133231406D01*
X156854362Y-133179205D01*
X156933454Y-133112673D01*
X157000631Y-133033152D01*
X157053783Y-132941987D01*
X157090801Y-132840523D01*
X157109573Y-132730102D01*
X157111511Y-132680206D01*
X157111511Y-132592267D01*
X157163440Y-132592267D01*
X157199747Y-132595111D01*
X157226645Y-132606911D01*
X157253751Y-132630649D01*
X157292133Y-132669031D01*
X157292133Y-134860602D01*
X157292124Y-135122739D01*
X157292092Y-135363241D01*
X157292028Y-135583048D01*
X157291924Y-135783101D01*
X157291773Y-135964344D01*
X157291566Y-136127716D01*
X157291294Y-136274160D01*
X157290950Y-136404617D01*
X157290526Y-136520029D01*
X157290013Y-136621338D01*
X157289403Y-136709484D01*
X157288688Y-136785410D01*
X157287860Y-136850057D01*
X157286911Y-136904367D01*
X157285833Y-136949280D01*
X157284617Y-136985740D01*
X157283255Y-137014687D01*
X157281739Y-137037063D01*
X157280062Y-137053809D01*
X157278214Y-137065868D01*
X157276187Y-137074180D01*
X157273975Y-137079687D01*
X157272892Y-137081537D01*
X157268729Y-137088549D01*
X157265195Y-137094996D01*
X157261365Y-137100900D01*
X157256318Y-137106286D01*
X157249129Y-137111178D01*
X157238877Y-137115598D01*
X157224636Y-137119572D01*
X157205486Y-137123121D01*
X157180501Y-137126270D01*
X157148760Y-137129042D01*
X157109338Y-137131461D01*
X157061314Y-137133551D01*
X157003763Y-137135335D01*
X156935763Y-137136837D01*
X156856390Y-137138080D01*
X156764721Y-137139089D01*
X156659834Y-137139885D01*
X156540804Y-137140494D01*
X156406710Y-137140939D01*
X156256627Y-137141243D01*
X156089633Y-137141430D01*
X155904804Y-137141524D01*
X155701217Y-137141548D01*
X155477950Y-137141525D01*
X155234078Y-137141480D01*
X154968679Y-137141437D01*
X154930296Y-137141432D01*
X154663318Y-137141389D01*
X154417998Y-137141318D01*
X154193417Y-137141213D01*
X153988655Y-137141066D01*
X153802794Y-137140869D01*
X153634912Y-137140616D01*
X153484092Y-137140300D01*
X153349413Y-137139913D01*
X153229956Y-137139447D01*
X153124801Y-137138897D01*
X153033029Y-137138253D01*
X152953721Y-137137511D01*
X152885957Y-137136661D01*
X152828818Y-137135697D01*
X152781383Y-137134611D01*
X152742734Y-137133397D01*
X152711951Y-137132047D01*
X152688115Y-137130555D01*
X152670306Y-137128911D01*
X152657605Y-137127111D01*
X152649092Y-137125145D01*
X152644734Y-137123477D01*
X152636272Y-137119906D01*
X152628503Y-137117270D01*
X152621398Y-137114634D01*
X152614927Y-137111062D01*
X152609061Y-137105621D01*
X152603771Y-137097375D01*
X152599026Y-137085390D01*
X152594798Y-137068731D01*
X152591057Y-137046463D01*
X152587773Y-137017652D01*
X152584917Y-136981363D01*
X152582460Y-136936661D01*
X152580371Y-136882611D01*
X152578622Y-136818279D01*
X152577183Y-136742730D01*
X152576024Y-136655030D01*
X152575117Y-136554243D01*
X152574431Y-136439434D01*
X152573937Y-136309670D01*
X152573605Y-136164015D01*
X152573407Y-136001535D01*
X152573313Y-135821295D01*
X152573292Y-135622360D01*
X152573315Y-135403796D01*
X152573354Y-135164668D01*
X152573378Y-134904040D01*
X152573378Y-134861889D01*
X152573364Y-134598992D01*
X152573339Y-134357732D01*
X152573329Y-134137165D01*
X152573358Y-133936352D01*
X152573452Y-133754349D01*
X152573638Y-133590216D01*
X152573941Y-133443011D01*
X152574386Y-133311792D01*
X152574966Y-133201867D01*
X152877803Y-133201867D01*
X152917593Y-133259711D01*
X152928764Y-133275479D01*
X152938834Y-133289441D01*
X152947862Y-133302784D01*
X152955903Y-133316693D01*
X152963014Y-133332356D01*
X152969253Y-133350958D01*
X152974675Y-133373686D01*
X152979338Y-133401727D01*
X152983299Y-133436267D01*
X152986615Y-133478492D01*
X152989341Y-133529589D01*
X152991536Y-133590744D01*
X152993255Y-133663144D01*
X152994556Y-133747975D01*
X152995495Y-133846422D01*
X152996130Y-133959674D01*
X152996516Y-134088916D01*
X152996712Y-134235334D01*
X152996773Y-134400116D01*
X152996757Y-134584447D01*
X152996720Y-134789513D01*
X152996711Y-134912133D01*
X152996735Y-135129082D01*
X152996769Y-135324642D01*
X152996757Y-135499999D01*
X152996642Y-135656341D01*
X152996370Y-135794857D01*
X152995882Y-135916734D01*
X152995124Y-136023160D01*
X152994038Y-136115322D01*
X152992569Y-136194409D01*
X152990660Y-136261608D01*
X152988256Y-136318107D01*
X152985299Y-136365093D01*
X152981734Y-136403755D01*
X152977505Y-136435280D01*
X152972554Y-136460855D01*
X152966827Y-136481670D01*
X152960267Y-136498911D01*
X152952817Y-136513765D01*
X152944421Y-136527422D01*
X152935024Y-136541069D01*
X152924568Y-136555893D01*
X152918477Y-136564783D01*
X152879704Y-136622400D01*
X153411268Y-136622400D01*
X153534517Y-136622365D01*
X153637013Y-136622215D01*
X153720580Y-136621878D01*
X153787044Y-136621286D01*
X153838229Y-136620367D01*
X153875959Y-136619051D01*
X153902060Y-136617269D01*
X153918356Y-136614951D01*
X153926672Y-136612026D01*
X153928832Y-136608424D01*
X153926661Y-136604075D01*
X153925465Y-136602645D01*
X153900315Y-136565573D01*
X153874417Y-136512772D01*
X153850808Y-136450770D01*
X153842539Y-136424357D01*
X153837922Y-136406416D01*
X153834021Y-136385355D01*
X153830752Y-136359089D01*
X153828034Y-136325532D01*
X153825785Y-136282599D01*
X153823923Y-136228204D01*
X153822364Y-136160262D01*
X153821028Y-136076688D01*
X153819831Y-135975395D01*
X153818692Y-135854300D01*
X153818315Y-135809600D01*
X153817298Y-135684449D01*
X153816540Y-135580082D01*
X153816097Y-135494707D01*
X153816030Y-135426533D01*
X153816395Y-135373765D01*
X153817252Y-135334614D01*
X153818659Y-135307285D01*
X153820675Y-135289986D01*
X153823357Y-135280926D01*
X153826764Y-135278312D01*
X153830956Y-135280351D01*
X153835429Y-135284667D01*
X153845784Y-135297602D01*
X153867842Y-135326676D01*
X153900043Y-135369759D01*
X153940826Y-135424718D01*
X153988630Y-135489423D01*
X154041895Y-135561742D01*
X154099060Y-135639544D01*
X154158563Y-135720698D01*
X154218845Y-135803072D01*
X154278345Y-135884536D01*
X154335502Y-135962957D01*
X154388755Y-136036204D01*
X154436543Y-136102147D01*
X154477307Y-136158654D01*
X154509484Y-136203593D01*
X154531515Y-136234834D01*
X154536083Y-136241466D01*
X154559004Y-136278369D01*
X154585812Y-136326359D01*
X154611211Y-136375897D01*
X154614432Y-136382577D01*
X154636110Y-136430772D01*
X154648696Y-136468334D01*
X154654426Y-136504160D01*
X154655544Y-136546200D01*
X154654910Y-136622400D01*
X155809349Y-136622400D01*
X155718185Y-136528669D01*
X155671388Y-136478775D01*
X155621101Y-136422295D01*
X155575056Y-136368026D01*
X155554631Y-136342673D01*
X155524193Y-136303128D01*
X155484138Y-136249916D01*
X155435639Y-136184667D01*
X155379865Y-136109011D01*
X155317989Y-136024577D01*
X155251181Y-135932994D01*
X155180613Y-135835892D01*
X155107455Y-135734901D01*
X155032879Y-135631650D01*
X154958056Y-135527768D01*
X154884157Y-135424885D01*
X154812354Y-135324631D01*
X154743816Y-135228636D01*
X154679716Y-135138527D01*
X154621225Y-135055936D01*
X154569514Y-134982492D01*
X154525753Y-134919824D01*
X154491115Y-134869561D01*
X154466770Y-134833334D01*
X154453889Y-134812771D01*
X154452131Y-134808668D01*
X154460090Y-134797342D01*
X154480885Y-134770162D01*
X154513153Y-134728829D01*
X154555530Y-134675044D01*
X154606653Y-134610506D01*
X154665159Y-134536918D01*
X154729686Y-134455978D01*
X154798869Y-134369388D01*
X154871347Y-134278848D01*
X154945754Y-134186060D01*
X155005483Y-134111702D01*
X156016489Y-134111702D01*
X156022398Y-134124659D01*
X156036728Y-134146908D01*
X156037775Y-134148391D01*
X156056562Y-134178544D01*
X156076209Y-134215375D01*
X156080108Y-134223511D01*
X156083644Y-134231940D01*
X156086770Y-134242059D01*
X156089514Y-134255260D01*
X156091908Y-134272938D01*
X156093981Y-134296484D01*
X156095765Y-134327293D01*
X156097288Y-134366757D01*
X156098581Y-134416269D01*
X156099674Y-134477223D01*
X156100597Y-134551011D01*
X156101381Y-134639028D01*
X156102055Y-134742665D01*
X156102650Y-134863316D01*
X156103195Y-135002374D01*
X156103721Y-135161232D01*
X156104255Y-135340089D01*
X156104794Y-135525207D01*
X156105228Y-135689145D01*
X156105491Y-135833303D01*
X156105516Y-135959079D01*
X156105235Y-136067871D01*
X156104581Y-136161077D01*
X156103486Y-136240097D01*
X156101882Y-136306328D01*
X156099703Y-136361170D01*
X156096881Y-136406021D01*
X156093349Y-136442278D01*
X156089039Y-136471341D01*
X156083883Y-136494609D01*
X156077815Y-136513479D01*
X156070767Y-136529351D01*
X156062671Y-136543622D01*
X156053460Y-136557691D01*
X156044960Y-136570158D01*
X156027824Y-136596452D01*
X156017678Y-136614037D01*
X156016489Y-136617257D01*
X156027396Y-136618334D01*
X156058589Y-136619335D01*
X156107777Y-136620235D01*
X156172667Y-136621010D01*
X156250970Y-136621637D01*
X156340393Y-136622091D01*
X156438644Y-136622349D01*
X156507555Y-136622400D01*
X156612548Y-136622180D01*
X156709390Y-136621548D01*
X156795893Y-136620549D01*
X156869868Y-136619227D01*
X156929126Y-136617626D01*
X156971480Y-136615791D01*
X156994740Y-136613765D01*
X156998622Y-136612493D01*
X156990924Y-136597591D01*
X156982926Y-136589560D01*
X156969754Y-136572434D01*
X156952515Y-136542183D01*
X156940593Y-136517622D01*
X156913955Y-136458711D01*
X156910880Y-135281845D01*
X156907805Y-134104978D01*
X156462147Y-134104978D01*
X156364330Y-134105142D01*
X156273936Y-134105611D01*
X156193370Y-134106347D01*
X156125038Y-134107316D01*
X156071344Y-134108480D01*
X156034695Y-134109803D01*
X156017496Y-134111249D01*
X156016489Y-134111702D01*
X155005483Y-134111702D01*
X155020730Y-134092722D01*
X155094910Y-134000537D01*
X155166931Y-133911204D01*
X155235431Y-133826424D01*
X155299045Y-133747898D01*
X155356412Y-133677326D01*
X155406167Y-133616409D01*
X155446948Y-133566847D01*
X155464112Y-133546178D01*
X155550404Y-133445516D01*
X155627003Y-133362259D01*
X155695817Y-133294438D01*
X155758752Y-133240089D01*
X155768133Y-133232722D01*
X155807644Y-133202117D01*
X154675884Y-133201867D01*
X154681173Y-133249844D01*
X154677870Y-133307188D01*
X154656339Y-133375463D01*
X154616365Y-133455212D01*
X154571057Y-133527495D01*
X154554839Y-133550140D01*
X154526786Y-133587696D01*
X154488570Y-133638021D01*
X154441863Y-133698973D01*
X154388339Y-133768411D01*
X154329669Y-133844194D01*
X154267525Y-133924180D01*
X154203579Y-134006228D01*
X154139505Y-134088196D01*
X154076973Y-134167943D01*
X154017657Y-134243327D01*
X153963229Y-134312207D01*
X153915361Y-134372442D01*
X153875725Y-134421889D01*
X153845994Y-134458408D01*
X153827839Y-134479858D01*
X153824780Y-134483156D01*
X153821921Y-134475149D01*
X153819707Y-134444855D01*
X153818143Y-134392556D01*
X153817233Y-134318531D01*
X153816980Y-134223063D01*
X153817387Y-134106434D01*
X153818296Y-133986445D01*
X153819618Y-133854333D01*
X153821143Y-133742594D01*
X153823119Y-133649025D01*
X153825794Y-133571419D01*
X153829418Y-133507574D01*
X153834239Y-133455283D01*
X153840506Y-133412344D01*
X153848468Y-133376551D01*
X153858373Y-133345700D01*
X153870469Y-133317586D01*
X153885007Y-133290005D01*
X153899689Y-133264966D01*
X153937686Y-133201867D01*
X152877803Y-133201867D01*
X152574966Y-133201867D01*
X152574999Y-133195617D01*
X152575805Y-133093544D01*
X152576830Y-133004633D01*
X152578100Y-132927941D01*
X152579640Y-132862527D01*
X152581476Y-132807449D01*
X152583633Y-132761765D01*
X152586137Y-132724534D01*
X152589013Y-132694813D01*
X152592287Y-132671662D01*
X152595985Y-132654139D01*
X152600131Y-132641301D01*
X152604753Y-132632208D01*
X152609874Y-132625918D01*
X152615522Y-132621488D01*
X152621721Y-132617978D01*
X152628496Y-132614445D01*
X152634492Y-132610876D01*
X152639725Y-132608300D01*
X152647901Y-132605972D01*
X152660114Y-132603878D01*
X152677459Y-132602007D01*
X152701031Y-132600347D01*
X152731923Y-132598884D01*
X152771232Y-132597608D01*
X152820050Y-132596504D01*
X152879473Y-132595561D01*
X152950596Y-132594767D01*
X153034512Y-132594109D01*
X153132317Y-132593575D01*
X153245106Y-132593153D01*
X153373971Y-132592829D01*
X153520009Y-132592592D01*
X153684314Y-132592430D01*
X153867980Y-132592330D01*
X154072103Y-132592280D01*
X154283247Y-132592267D01*
X155903600Y-132592267D01*
X155903600Y-132689054D01*
D11*
X163676000Y-72784000D02*
X163676000Y-88024000D01*
X163676000Y-88024000D02*
X135736000Y-88024000D01*
X135736000Y-88024000D02*
X135736000Y-72784000D01*
X135736000Y-72784000D02*
X163676000Y-72784000D01*
X140816000Y-79134000D02*
X137006000Y-79134000D01*
X137006000Y-79134000D02*
X137006000Y-77864000D01*
X137006000Y-77864000D02*
X139546000Y-77864000D01*
X139546000Y-77864000D02*
X140816000Y-77864000D01*
X140816000Y-77864000D02*
X140816000Y-76594000D01*
X140816000Y-76594000D02*
X137006000Y-76594000D01*
X137006000Y-76594000D02*
X137006000Y-75324000D01*
X137006000Y-75324000D02*
X142086000Y-75324000D01*
X140816000Y-80404000D02*
X137006000Y-80404000D01*
X137006000Y-80404000D02*
X137006000Y-81674000D01*
X137006000Y-81674000D02*
X140816000Y-81674000D01*
X140816000Y-81674000D02*
X140816000Y-82944000D01*
X140816000Y-82944000D02*
X137006000Y-82944000D01*
X137006000Y-82944000D02*
X137006000Y-84214000D01*
X137006000Y-84214000D02*
X140816000Y-84214000D01*
X140816000Y-84214000D02*
X140816000Y-85484000D01*
X140816000Y-85484000D02*
X137006000Y-85484000D01*
X137006000Y-85484000D02*
X137006000Y-86754000D01*
X140816000Y-79134000D02*
X140816000Y-80404000D01*
X143356000Y-75324000D02*
X142086000Y-75324000D01*
X158180000Y-92870000D02*
X160720000Y-92870000D01*
X160720000Y-92870000D02*
X160720000Y-90200000D01*
X158180000Y-90200000D02*
X119950000Y-90200000D01*
X163390000Y-90200000D02*
X160720000Y-90200000D01*
X160720000Y-105570000D02*
X160720000Y-108240000D01*
X160720000Y-105570000D02*
X122620000Y-105570000D01*
X122620000Y-105570000D02*
X122620000Y-108240000D01*
X158180000Y-92870000D02*
X158180000Y-90200000D01*
X158180000Y-92870000D02*
X122620000Y-92870000D01*
X122620000Y-92870000D02*
X122620000Y-90200000D01*
X119950000Y-90200000D02*
X119950000Y-108240000D01*
X119950000Y-108240000D02*
X163390000Y-108240000D01*
X163390000Y-108240000D02*
X163390000Y-90200000D01*
X135615000Y-114495000D02*
G75*
G03X135615000Y-114495000I-4120000J0D01*
G01*
X127415000Y-114495000D02*
X135575000Y-114495000D01*
X127415000Y-114455000D02*
X135575000Y-114455000D01*
X127415000Y-114415000D02*
X135575000Y-114415000D01*
X127416000Y-114375000D02*
X135574000Y-114375000D01*
X127418000Y-114335000D02*
X135572000Y-114335000D01*
X127419000Y-114295000D02*
X135571000Y-114295000D01*
X127421000Y-114255000D02*
X135569000Y-114255000D01*
X127424000Y-114215000D02*
X135566000Y-114215000D01*
X127427000Y-114175000D02*
X135563000Y-114175000D01*
X127430000Y-114135000D02*
X135560000Y-114135000D01*
X127434000Y-114095000D02*
X135556000Y-114095000D01*
X127438000Y-114055000D02*
X135552000Y-114055000D01*
X127443000Y-114015000D02*
X135547000Y-114015000D01*
X127447000Y-113975000D02*
X135543000Y-113975000D01*
X127453000Y-113935000D02*
X135537000Y-113935000D01*
X127458000Y-113895000D02*
X135532000Y-113895000D01*
X127465000Y-113855000D02*
X135525000Y-113855000D01*
X127471000Y-113815000D02*
X135519000Y-113815000D01*
X127478000Y-113774000D02*
X130455000Y-113774000D01*
X132535000Y-113774000D02*
X135512000Y-113774000D01*
X127485000Y-113734000D02*
X130455000Y-113734000D01*
X132535000Y-113734000D02*
X135505000Y-113734000D01*
X127493000Y-113694000D02*
X130455000Y-113694000D01*
X132535000Y-113694000D02*
X135497000Y-113694000D01*
X127501000Y-113654000D02*
X130455000Y-113654000D01*
X132535000Y-113654000D02*
X135489000Y-113654000D01*
X127510000Y-113614000D02*
X130455000Y-113614000D01*
X132535000Y-113614000D02*
X135480000Y-113614000D01*
X127519000Y-113574000D02*
X130455000Y-113574000D01*
X132535000Y-113574000D02*
X135471000Y-113574000D01*
X127528000Y-113534000D02*
X130455000Y-113534000D01*
X132535000Y-113534000D02*
X135462000Y-113534000D01*
X127538000Y-113494000D02*
X130455000Y-113494000D01*
X132535000Y-113494000D02*
X135452000Y-113494000D01*
X127548000Y-113454000D02*
X130455000Y-113454000D01*
X132535000Y-113454000D02*
X135442000Y-113454000D01*
X127559000Y-113414000D02*
X130455000Y-113414000D01*
X132535000Y-113414000D02*
X135431000Y-113414000D01*
X127570000Y-113374000D02*
X130455000Y-113374000D01*
X132535000Y-113374000D02*
X135420000Y-113374000D01*
X127581000Y-113334000D02*
X130455000Y-113334000D01*
X132535000Y-113334000D02*
X135409000Y-113334000D01*
X127593000Y-113294000D02*
X130455000Y-113294000D01*
X132535000Y-113294000D02*
X135397000Y-113294000D01*
X127606000Y-113254000D02*
X130455000Y-113254000D01*
X132535000Y-113254000D02*
X135384000Y-113254000D01*
X127618000Y-113214000D02*
X130455000Y-113214000D01*
X132535000Y-113214000D02*
X135372000Y-113214000D01*
X127632000Y-113174000D02*
X130455000Y-113174000D01*
X132535000Y-113174000D02*
X135358000Y-113174000D01*
X127645000Y-113134000D02*
X130455000Y-113134000D01*
X132535000Y-113134000D02*
X135345000Y-113134000D01*
X127660000Y-113094000D02*
X130455000Y-113094000D01*
X132535000Y-113094000D02*
X135330000Y-113094000D01*
X127674000Y-113054000D02*
X130455000Y-113054000D01*
X132535000Y-113054000D02*
X135316000Y-113054000D01*
X127690000Y-113014000D02*
X130455000Y-113014000D01*
X132535000Y-113014000D02*
X135300000Y-113014000D01*
X127705000Y-112974000D02*
X130455000Y-112974000D01*
X132535000Y-112974000D02*
X135285000Y-112974000D01*
X127721000Y-112934000D02*
X130455000Y-112934000D01*
X132535000Y-112934000D02*
X135269000Y-112934000D01*
X127738000Y-112894000D02*
X130455000Y-112894000D01*
X132535000Y-112894000D02*
X135252000Y-112894000D01*
X127755000Y-112854000D02*
X130455000Y-112854000D01*
X132535000Y-112854000D02*
X135235000Y-112854000D01*
X127773000Y-112814000D02*
X130455000Y-112814000D01*
X132535000Y-112814000D02*
X135217000Y-112814000D01*
X127791000Y-112774000D02*
X130455000Y-112774000D01*
X132535000Y-112774000D02*
X135199000Y-112774000D01*
X127809000Y-112734000D02*
X130455000Y-112734000D01*
X132535000Y-112734000D02*
X135181000Y-112734000D01*
X127829000Y-112694000D02*
X130455000Y-112694000D01*
X132535000Y-112694000D02*
X135161000Y-112694000D01*
X127848000Y-112654000D02*
X130455000Y-112654000D01*
X132535000Y-112654000D02*
X135142000Y-112654000D01*
X127868000Y-112614000D02*
X130455000Y-112614000D01*
X132535000Y-112614000D02*
X135122000Y-112614000D01*
X127889000Y-112574000D02*
X130455000Y-112574000D01*
X132535000Y-112574000D02*
X135101000Y-112574000D01*
X127911000Y-112534000D02*
X130455000Y-112534000D01*
X132535000Y-112534000D02*
X135079000Y-112534000D01*
X127933000Y-112494000D02*
X130455000Y-112494000D01*
X132535000Y-112494000D02*
X135057000Y-112494000D01*
X127955000Y-112454000D02*
X130455000Y-112454000D01*
X132535000Y-112454000D02*
X135035000Y-112454000D01*
X127978000Y-112414000D02*
X130455000Y-112414000D01*
X132535000Y-112414000D02*
X135012000Y-112414000D01*
X128002000Y-112374000D02*
X130455000Y-112374000D01*
X132535000Y-112374000D02*
X134988000Y-112374000D01*
X128026000Y-112334000D02*
X130455000Y-112334000D01*
X132535000Y-112334000D02*
X134964000Y-112334000D01*
X128051000Y-112294000D02*
X130455000Y-112294000D01*
X132535000Y-112294000D02*
X134939000Y-112294000D01*
X128077000Y-112254000D02*
X130455000Y-112254000D01*
X132535000Y-112254000D02*
X134913000Y-112254000D01*
X128103000Y-112214000D02*
X130455000Y-112214000D01*
X132535000Y-112214000D02*
X134887000Y-112214000D01*
X128130000Y-112174000D02*
X130455000Y-112174000D01*
X132535000Y-112174000D02*
X134860000Y-112174000D01*
X128157000Y-112134000D02*
X130455000Y-112134000D01*
X132535000Y-112134000D02*
X134833000Y-112134000D01*
X128186000Y-112094000D02*
X130455000Y-112094000D01*
X132535000Y-112094000D02*
X134804000Y-112094000D01*
X128215000Y-112054000D02*
X130455000Y-112054000D01*
X132535000Y-112054000D02*
X134775000Y-112054000D01*
X128245000Y-112014000D02*
X130455000Y-112014000D01*
X132535000Y-112014000D02*
X134745000Y-112014000D01*
X128275000Y-111974000D02*
X130455000Y-111974000D01*
X132535000Y-111974000D02*
X134715000Y-111974000D01*
X128306000Y-111934000D02*
X130455000Y-111934000D01*
X132535000Y-111934000D02*
X134684000Y-111934000D01*
X128339000Y-111894000D02*
X130455000Y-111894000D01*
X132535000Y-111894000D02*
X134651000Y-111894000D01*
X128371000Y-111854000D02*
X130455000Y-111854000D01*
X132535000Y-111854000D02*
X134619000Y-111854000D01*
X128405000Y-111814000D02*
X130455000Y-111814000D01*
X132535000Y-111814000D02*
X134585000Y-111814000D01*
X128440000Y-111774000D02*
X130455000Y-111774000D01*
X132535000Y-111774000D02*
X134550000Y-111774000D01*
X128476000Y-111734000D02*
X130455000Y-111734000D01*
X132535000Y-111734000D02*
X134514000Y-111734000D01*
X128512000Y-111694000D02*
X134478000Y-111694000D01*
X128550000Y-111654000D02*
X134440000Y-111654000D01*
X128588000Y-111614000D02*
X134402000Y-111614000D01*
X128628000Y-111574000D02*
X134362000Y-111574000D01*
X128669000Y-111534000D02*
X134321000Y-111534000D01*
X128711000Y-111494000D02*
X134279000Y-111494000D01*
X128754000Y-111454000D02*
X134236000Y-111454000D01*
X128798000Y-111414000D02*
X134192000Y-111414000D01*
X128844000Y-111374000D02*
X134146000Y-111374000D01*
X128891000Y-111334000D02*
X134099000Y-111334000D01*
X128939000Y-111294000D02*
X134051000Y-111294000D01*
X128990000Y-111254000D02*
X134000000Y-111254000D01*
X129041000Y-111214000D02*
X133949000Y-111214000D01*
X129095000Y-111174000D02*
X133895000Y-111174000D01*
X129150000Y-111134000D02*
X133840000Y-111134000D01*
X129208000Y-111094000D02*
X133782000Y-111094000D01*
X129267000Y-111054000D02*
X133723000Y-111054000D01*
X129329000Y-111014000D02*
X133661000Y-111014000D01*
X129393000Y-110974000D02*
X133597000Y-110974000D01*
X129461000Y-110934000D02*
X133529000Y-110934000D01*
X129531000Y-110894000D02*
X133459000Y-110894000D01*
X129605000Y-110854000D02*
X133385000Y-110854000D01*
X129682000Y-110814000D02*
X133308000Y-110814000D01*
X129764000Y-110774000D02*
X133226000Y-110774000D01*
X129850000Y-110734000D02*
X133140000Y-110734000D01*
X129943000Y-110694000D02*
X133047000Y-110694000D01*
X130042000Y-110654000D02*
X132948000Y-110654000D01*
X130149000Y-110614000D02*
X132841000Y-110614000D01*
X130266000Y-110574000D02*
X132724000Y-110574000D01*
X130397000Y-110534000D02*
X132593000Y-110534000D01*
X130547000Y-110494000D02*
X132443000Y-110494000D01*
X130727000Y-110454000D02*
X132263000Y-110454000D01*
X130962000Y-110414000D02*
X132028000Y-110414000D01*
X129180000Y-118904698D02*
X129180000Y-118104698D01*
X128780000Y-118504698D02*
X129580000Y-118504698D01*
X132788000Y-102606000D02*
X130048000Y-102606000D01*
X132788000Y-95366000D02*
X130048000Y-95366000D01*
X130048000Y-95366000D02*
X130048000Y-102606000D01*
X132788000Y-95366000D02*
X132788000Y-102606000D01*
X150368000Y-102606000D02*
X150368000Y-95366000D01*
X153108000Y-102606000D02*
X153108000Y-95366000D01*
X150368000Y-102606000D02*
X153108000Y-102606000D01*
X150368000Y-95366000D02*
X153108000Y-95366000D01*
X172162000Y-126036000D02*
X169922000Y-126036000D01*
X169922000Y-126036000D02*
X169922000Y-130276000D01*
X169922000Y-130276000D02*
X172162000Y-130276000D01*
X172162000Y-130276000D02*
X172162000Y-126036000D01*
X171042000Y-125386000D02*
X171042000Y-126036000D01*
X171042000Y-130926000D02*
X171042000Y-130276000D01*
X172162000Y-126756000D02*
X169922000Y-126756000D01*
X172162000Y-126876000D02*
X169922000Y-126876000D01*
X172162000Y-126636000D02*
X169922000Y-126636000D01*
X152682665Y-64618608D02*
G75*
G03X155915000Y-64775516I1672335J1078608D01*
G01*
X152682665Y-62461392D02*
G75*
G02X155915000Y-62304484I1672335J-1078608D01*
G01*
X153313870Y-64619837D02*
G75*
G03X155395961Y-64620000I1041130J1079837D01*
G01*
X153313870Y-62460163D02*
G75*
G02X155395961Y-62460000I1041130J-1079837D01*
G01*
X155915000Y-64776000D02*
X155915000Y-64620000D01*
X155915000Y-62460000D02*
X155915000Y-62304000D01*
X165440000Y-62460000D02*
X165440000Y-62304000D01*
X165440000Y-64776000D02*
X165440000Y-64620000D01*
X162838870Y-62460163D02*
G75*
G02X164920961Y-62460000I1041130J-1079837D01*
G01*
X162838870Y-64619837D02*
G75*
G03X164920961Y-64620000I1041130J1079837D01*
G01*
X162207665Y-62461392D02*
G75*
G02X165440000Y-62304484I1672335J-1078608D01*
G01*
X162207665Y-64618608D02*
G75*
G03X165440000Y-64775516I1672335J1078608D01*
G01*
X141215000Y-121395000D02*
X145235000Y-121395000D01*
X145235000Y-121395000D02*
X145235000Y-111175000D01*
X145235000Y-111175000D02*
X141215000Y-111175000D01*
X141215000Y-111175000D02*
X141215000Y-121395000D01*
X142925000Y-121395000D02*
X142925000Y-120895000D01*
X142925000Y-120895000D02*
X141715000Y-120895000D01*
X141715000Y-120895000D02*
X141715000Y-111675000D01*
X141715000Y-111675000D02*
X142925000Y-111675000D01*
X142925000Y-111675000D02*
X142925000Y-111175000D01*
X143735000Y-121395000D02*
X143735000Y-120395000D01*
X143735000Y-120395000D02*
X145235000Y-120395000D01*
X143735000Y-111175000D02*
X143735000Y-112175000D01*
X143735000Y-112175000D02*
X145235000Y-112175000D01*
X143035000Y-121695000D02*
X145535000Y-121695000D01*
X145535000Y-121695000D02*
X145535000Y-119195000D01*
X149895000Y-68970000D02*
X149895000Y-70810000D01*
X149895000Y-70810000D02*
X153735000Y-70810000D01*
X153735000Y-70810000D02*
X153735000Y-68970000D01*
X153735000Y-68970000D02*
X149895000Y-68970000D01*
X148945000Y-69890000D02*
X149895000Y-69890000D01*
X154685000Y-69890000D02*
X153735000Y-69890000D01*
X169290000Y-69890000D02*
X168340000Y-69890000D01*
X163550000Y-69890000D02*
X164500000Y-69890000D01*
X168340000Y-68970000D02*
X164500000Y-68970000D01*
X168340000Y-70810000D02*
X168340000Y-68970000D01*
X164500000Y-70810000D02*
X168340000Y-70810000D01*
X164500000Y-68970000D02*
X164500000Y-70810000D01*
X156310000Y-115844000D02*
X156310000Y-113304000D01*
X158850000Y-115844000D02*
X158850000Y-113304000D01*
X161390000Y-115844000D02*
X161390000Y-113304000D01*
X153730000Y-131734000D02*
X153730000Y-115844000D01*
X163970000Y-131734000D02*
X163970000Y-115844000D01*
X163970000Y-131734000D02*
X153730000Y-131734000D01*
X163970000Y-115844000D02*
X153730000Y-115844000D01*
X141215000Y-132190000D02*
X145235000Y-132190000D01*
X145235000Y-132190000D02*
X145235000Y-124470000D01*
X145235000Y-124470000D02*
X141215000Y-124470000D01*
X141215000Y-124470000D02*
X141215000Y-132190000D01*
X142925000Y-132190000D02*
X142925000Y-131690000D01*
X142925000Y-131690000D02*
X141715000Y-131690000D01*
X141715000Y-131690000D02*
X141715000Y-124970000D01*
X141715000Y-124970000D02*
X142925000Y-124970000D01*
X142925000Y-124970000D02*
X142925000Y-124470000D01*
X143735000Y-132190000D02*
X143735000Y-131190000D01*
X143735000Y-131190000D02*
X145235000Y-131190000D01*
X143735000Y-124470000D02*
X143735000Y-125470000D01*
X143735000Y-125470000D02*
X145235000Y-125470000D01*
X143035000Y-132490000D02*
X145535000Y-132490000D01*
X145535000Y-132490000D02*
X145535000Y-129990000D01*
X175290000Y-122960000D02*
X175290000Y-125460000D01*
X177790000Y-122960000D02*
X175290000Y-122960000D01*
X177090000Y-129980000D02*
X175590000Y-129980000D01*
X177090000Y-130980000D02*
X177090000Y-129980000D01*
X177090000Y-124260000D02*
X175590000Y-124260000D01*
X177090000Y-123260000D02*
X177090000Y-124260000D01*
X177900000Y-130480000D02*
X177900000Y-130980000D01*
X179110000Y-130480000D02*
X177900000Y-130480000D01*
X179110000Y-123760000D02*
X179110000Y-130480000D01*
X177900000Y-123760000D02*
X179110000Y-123760000D01*
X177900000Y-123260000D02*
X177900000Y-123760000D01*
X179610000Y-130980000D02*
X179610000Y-123260000D01*
X175590000Y-130980000D02*
X179610000Y-130980000D01*
X175590000Y-123260000D02*
X175590000Y-130980000D01*
X179610000Y-123260000D02*
X175590000Y-123260000D01*
X179755000Y-76240000D02*
X189915000Y-76240000D01*
X189915000Y-76240000D02*
X189915000Y-121960000D01*
X189915000Y-121960000D02*
X169595000Y-121960000D01*
X169595000Y-121960000D02*
X169595000Y-77510000D01*
X169595000Y-77510000D02*
X169595000Y-76240000D01*
X169595000Y-76240000D02*
X179755000Y-76240000D01*
X183980000Y-109080000D02*
X187720000Y-109080000D01*
X183980000Y-116320000D02*
X187720000Y-116320000D01*
X187720000Y-116320000D02*
X187720000Y-109080000D01*
X183980000Y-116320000D02*
X183980000Y-109080000D01*
X176980000Y-116320000D02*
X176980000Y-109080000D01*
X180720000Y-116320000D02*
X180720000Y-109080000D01*
X176980000Y-116320000D02*
X180720000Y-116320000D01*
X176980000Y-109080000D02*
X180720000Y-109080000D01*
X177832000Y-66364000D02*
X173812000Y-66364000D01*
X173812000Y-66364000D02*
X173812000Y-74084000D01*
X173812000Y-74084000D02*
X177832000Y-74084000D01*
X177832000Y-74084000D02*
X177832000Y-66364000D01*
X176122000Y-66364000D02*
X176122000Y-66864000D01*
X176122000Y-66864000D02*
X177332000Y-66864000D01*
X177332000Y-66864000D02*
X177332000Y-73584000D01*
X177332000Y-73584000D02*
X176122000Y-73584000D01*
X176122000Y-73584000D02*
X176122000Y-74084000D01*
X175312000Y-66364000D02*
X175312000Y-67364000D01*
X175312000Y-67364000D02*
X173812000Y-67364000D01*
X175312000Y-74084000D02*
X175312000Y-73084000D01*
X175312000Y-73084000D02*
X173812000Y-73084000D01*
X176012000Y-66064000D02*
X173512000Y-66064000D01*
X173512000Y-66064000D02*
X173512000Y-68564000D01*
X175240000Y-93980000D02*
X175240000Y-104220000D01*
X191130000Y-93980000D02*
X191130000Y-104220000D01*
X191130000Y-93980000D02*
X175240000Y-93980000D01*
X191130000Y-104220000D02*
X175240000Y-104220000D01*
X175240000Y-96560000D02*
X172700000Y-96560000D01*
X175240000Y-99100000D02*
X172700000Y-99100000D01*
X175240000Y-101640000D02*
X172700000Y-101640000D01*
X169980000Y-116320000D02*
X169980000Y-109080000D01*
X173720000Y-116320000D02*
X173720000Y-109080000D01*
X169980000Y-116320000D02*
X173720000Y-116320000D01*
X169980000Y-109080000D02*
X173720000Y-109080000D01*
D10*
X149809238Y-83380571D02*
X149952095Y-83428190D01*
X149999714Y-83475809D01*
X150047333Y-83571047D01*
X150047333Y-83713904D01*
X149999714Y-83809142D01*
X149952095Y-83856761D01*
X149856857Y-83904380D01*
X149475904Y-83904380D01*
X149475904Y-82904380D01*
X149809238Y-82904380D01*
X149904476Y-82952000D01*
X149952095Y-82999619D01*
X149999714Y-83094857D01*
X149999714Y-83190095D01*
X149952095Y-83285333D01*
X149904476Y-83332952D01*
X149809238Y-83380571D01*
X149475904Y-83380571D01*
X150999714Y-83904380D02*
X150428285Y-83904380D01*
X150714000Y-83904380D02*
X150714000Y-82904380D01*
X150618761Y-83047238D01*
X150523523Y-83142476D01*
X150428285Y-83190095D01*
X147856857Y-85682380D02*
X147856857Y-84682380D01*
X147856857Y-85158571D02*
X148428285Y-85158571D01*
X148428285Y-85682380D02*
X148428285Y-84682380D01*
X149475904Y-85587142D02*
X149428285Y-85634761D01*
X149285428Y-85682380D01*
X149190190Y-85682380D01*
X149047333Y-85634761D01*
X148952095Y-85539523D01*
X148904476Y-85444285D01*
X148856857Y-85253809D01*
X148856857Y-85110952D01*
X148904476Y-84920476D01*
X148952095Y-84825238D01*
X149047333Y-84730000D01*
X149190190Y-84682380D01*
X149285428Y-84682380D01*
X149428285Y-84730000D01*
X149475904Y-84777619D01*
X149904476Y-85301428D02*
X150666380Y-85301428D01*
X151333047Y-84682380D02*
X151428285Y-84682380D01*
X151523523Y-84730000D01*
X151571142Y-84777619D01*
X151618761Y-84872857D01*
X151666380Y-85063333D01*
X151666380Y-85301428D01*
X151618761Y-85491904D01*
X151571142Y-85587142D01*
X151523523Y-85634761D01*
X151428285Y-85682380D01*
X151333047Y-85682380D01*
X151237809Y-85634761D01*
X151190190Y-85587142D01*
X151142571Y-85491904D01*
X151094952Y-85301428D01*
X151094952Y-85063333D01*
X151142571Y-84872857D01*
X151190190Y-84777619D01*
X151237809Y-84730000D01*
X151333047Y-84682380D01*
X152523523Y-84682380D02*
X152333047Y-84682380D01*
X152237809Y-84730000D01*
X152190190Y-84777619D01*
X152094952Y-84920476D01*
X152047333Y-85110952D01*
X152047333Y-85491904D01*
X152094952Y-85587142D01*
X152142571Y-85634761D01*
X152237809Y-85682380D01*
X152428285Y-85682380D01*
X152523523Y-85634761D01*
X152571142Y-85587142D01*
X152618761Y-85491904D01*
X152618761Y-85253809D01*
X152571142Y-85158571D01*
X152523523Y-85110952D01*
X152428285Y-85063333D01*
X152237809Y-85063333D01*
X152142571Y-85110952D01*
X152094952Y-85158571D01*
X152047333Y-85253809D01*
X158276595Y-76046380D02*
X158609928Y-77046380D01*
X158943261Y-76046380D01*
X159848023Y-76951142D02*
X159800404Y-76998761D01*
X159657547Y-77046380D01*
X159562309Y-77046380D01*
X159419452Y-76998761D01*
X159324214Y-76903523D01*
X159276595Y-76808285D01*
X159228976Y-76617809D01*
X159228976Y-76474952D01*
X159276595Y-76284476D01*
X159324214Y-76189238D01*
X159419452Y-76094000D01*
X159562309Y-76046380D01*
X159657547Y-76046380D01*
X159800404Y-76094000D01*
X159848023Y-76141619D01*
X160848023Y-76951142D02*
X160800404Y-76998761D01*
X160657547Y-77046380D01*
X160562309Y-77046380D01*
X160419452Y-76998761D01*
X160324214Y-76903523D01*
X160276595Y-76808285D01*
X160228976Y-76617809D01*
X160228976Y-76474952D01*
X160276595Y-76284476D01*
X160324214Y-76189238D01*
X160419452Y-76094000D01*
X160562309Y-76046380D01*
X160657547Y-76046380D01*
X160800404Y-76094000D01*
X160848023Y-76141619D01*
X158752785Y-78634000D02*
X158657547Y-78586380D01*
X158514690Y-78586380D01*
X158371833Y-78634000D01*
X158276595Y-78729238D01*
X158228976Y-78824476D01*
X158181357Y-79014952D01*
X158181357Y-79157809D01*
X158228976Y-79348285D01*
X158276595Y-79443523D01*
X158371833Y-79538761D01*
X158514690Y-79586380D01*
X158609928Y-79586380D01*
X158752785Y-79538761D01*
X158800404Y-79491142D01*
X158800404Y-79157809D01*
X158609928Y-79157809D01*
X159228976Y-79586380D02*
X159228976Y-78586380D01*
X159800404Y-79586380D01*
X159800404Y-78586380D01*
X160276595Y-79586380D02*
X160276595Y-78586380D01*
X160514690Y-78586380D01*
X160657547Y-78634000D01*
X160752785Y-78729238D01*
X160800404Y-78824476D01*
X160848023Y-79014952D01*
X160848023Y-79157809D01*
X160800404Y-79348285D01*
X160752785Y-79443523D01*
X160657547Y-79538761D01*
X160514690Y-79586380D01*
X160276595Y-79586380D01*
X158419452Y-81126380D02*
X158990880Y-81126380D01*
X158705166Y-82126380D02*
X158705166Y-81126380D01*
X159228976Y-81126380D02*
X159895642Y-82126380D01*
X159895642Y-81126380D02*
X159228976Y-82126380D01*
X160276595Y-82126380D02*
X160276595Y-81126380D01*
X160514690Y-81126380D01*
X160657547Y-81174000D01*
X160752785Y-81269238D01*
X160800404Y-81364476D01*
X160848023Y-81554952D01*
X160848023Y-81697809D01*
X160800404Y-81888285D01*
X160752785Y-81983523D01*
X160657547Y-82078761D01*
X160514690Y-82126380D01*
X160276595Y-82126380D01*
X158895642Y-84666380D02*
X158562309Y-84190190D01*
X158324214Y-84666380D02*
X158324214Y-83666380D01*
X158705166Y-83666380D01*
X158800404Y-83714000D01*
X158848023Y-83761619D01*
X158895642Y-83856857D01*
X158895642Y-83999714D01*
X158848023Y-84094952D01*
X158800404Y-84142571D01*
X158705166Y-84190190D01*
X158324214Y-84190190D01*
X159228976Y-83666380D02*
X159895642Y-84666380D01*
X159895642Y-83666380D02*
X159228976Y-84666380D01*
X160276595Y-84666380D02*
X160276595Y-83666380D01*
X160514690Y-83666380D01*
X160657547Y-83714000D01*
X160752785Y-83809238D01*
X160800404Y-83904476D01*
X160848023Y-84094952D01*
X160848023Y-84237809D01*
X160800404Y-84428285D01*
X160752785Y-84523523D01*
X160657547Y-84618761D01*
X160514690Y-84666380D01*
X160276595Y-84666380D01*
X162016666Y-99914285D02*
X162016666Y-99438095D01*
X162302380Y-100009523D02*
X161302380Y-99676190D01*
X162302380Y-99342857D01*
X162302380Y-98485714D02*
X162302380Y-99057142D01*
X162302380Y-98771428D02*
X161302380Y-98771428D01*
X161445238Y-98866666D01*
X161540476Y-98961904D01*
X161588095Y-99057142D01*
X135320761Y-104466666D02*
X135796952Y-104466666D01*
X135225523Y-104752380D02*
X135558857Y-103752380D01*
X135892190Y-104752380D01*
X136225523Y-104752380D02*
X136225523Y-104085714D01*
X136225523Y-104276190D02*
X136273142Y-104180952D01*
X136320761Y-104133333D01*
X136416000Y-104085714D01*
X136511238Y-104085714D01*
X137273142Y-104752380D02*
X137273142Y-103752380D01*
X137273142Y-104704761D02*
X137177904Y-104752380D01*
X136987428Y-104752380D01*
X136892190Y-104704761D01*
X136844571Y-104657142D01*
X136796952Y-104561904D01*
X136796952Y-104276190D01*
X136844571Y-104180952D01*
X136892190Y-104133333D01*
X136987428Y-104085714D01*
X137177904Y-104085714D01*
X137273142Y-104133333D01*
X138177904Y-104085714D02*
X138177904Y-104752380D01*
X137749333Y-104085714D02*
X137749333Y-104609523D01*
X137796952Y-104704761D01*
X137892190Y-104752380D01*
X138035047Y-104752380D01*
X138130285Y-104704761D01*
X138177904Y-104657142D01*
X138654095Y-104752380D02*
X138654095Y-104085714D01*
X138654095Y-103752380D02*
X138606476Y-103800000D01*
X138654095Y-103847619D01*
X138701714Y-103800000D01*
X138654095Y-103752380D01*
X138654095Y-103847619D01*
X139130285Y-104085714D02*
X139130285Y-104752380D01*
X139130285Y-104180952D02*
X139177904Y-104133333D01*
X139273142Y-104085714D01*
X139416000Y-104085714D01*
X139511238Y-104133333D01*
X139558857Y-104228571D01*
X139558857Y-104752380D01*
X140177904Y-104752380D02*
X140082666Y-104704761D01*
X140035047Y-104657142D01*
X139987428Y-104561904D01*
X139987428Y-104276190D01*
X140035047Y-104180952D01*
X140082666Y-104133333D01*
X140177904Y-104085714D01*
X140320761Y-104085714D01*
X140416000Y-104133333D01*
X140463619Y-104180952D01*
X140511238Y-104276190D01*
X140511238Y-104561904D01*
X140463619Y-104657142D01*
X140416000Y-104704761D01*
X140320761Y-104752380D01*
X140177904Y-104752380D01*
X140701714Y-104847619D02*
X141463619Y-104847619D01*
X141701714Y-104752380D02*
X141701714Y-103752380D01*
X142273142Y-104752380D01*
X142273142Y-103752380D01*
X143177904Y-104752380D02*
X143177904Y-104228571D01*
X143130285Y-104133333D01*
X143035047Y-104085714D01*
X142844571Y-104085714D01*
X142749333Y-104133333D01*
X143177904Y-104704761D02*
X143082666Y-104752380D01*
X142844571Y-104752380D01*
X142749333Y-104704761D01*
X142701714Y-104609523D01*
X142701714Y-104514285D01*
X142749333Y-104419047D01*
X142844571Y-104371428D01*
X143082666Y-104371428D01*
X143177904Y-104323809D01*
X143654095Y-104085714D02*
X143654095Y-104752380D01*
X143654095Y-104180952D02*
X143701714Y-104133333D01*
X143796952Y-104085714D01*
X143939809Y-104085714D01*
X144035047Y-104133333D01*
X144082666Y-104228571D01*
X144082666Y-104752380D01*
X144701714Y-104752380D02*
X144606476Y-104704761D01*
X144558857Y-104657142D01*
X144511238Y-104561904D01*
X144511238Y-104276190D01*
X144558857Y-104180952D01*
X144606476Y-104133333D01*
X144701714Y-104085714D01*
X144844571Y-104085714D01*
X144939809Y-104133333D01*
X144987428Y-104180952D01*
X145035047Y-104276190D01*
X145035047Y-104561904D01*
X144987428Y-104657142D01*
X144939809Y-104704761D01*
X144844571Y-104752380D01*
X144701714Y-104752380D01*
X145225523Y-104847619D02*
X145987428Y-104847619D01*
X146130285Y-104085714D02*
X146368380Y-104752380D01*
X146606476Y-104085714D01*
X146939809Y-103847619D02*
X146987428Y-103800000D01*
X147082666Y-103752380D01*
X147320761Y-103752380D01*
X147416000Y-103800000D01*
X147463619Y-103847619D01*
X147511238Y-103942857D01*
X147511238Y-104038095D01*
X147463619Y-104180952D01*
X146892190Y-104752380D01*
X147511238Y-104752380D01*
X126602142Y-114661666D02*
X126649761Y-114709285D01*
X126697380Y-114852142D01*
X126697380Y-114947380D01*
X126649761Y-115090238D01*
X126554523Y-115185476D01*
X126459285Y-115233095D01*
X126268809Y-115280714D01*
X126125952Y-115280714D01*
X125935476Y-115233095D01*
X125840238Y-115185476D01*
X125745000Y-115090238D01*
X125697380Y-114947380D01*
X125697380Y-114852142D01*
X125745000Y-114709285D01*
X125792619Y-114661666D01*
X126697380Y-113709285D02*
X126697380Y-114280714D01*
X126697380Y-113995000D02*
X125697380Y-113995000D01*
X125840238Y-114090238D01*
X125935476Y-114185476D01*
X125983095Y-114280714D01*
X137197380Y-116518809D02*
X137197380Y-117090238D01*
X137197380Y-116804523D02*
X136197380Y-116804523D01*
X136340238Y-116899761D01*
X136435476Y-116995000D01*
X136483095Y-117090238D01*
X136197380Y-115899761D02*
X136197380Y-115804523D01*
X136245000Y-115709285D01*
X136292619Y-115661666D01*
X136387857Y-115614047D01*
X136578333Y-115566428D01*
X136816428Y-115566428D01*
X137006904Y-115614047D01*
X137102142Y-115661666D01*
X137149761Y-115709285D01*
X137197380Y-115804523D01*
X137197380Y-115899761D01*
X137149761Y-115995000D01*
X137102142Y-116042619D01*
X137006904Y-116090238D01*
X136816428Y-116137857D01*
X136578333Y-116137857D01*
X136387857Y-116090238D01*
X136292619Y-116042619D01*
X136245000Y-115995000D01*
X136197380Y-115899761D01*
X136197380Y-114947380D02*
X136197380Y-114852142D01*
X136245000Y-114756904D01*
X136292619Y-114709285D01*
X136387857Y-114661666D01*
X136578333Y-114614047D01*
X136816428Y-114614047D01*
X137006904Y-114661666D01*
X137102142Y-114709285D01*
X137149761Y-114756904D01*
X137197380Y-114852142D01*
X137197380Y-114947380D01*
X137149761Y-115042619D01*
X137102142Y-115090238D01*
X137006904Y-115137857D01*
X136816428Y-115185476D01*
X136578333Y-115185476D01*
X136387857Y-115137857D01*
X136292619Y-115090238D01*
X136245000Y-115042619D01*
X136197380Y-114947380D01*
X136197380Y-113995000D02*
X136197380Y-113899761D01*
X136245000Y-113804523D01*
X136292619Y-113756904D01*
X136387857Y-113709285D01*
X136578333Y-113661666D01*
X136816428Y-113661666D01*
X137006904Y-113709285D01*
X137102142Y-113756904D01*
X137149761Y-113804523D01*
X137197380Y-113899761D01*
X137197380Y-113995000D01*
X137149761Y-114090238D01*
X137102142Y-114137857D01*
X137006904Y-114185476D01*
X136816428Y-114233095D01*
X136578333Y-114233095D01*
X136387857Y-114185476D01*
X136292619Y-114137857D01*
X136245000Y-114090238D01*
X136197380Y-113995000D01*
X136530714Y-112804523D02*
X137197380Y-112804523D01*
X136530714Y-113233095D02*
X137054523Y-113233095D01*
X137149761Y-113185476D01*
X137197380Y-113090238D01*
X137197380Y-112947380D01*
X137149761Y-112852142D01*
X137102142Y-112804523D01*
X136673571Y-111995000D02*
X136673571Y-112328333D01*
X137197380Y-112328333D02*
X136197380Y-112328333D01*
X136197380Y-111852142D01*
X129235142Y-99366666D02*
X129282761Y-99414285D01*
X129330380Y-99557142D01*
X129330380Y-99652380D01*
X129282761Y-99795238D01*
X129187523Y-99890476D01*
X129092285Y-99938095D01*
X128901809Y-99985714D01*
X128758952Y-99985714D01*
X128568476Y-99938095D01*
X128473238Y-99890476D01*
X128378000Y-99795238D01*
X128330380Y-99652380D01*
X128330380Y-99557142D01*
X128378000Y-99414285D01*
X128425619Y-99366666D01*
X128425619Y-98985714D02*
X128378000Y-98938095D01*
X128330380Y-98842857D01*
X128330380Y-98604761D01*
X128378000Y-98509523D01*
X128425619Y-98461904D01*
X128520857Y-98414285D01*
X128616095Y-98414285D01*
X128758952Y-98461904D01*
X129330380Y-99033333D01*
X129330380Y-98414285D01*
X134410380Y-100747619D02*
X134410380Y-101319047D01*
X134410380Y-101033333D02*
X133410380Y-101033333D01*
X133553238Y-101128571D01*
X133648476Y-101223809D01*
X133696095Y-101319047D01*
X133410380Y-100128571D02*
X133410380Y-100033333D01*
X133458000Y-99938095D01*
X133505619Y-99890476D01*
X133600857Y-99842857D01*
X133791333Y-99795238D01*
X134029428Y-99795238D01*
X134219904Y-99842857D01*
X134315142Y-99890476D01*
X134362761Y-99938095D01*
X134410380Y-100033333D01*
X134410380Y-100128571D01*
X134362761Y-100223809D01*
X134315142Y-100271428D01*
X134219904Y-100319047D01*
X134029428Y-100366666D01*
X133791333Y-100366666D01*
X133600857Y-100319047D01*
X133505619Y-100271428D01*
X133458000Y-100223809D01*
X133410380Y-100128571D01*
X133410380Y-99176190D02*
X133410380Y-99080952D01*
X133458000Y-98985714D01*
X133505619Y-98938095D01*
X133600857Y-98890476D01*
X133791333Y-98842857D01*
X134029428Y-98842857D01*
X134219904Y-98890476D01*
X134315142Y-98938095D01*
X134362761Y-98985714D01*
X134410380Y-99080952D01*
X134410380Y-99176190D01*
X134362761Y-99271428D01*
X134315142Y-99319047D01*
X134219904Y-99366666D01*
X134029428Y-99414285D01*
X133791333Y-99414285D01*
X133600857Y-99366666D01*
X133505619Y-99319047D01*
X133458000Y-99271428D01*
X133410380Y-99176190D01*
X133743714Y-98414285D02*
X134410380Y-98414285D01*
X133838952Y-98414285D02*
X133791333Y-98366666D01*
X133743714Y-98271428D01*
X133743714Y-98128571D01*
X133791333Y-98033333D01*
X133886571Y-97985714D01*
X134410380Y-97985714D01*
X133886571Y-97176190D02*
X133886571Y-97509523D01*
X134410380Y-97509523D02*
X133410380Y-97509523D01*
X133410380Y-97033333D01*
X149595142Y-99152666D02*
X149642761Y-99200285D01*
X149690380Y-99343142D01*
X149690380Y-99438380D01*
X149642761Y-99581238D01*
X149547523Y-99676476D01*
X149452285Y-99724095D01*
X149261809Y-99771714D01*
X149118952Y-99771714D01*
X148928476Y-99724095D01*
X148833238Y-99676476D01*
X148738000Y-99581238D01*
X148690380Y-99438380D01*
X148690380Y-99343142D01*
X148738000Y-99200285D01*
X148785619Y-99152666D01*
X148690380Y-98247904D02*
X148690380Y-98724095D01*
X149166571Y-98771714D01*
X149118952Y-98724095D01*
X149071333Y-98628857D01*
X149071333Y-98390761D01*
X149118952Y-98295523D01*
X149166571Y-98247904D01*
X149261809Y-98200285D01*
X149499904Y-98200285D01*
X149595142Y-98247904D01*
X149642761Y-98295523D01*
X149690380Y-98390761D01*
X149690380Y-98628857D01*
X149642761Y-98724095D01*
X149595142Y-98771714D01*
X155238380Y-100065047D02*
X155238380Y-100636476D01*
X155238380Y-100350761D02*
X154238380Y-100350761D01*
X154381238Y-100446000D01*
X154476476Y-100541238D01*
X154524095Y-100636476D01*
X154238380Y-99446000D02*
X154238380Y-99350761D01*
X154286000Y-99255523D01*
X154333619Y-99207904D01*
X154428857Y-99160285D01*
X154619333Y-99112666D01*
X154857428Y-99112666D01*
X155047904Y-99160285D01*
X155143142Y-99207904D01*
X155190761Y-99255523D01*
X155238380Y-99350761D01*
X155238380Y-99446000D01*
X155190761Y-99541238D01*
X155143142Y-99588857D01*
X155047904Y-99636476D01*
X154857428Y-99684095D01*
X154619333Y-99684095D01*
X154428857Y-99636476D01*
X154333619Y-99588857D01*
X154286000Y-99541238D01*
X154238380Y-99446000D01*
X154238380Y-98493619D02*
X154238380Y-98398380D01*
X154286000Y-98303142D01*
X154333619Y-98255523D01*
X154428857Y-98207904D01*
X154619333Y-98160285D01*
X154857428Y-98160285D01*
X155047904Y-98207904D01*
X155143142Y-98255523D01*
X155190761Y-98303142D01*
X155238380Y-98398380D01*
X155238380Y-98493619D01*
X155190761Y-98588857D01*
X155143142Y-98636476D01*
X155047904Y-98684095D01*
X154857428Y-98731714D01*
X154619333Y-98731714D01*
X154428857Y-98684095D01*
X154333619Y-98636476D01*
X154286000Y-98588857D01*
X154238380Y-98493619D01*
X154571714Y-97731714D02*
X155238380Y-97731714D01*
X154666952Y-97731714D02*
X154619333Y-97684095D01*
X154571714Y-97588857D01*
X154571714Y-97446000D01*
X154619333Y-97350761D01*
X154714571Y-97303142D01*
X155238380Y-97303142D01*
X173614380Y-128894095D02*
X172614380Y-128894095D01*
X172614380Y-128656000D01*
X172662000Y-128513142D01*
X172757238Y-128417904D01*
X172852476Y-128370285D01*
X173042952Y-128322666D01*
X173185809Y-128322666D01*
X173376285Y-128370285D01*
X173471523Y-128417904D01*
X173566761Y-128513142D01*
X173614380Y-128656000D01*
X173614380Y-128894095D01*
X173614380Y-127370285D02*
X173614380Y-127941714D01*
X173614380Y-127656000D02*
X172614380Y-127656000D01*
X172757238Y-127751238D01*
X172852476Y-127846476D01*
X172900095Y-127941714D01*
X169374380Y-130298857D02*
X169374380Y-130870285D01*
X169374380Y-130584571D02*
X168374380Y-130584571D01*
X168517238Y-130679809D01*
X168612476Y-130775047D01*
X168660095Y-130870285D01*
X169374380Y-129870285D02*
X168374380Y-129870285D01*
X169374380Y-129298857D01*
X168374380Y-129298857D01*
X168707714Y-128394095D02*
X169374380Y-128394095D01*
X168326761Y-128632190D02*
X169041047Y-128870285D01*
X169041047Y-128251238D01*
X169374380Y-127346476D02*
X169374380Y-127917904D01*
X169374380Y-127632190D02*
X168374380Y-127632190D01*
X168517238Y-127727428D01*
X168612476Y-127822666D01*
X168660095Y-127917904D01*
X168707714Y-126489333D02*
X169374380Y-126489333D01*
X168326761Y-126727428D02*
X169041047Y-126965523D01*
X169041047Y-126346476D01*
X168802952Y-125822666D02*
X168755333Y-125917904D01*
X168707714Y-125965523D01*
X168612476Y-126013142D01*
X168564857Y-126013142D01*
X168469619Y-125965523D01*
X168422000Y-125917904D01*
X168374380Y-125822666D01*
X168374380Y-125632190D01*
X168422000Y-125536952D01*
X168469619Y-125489333D01*
X168564857Y-125441714D01*
X168612476Y-125441714D01*
X168707714Y-125489333D01*
X168755333Y-125536952D01*
X168802952Y-125632190D01*
X168802952Y-125822666D01*
X168850571Y-125917904D01*
X168898190Y-125965523D01*
X168993428Y-126013142D01*
X169183904Y-126013142D01*
X169279142Y-125965523D01*
X169326761Y-125917904D01*
X169374380Y-125822666D01*
X169374380Y-125632190D01*
X169326761Y-125536952D01*
X169279142Y-125489333D01*
X169183904Y-125441714D01*
X168993428Y-125441714D01*
X168898190Y-125489333D01*
X168850571Y-125536952D01*
X168802952Y-125632190D01*
X173294380Y-124607904D02*
X172294380Y-124607904D01*
X173294380Y-124036476D02*
X172722952Y-124465047D01*
X172294380Y-124036476D02*
X172865809Y-124607904D01*
X153616904Y-66952380D02*
X153616904Y-65952380D01*
X153855000Y-65952380D01*
X153997857Y-66000000D01*
X154093095Y-66095238D01*
X154140714Y-66190476D01*
X154188333Y-66380952D01*
X154188333Y-66523809D01*
X154140714Y-66714285D01*
X154093095Y-66809523D01*
X153997857Y-66904761D01*
X153855000Y-66952380D01*
X153616904Y-66952380D01*
X154569285Y-66047619D02*
X154616904Y-66000000D01*
X154712142Y-65952380D01*
X154950238Y-65952380D01*
X155045476Y-66000000D01*
X155093095Y-66047619D01*
X155140714Y-66142857D01*
X155140714Y-66238095D01*
X155093095Y-66380952D01*
X154521666Y-66952380D01*
X155140714Y-66952380D01*
X153497857Y-60937142D02*
X153450238Y-60984761D01*
X153307380Y-61032380D01*
X153212142Y-61032380D01*
X153069285Y-60984761D01*
X152974047Y-60889523D01*
X152926428Y-60794285D01*
X152878809Y-60603809D01*
X152878809Y-60460952D01*
X152926428Y-60270476D01*
X152974047Y-60175238D01*
X153069285Y-60080000D01*
X153212142Y-60032380D01*
X153307380Y-60032380D01*
X153450238Y-60080000D01*
X153497857Y-60127619D01*
X154116904Y-60032380D02*
X154307380Y-60032380D01*
X154402619Y-60080000D01*
X154497857Y-60175238D01*
X154545476Y-60365714D01*
X154545476Y-60699047D01*
X154497857Y-60889523D01*
X154402619Y-60984761D01*
X154307380Y-61032380D01*
X154116904Y-61032380D01*
X154021666Y-60984761D01*
X153926428Y-60889523D01*
X153878809Y-60699047D01*
X153878809Y-60365714D01*
X153926428Y-60175238D01*
X154021666Y-60080000D01*
X154116904Y-60032380D01*
X154974047Y-61032380D02*
X154974047Y-60032380D01*
X155926428Y-61032380D02*
X155450238Y-61032380D01*
X155450238Y-60032380D01*
X163141904Y-66952380D02*
X163141904Y-65952380D01*
X163380000Y-65952380D01*
X163522857Y-66000000D01*
X163618095Y-66095238D01*
X163665714Y-66190476D01*
X163713333Y-66380952D01*
X163713333Y-66523809D01*
X163665714Y-66714285D01*
X163618095Y-66809523D01*
X163522857Y-66904761D01*
X163380000Y-66952380D01*
X163141904Y-66952380D01*
X164046666Y-65952380D02*
X164665714Y-65952380D01*
X164332380Y-66333333D01*
X164475238Y-66333333D01*
X164570476Y-66380952D01*
X164618095Y-66428571D01*
X164665714Y-66523809D01*
X164665714Y-66761904D01*
X164618095Y-66857142D01*
X164570476Y-66904761D01*
X164475238Y-66952380D01*
X164189523Y-66952380D01*
X164094285Y-66904761D01*
X164046666Y-66857142D01*
X139577380Y-116618333D02*
X140291666Y-116618333D01*
X140434523Y-116665952D01*
X140529761Y-116761190D01*
X140577380Y-116904047D01*
X140577380Y-116999285D01*
X139672619Y-116189761D02*
X139625000Y-116142142D01*
X139577380Y-116046904D01*
X139577380Y-115808809D01*
X139625000Y-115713571D01*
X139672619Y-115665952D01*
X139767857Y-115618333D01*
X139863095Y-115618333D01*
X140005952Y-115665952D01*
X140577380Y-116237380D01*
X140577380Y-115618333D01*
X146729761Y-119046904D02*
X146777380Y-118904047D01*
X146777380Y-118665952D01*
X146729761Y-118570714D01*
X146682142Y-118523095D01*
X146586904Y-118475476D01*
X146491666Y-118475476D01*
X146396428Y-118523095D01*
X146348809Y-118570714D01*
X146301190Y-118665952D01*
X146253571Y-118856428D01*
X146205952Y-118951666D01*
X146158333Y-118999285D01*
X146063095Y-119046904D01*
X145967857Y-119046904D01*
X145872619Y-118999285D01*
X145825000Y-118951666D01*
X145777380Y-118856428D01*
X145777380Y-118618333D01*
X145825000Y-118475476D01*
X146253571Y-118046904D02*
X146253571Y-117713571D01*
X146777380Y-117570714D02*
X146777380Y-118046904D01*
X145777380Y-118046904D01*
X145777380Y-117570714D01*
X146777380Y-117142142D02*
X145777380Y-117142142D01*
X146777380Y-116570714D01*
X145777380Y-116570714D01*
X146729761Y-116142142D02*
X146777380Y-115999285D01*
X146777380Y-115761190D01*
X146729761Y-115665952D01*
X146682142Y-115618333D01*
X146586904Y-115570714D01*
X146491666Y-115570714D01*
X146396428Y-115618333D01*
X146348809Y-115665952D01*
X146301190Y-115761190D01*
X146253571Y-115951666D01*
X146205952Y-116046904D01*
X146158333Y-116094523D01*
X146063095Y-116142142D01*
X145967857Y-116142142D01*
X145872619Y-116094523D01*
X145825000Y-116046904D01*
X145777380Y-115951666D01*
X145777380Y-115713571D01*
X145825000Y-115570714D01*
X145777380Y-114951666D02*
X145777380Y-114761190D01*
X145825000Y-114665952D01*
X145920238Y-114570714D01*
X146110714Y-114523095D01*
X146444047Y-114523095D01*
X146634523Y-114570714D01*
X146729761Y-114665952D01*
X146777380Y-114761190D01*
X146777380Y-114951666D01*
X146729761Y-115046904D01*
X146634523Y-115142142D01*
X146444047Y-115189761D01*
X146110714Y-115189761D01*
X145920238Y-115142142D01*
X145825000Y-115046904D01*
X145777380Y-114951666D01*
X146777380Y-113523095D02*
X146301190Y-113856428D01*
X146777380Y-114094523D02*
X145777380Y-114094523D01*
X145777380Y-113713571D01*
X145825000Y-113618333D01*
X145872619Y-113570714D01*
X145967857Y-113523095D01*
X146110714Y-113523095D01*
X146205952Y-113570714D01*
X146253571Y-113618333D01*
X146301190Y-113713571D01*
X146301190Y-114094523D01*
X151648333Y-68422380D02*
X151315000Y-67946190D01*
X151076904Y-68422380D02*
X151076904Y-67422380D01*
X151457857Y-67422380D01*
X151553095Y-67470000D01*
X151600714Y-67517619D01*
X151648333Y-67612857D01*
X151648333Y-67755714D01*
X151600714Y-67850952D01*
X151553095Y-67898571D01*
X151457857Y-67946190D01*
X151076904Y-67946190D01*
X152600714Y-68422380D02*
X152029285Y-68422380D01*
X152315000Y-68422380D02*
X152315000Y-67422380D01*
X152219761Y-67565238D01*
X152124523Y-67660476D01*
X152029285Y-67708095D01*
X150529285Y-71262380D02*
X151148333Y-71262380D01*
X150815000Y-71643333D01*
X150957857Y-71643333D01*
X151053095Y-71690952D01*
X151100714Y-71738571D01*
X151148333Y-71833809D01*
X151148333Y-72071904D01*
X151100714Y-72167142D01*
X151053095Y-72214761D01*
X150957857Y-72262380D01*
X150672142Y-72262380D01*
X150576904Y-72214761D01*
X150529285Y-72167142D01*
X151481666Y-71262380D02*
X152100714Y-71262380D01*
X151767380Y-71643333D01*
X151910238Y-71643333D01*
X152005476Y-71690952D01*
X152053095Y-71738571D01*
X152100714Y-71833809D01*
X152100714Y-72071904D01*
X152053095Y-72167142D01*
X152005476Y-72214761D01*
X151910238Y-72262380D01*
X151624523Y-72262380D01*
X151529285Y-72214761D01*
X151481666Y-72167142D01*
X152719761Y-71262380D02*
X152815000Y-71262380D01*
X152910238Y-71310000D01*
X152957857Y-71357619D01*
X153005476Y-71452857D01*
X153053095Y-71643333D01*
X153053095Y-71881428D01*
X153005476Y-72071904D01*
X152957857Y-72167142D01*
X152910238Y-72214761D01*
X152815000Y-72262380D01*
X152719761Y-72262380D01*
X152624523Y-72214761D01*
X152576904Y-72167142D01*
X152529285Y-72071904D01*
X152481666Y-71881428D01*
X152481666Y-71643333D01*
X152529285Y-71452857D01*
X152576904Y-71357619D01*
X152624523Y-71310000D01*
X152719761Y-71262380D01*
X166253333Y-68422380D02*
X165920000Y-67946190D01*
X165681904Y-68422380D02*
X165681904Y-67422380D01*
X166062857Y-67422380D01*
X166158095Y-67470000D01*
X166205714Y-67517619D01*
X166253333Y-67612857D01*
X166253333Y-67755714D01*
X166205714Y-67850952D01*
X166158095Y-67898571D01*
X166062857Y-67946190D01*
X165681904Y-67946190D01*
X166634285Y-67517619D02*
X166681904Y-67470000D01*
X166777142Y-67422380D01*
X167015238Y-67422380D01*
X167110476Y-67470000D01*
X167158095Y-67517619D01*
X167205714Y-67612857D01*
X167205714Y-67708095D01*
X167158095Y-67850952D01*
X166586666Y-68422380D01*
X167205714Y-68422380D01*
X165134285Y-71262380D02*
X165753333Y-71262380D01*
X165420000Y-71643333D01*
X165562857Y-71643333D01*
X165658095Y-71690952D01*
X165705714Y-71738571D01*
X165753333Y-71833809D01*
X165753333Y-72071904D01*
X165705714Y-72167142D01*
X165658095Y-72214761D01*
X165562857Y-72262380D01*
X165277142Y-72262380D01*
X165181904Y-72214761D01*
X165134285Y-72167142D01*
X166086666Y-71262380D02*
X166705714Y-71262380D01*
X166372380Y-71643333D01*
X166515238Y-71643333D01*
X166610476Y-71690952D01*
X166658095Y-71738571D01*
X166705714Y-71833809D01*
X166705714Y-72071904D01*
X166658095Y-72167142D01*
X166610476Y-72214761D01*
X166515238Y-72262380D01*
X166229523Y-72262380D01*
X166134285Y-72214761D01*
X166086666Y-72167142D01*
X167324761Y-71262380D02*
X167420000Y-71262380D01*
X167515238Y-71310000D01*
X167562857Y-71357619D01*
X167610476Y-71452857D01*
X167658095Y-71643333D01*
X167658095Y-71881428D01*
X167610476Y-72071904D01*
X167562857Y-72167142D01*
X167515238Y-72214761D01*
X167420000Y-72262380D01*
X167324761Y-72262380D01*
X167229523Y-72214761D01*
X167181904Y-72167142D01*
X167134285Y-72071904D01*
X167086666Y-71881428D01*
X167086666Y-71643333D01*
X167134285Y-71452857D01*
X167181904Y-71357619D01*
X167229523Y-71310000D01*
X167324761Y-71262380D01*
X153754761Y-111747619D02*
X153659523Y-111700000D01*
X153564285Y-111604761D01*
X153421428Y-111461904D01*
X153326190Y-111414285D01*
X153230952Y-111414285D01*
X153278571Y-111652380D02*
X153183333Y-111604761D01*
X153088095Y-111509523D01*
X153040476Y-111319047D01*
X153040476Y-110985714D01*
X153088095Y-110795238D01*
X153183333Y-110700000D01*
X153278571Y-110652380D01*
X153469047Y-110652380D01*
X153564285Y-110700000D01*
X153659523Y-110795238D01*
X153707142Y-110985714D01*
X153707142Y-111319047D01*
X153659523Y-111509523D01*
X153564285Y-111604761D01*
X153469047Y-111652380D01*
X153278571Y-111652380D01*
X154659523Y-111652380D02*
X154088095Y-111652380D01*
X154373809Y-111652380D02*
X154373809Y-110652380D01*
X154278571Y-110795238D01*
X154183333Y-110890476D01*
X154088095Y-110938095D01*
X155992857Y-110606380D02*
X155992857Y-109606380D01*
X157040476Y-110606380D02*
X156707142Y-110130190D01*
X156469047Y-110606380D02*
X156469047Y-109606380D01*
X156850000Y-109606380D01*
X156945238Y-109654000D01*
X156992857Y-109701619D01*
X157040476Y-109796857D01*
X157040476Y-109939714D01*
X156992857Y-110034952D01*
X156945238Y-110082571D01*
X156850000Y-110130190D01*
X156469047Y-110130190D01*
X157945238Y-110606380D02*
X157469047Y-110606380D01*
X157469047Y-109606380D01*
X158754761Y-109606380D02*
X158278571Y-109606380D01*
X158230952Y-110082571D01*
X158278571Y-110034952D01*
X158373809Y-109987333D01*
X158611904Y-109987333D01*
X158707142Y-110034952D01*
X158754761Y-110082571D01*
X158802380Y-110177809D01*
X158802380Y-110415904D01*
X158754761Y-110511142D01*
X158707142Y-110558761D01*
X158611904Y-110606380D01*
X158373809Y-110606380D01*
X158278571Y-110558761D01*
X158230952Y-110511142D01*
X159659523Y-109939714D02*
X159659523Y-110606380D01*
X159421428Y-109558761D02*
X159183333Y-110273047D01*
X159802380Y-110273047D01*
X160373809Y-109606380D02*
X160469047Y-109606380D01*
X160564285Y-109654000D01*
X160611904Y-109701619D01*
X160659523Y-109796857D01*
X160707142Y-109987333D01*
X160707142Y-110225428D01*
X160659523Y-110415904D01*
X160611904Y-110511142D01*
X160564285Y-110558761D01*
X160469047Y-110606380D01*
X160373809Y-110606380D01*
X160278571Y-110558761D01*
X160230952Y-110511142D01*
X160183333Y-110415904D01*
X160135714Y-110225428D01*
X160135714Y-109987333D01*
X160183333Y-109796857D01*
X160230952Y-109701619D01*
X160278571Y-109654000D01*
X160373809Y-109606380D01*
X161135714Y-110606380D02*
X161135714Y-109606380D01*
X161707142Y-110606380D01*
X161707142Y-109606380D01*
X139577380Y-128663333D02*
X140291666Y-128663333D01*
X140434523Y-128710952D01*
X140529761Y-128806190D01*
X140577380Y-128949047D01*
X140577380Y-129044285D01*
X140577380Y-127663333D02*
X140577380Y-128234761D01*
X140577380Y-127949047D02*
X139577380Y-127949047D01*
X139720238Y-128044285D01*
X139815476Y-128139523D01*
X139863095Y-128234761D01*
X146777380Y-130639523D02*
X145777380Y-130639523D01*
X145777380Y-130258571D01*
X145825000Y-130163333D01*
X145872619Y-130115714D01*
X145967857Y-130068095D01*
X146110714Y-130068095D01*
X146205952Y-130115714D01*
X146253571Y-130163333D01*
X146301190Y-130258571D01*
X146301190Y-130639523D01*
X145777380Y-129449047D02*
X145777380Y-129258571D01*
X145825000Y-129163333D01*
X145920238Y-129068095D01*
X146110714Y-129020476D01*
X146444047Y-129020476D01*
X146634523Y-129068095D01*
X146729761Y-129163333D01*
X146777380Y-129258571D01*
X146777380Y-129449047D01*
X146729761Y-129544285D01*
X146634523Y-129639523D01*
X146444047Y-129687142D01*
X146110714Y-129687142D01*
X145920238Y-129639523D01*
X145825000Y-129544285D01*
X145777380Y-129449047D01*
X145777380Y-128687142D02*
X146777380Y-128449047D01*
X146063095Y-128258571D01*
X146777380Y-128068095D01*
X145777380Y-127830000D01*
X146253571Y-127449047D02*
X146253571Y-127115714D01*
X146777380Y-126972857D02*
X146777380Y-127449047D01*
X145777380Y-127449047D01*
X145777380Y-126972857D01*
X146777380Y-125972857D02*
X146301190Y-126306190D01*
X146777380Y-126544285D02*
X145777380Y-126544285D01*
X145777380Y-126163333D01*
X145825000Y-126068095D01*
X145872619Y-126020476D01*
X145967857Y-125972857D01*
X146110714Y-125972857D01*
X146205952Y-126020476D01*
X146253571Y-126068095D01*
X146301190Y-126163333D01*
X146301190Y-126544285D01*
X180152380Y-127453333D02*
X180866666Y-127453333D01*
X181009523Y-127500952D01*
X181104761Y-127596190D01*
X181152380Y-127739047D01*
X181152380Y-127834285D01*
X180485714Y-126548571D02*
X181152380Y-126548571D01*
X180104761Y-126786666D02*
X180819047Y-127024761D01*
X180819047Y-126405714D01*
X174857142Y-127977142D02*
X174904761Y-128024761D01*
X174952380Y-128167619D01*
X174952380Y-128262857D01*
X174904761Y-128405714D01*
X174809523Y-128500952D01*
X174714285Y-128548571D01*
X174523809Y-128596190D01*
X174380952Y-128596190D01*
X174190476Y-128548571D01*
X174095238Y-128500952D01*
X174000000Y-128405714D01*
X173952380Y-128262857D01*
X173952380Y-128167619D01*
X174000000Y-128024761D01*
X174047619Y-127977142D01*
X173952380Y-127358095D02*
X173952380Y-127167619D01*
X174000000Y-127072380D01*
X174095238Y-126977142D01*
X174285714Y-126929523D01*
X174619047Y-126929523D01*
X174809523Y-126977142D01*
X174904761Y-127072380D01*
X174952380Y-127167619D01*
X174952380Y-127358095D01*
X174904761Y-127453333D01*
X174809523Y-127548571D01*
X174619047Y-127596190D01*
X174285714Y-127596190D01*
X174095238Y-127548571D01*
X174000000Y-127453333D01*
X173952380Y-127358095D01*
X174952380Y-126500952D02*
X173952380Y-126500952D01*
X174952380Y-125548571D02*
X174952380Y-126024761D01*
X173952380Y-126024761D01*
X178993095Y-72382380D02*
X178993095Y-73191904D01*
X179040714Y-73287142D01*
X179088333Y-73334761D01*
X179183571Y-73382380D01*
X179374047Y-73382380D01*
X179469285Y-73334761D01*
X179516904Y-73287142D01*
X179564523Y-73191904D01*
X179564523Y-72382380D01*
X180564523Y-73382380D02*
X179993095Y-73382380D01*
X180278809Y-73382380D02*
X180278809Y-72382380D01*
X180183571Y-72525238D01*
X180088333Y-72620476D01*
X179993095Y-72668095D01*
X167135714Y-83104761D02*
X167135714Y-81104761D01*
X167611904Y-81104761D01*
X167897619Y-81200000D01*
X168088095Y-81390476D01*
X168183333Y-81580952D01*
X168278571Y-81961904D01*
X168278571Y-82247619D01*
X168183333Y-82628571D01*
X168088095Y-82819047D01*
X167897619Y-83009523D01*
X167611904Y-83104761D01*
X167135714Y-83104761D01*
X170278571Y-82914285D02*
X170183333Y-83009523D01*
X169897619Y-83104761D01*
X169707142Y-83104761D01*
X169421428Y-83009523D01*
X169230952Y-82819047D01*
X169135714Y-82628571D01*
X169040476Y-82247619D01*
X169040476Y-81961904D01*
X169135714Y-81580952D01*
X169230952Y-81390476D01*
X169421428Y-81200000D01*
X169707142Y-81104761D01*
X169897619Y-81104761D01*
X170183333Y-81200000D01*
X170278571Y-81295238D01*
X171135714Y-82342857D02*
X172659523Y-82342857D01*
X173611904Y-83104761D02*
X173611904Y-81104761D01*
X174088095Y-81104761D01*
X174373809Y-81200000D01*
X174564285Y-81390476D01*
X174659523Y-81580952D01*
X174754761Y-81961904D01*
X174754761Y-82247619D01*
X174659523Y-82628571D01*
X174564285Y-82819047D01*
X174373809Y-83009523D01*
X174088095Y-83104761D01*
X173611904Y-83104761D01*
X176754761Y-82914285D02*
X176659523Y-83009523D01*
X176373809Y-83104761D01*
X176183333Y-83104761D01*
X175897619Y-83009523D01*
X175707142Y-82819047D01*
X175611904Y-82628571D01*
X175516666Y-82247619D01*
X175516666Y-81961904D01*
X175611904Y-81580952D01*
X175707142Y-81390476D01*
X175897619Y-81200000D01*
X176183333Y-81104761D01*
X176373809Y-81104761D01*
X176659523Y-81200000D01*
X176754761Y-81295238D01*
X177135714Y-83295238D02*
X178659523Y-83295238D01*
X180278571Y-83104761D02*
X179611904Y-82152380D01*
X179135714Y-83104761D02*
X179135714Y-81104761D01*
X179897619Y-81104761D01*
X180088095Y-81200000D01*
X180183333Y-81295238D01*
X180278571Y-81485714D01*
X180278571Y-81771428D01*
X180183333Y-81961904D01*
X180088095Y-82057142D01*
X179897619Y-82152380D01*
X179135714Y-82152380D01*
X181897619Y-83009523D02*
X181707142Y-83104761D01*
X181326190Y-83104761D01*
X181135714Y-83009523D01*
X181040476Y-82819047D01*
X181040476Y-82057142D01*
X181135714Y-81866666D01*
X181326190Y-81771428D01*
X181707142Y-81771428D01*
X181897619Y-81866666D01*
X181992857Y-82057142D01*
X181992857Y-82247619D01*
X181040476Y-82438095D01*
X183707142Y-81771428D02*
X183707142Y-83390476D01*
X183611904Y-83580952D01*
X183516666Y-83676190D01*
X183326190Y-83771428D01*
X183040476Y-83771428D01*
X182850000Y-83676190D01*
X183707142Y-83009523D02*
X183516666Y-83104761D01*
X183135714Y-83104761D01*
X182945238Y-83009523D01*
X182850000Y-82914285D01*
X182754761Y-82723809D01*
X182754761Y-82152380D01*
X182850000Y-81961904D01*
X182945238Y-81866666D01*
X183135714Y-81771428D01*
X183516666Y-81771428D01*
X183707142Y-81866666D01*
X185516666Y-81771428D02*
X185516666Y-83104761D01*
X184659523Y-81771428D02*
X184659523Y-82819047D01*
X184754761Y-83009523D01*
X184945238Y-83104761D01*
X185230952Y-83104761D01*
X185421428Y-83009523D01*
X185516666Y-82914285D01*
X186754761Y-83104761D02*
X186564285Y-83009523D01*
X186469047Y-82819047D01*
X186469047Y-81104761D01*
X188373809Y-83104761D02*
X188373809Y-82057142D01*
X188278571Y-81866666D01*
X188088095Y-81771428D01*
X187707142Y-81771428D01*
X187516666Y-81866666D01*
X188373809Y-83009523D02*
X188183333Y-83104761D01*
X187707142Y-83104761D01*
X187516666Y-83009523D01*
X187421428Y-82819047D01*
X187421428Y-82628571D01*
X187516666Y-82438095D01*
X187707142Y-82342857D01*
X188183333Y-82342857D01*
X188373809Y-82247619D01*
X189040476Y-81771428D02*
X189802380Y-81771428D01*
X189326190Y-81104761D02*
X189326190Y-82819047D01*
X189421428Y-83009523D01*
X189611904Y-83104761D01*
X189802380Y-83104761D01*
X190754761Y-83104761D02*
X190564285Y-83009523D01*
X190469047Y-82914285D01*
X190373809Y-82723809D01*
X190373809Y-82152380D01*
X190469047Y-81961904D01*
X190564285Y-81866666D01*
X190754761Y-81771428D01*
X191040476Y-81771428D01*
X191230952Y-81866666D01*
X191326190Y-81961904D01*
X191421428Y-82152380D01*
X191421428Y-82723809D01*
X191326190Y-82914285D01*
X191230952Y-83009523D01*
X191040476Y-83104761D01*
X190754761Y-83104761D01*
X192278571Y-83104761D02*
X192278571Y-81771428D01*
X192278571Y-82152380D02*
X192373809Y-81961904D01*
X192469047Y-81866666D01*
X192659523Y-81771428D01*
X192850000Y-81771428D01*
X187293690Y-80502380D02*
X187293690Y-79502380D01*
X187769880Y-80502380D02*
X187769880Y-79502380D01*
X188341309Y-80502380D01*
X188341309Y-79502380D01*
X188817500Y-80121428D02*
X189579404Y-80121428D01*
X189198452Y-80502380D02*
X189198452Y-79740476D01*
X169930595Y-80502380D02*
X169930595Y-79502380D01*
X170406785Y-80502380D02*
X170406785Y-79502380D01*
X170978214Y-80502380D01*
X170978214Y-79502380D01*
X171454404Y-80121428D02*
X172216309Y-80121428D01*
X186150833Y-117602380D02*
X186341309Y-117602380D01*
X186436547Y-117650000D01*
X186531785Y-117745238D01*
X186579404Y-117935714D01*
X186579404Y-118269047D01*
X186531785Y-118459523D01*
X186436547Y-118554761D01*
X186341309Y-118602380D01*
X186150833Y-118602380D01*
X186055595Y-118554761D01*
X185960357Y-118459523D01*
X185912738Y-118269047D01*
X185912738Y-117935714D01*
X185960357Y-117745238D01*
X186055595Y-117650000D01*
X186150833Y-117602380D01*
X187007976Y-117602380D02*
X187007976Y-118411904D01*
X187055595Y-118507142D01*
X187103214Y-118554761D01*
X187198452Y-118602380D01*
X187388928Y-118602380D01*
X187484166Y-118554761D01*
X187531785Y-118507142D01*
X187579404Y-118411904D01*
X187579404Y-117602380D01*
X187912738Y-117602380D02*
X188484166Y-117602380D01*
X188198452Y-118602380D02*
X188198452Y-117602380D01*
X188817500Y-118221428D02*
X189579404Y-118221428D01*
X189198452Y-118602380D02*
X189198452Y-117840476D01*
X170121071Y-117602380D02*
X170311547Y-117602380D01*
X170406785Y-117650000D01*
X170502023Y-117745238D01*
X170549642Y-117935714D01*
X170549642Y-118269047D01*
X170502023Y-118459523D01*
X170406785Y-118554761D01*
X170311547Y-118602380D01*
X170121071Y-118602380D01*
X170025833Y-118554761D01*
X169930595Y-118459523D01*
X169882976Y-118269047D01*
X169882976Y-117935714D01*
X169930595Y-117745238D01*
X170025833Y-117650000D01*
X170121071Y-117602380D01*
X170978214Y-117602380D02*
X170978214Y-118411904D01*
X171025833Y-118507142D01*
X171073452Y-118554761D01*
X171168690Y-118602380D01*
X171359166Y-118602380D01*
X171454404Y-118554761D01*
X171502023Y-118507142D01*
X171549642Y-118411904D01*
X171549642Y-117602380D01*
X171882976Y-117602380D02*
X172454404Y-117602380D01*
X172168690Y-118602380D02*
X172168690Y-117602380D01*
X172787738Y-118221428D02*
X173549642Y-118221428D01*
X185207142Y-108366666D02*
X185254761Y-108414285D01*
X185302380Y-108557142D01*
X185302380Y-108652380D01*
X185254761Y-108795238D01*
X185159523Y-108890476D01*
X185064285Y-108938095D01*
X184873809Y-108985714D01*
X184730952Y-108985714D01*
X184540476Y-108938095D01*
X184445238Y-108890476D01*
X184350000Y-108795238D01*
X184302380Y-108652380D01*
X184302380Y-108557142D01*
X184350000Y-108414285D01*
X184397619Y-108366666D01*
X184302380Y-108033333D02*
X184302380Y-107414285D01*
X184683333Y-107747619D01*
X184683333Y-107604761D01*
X184730952Y-107509523D01*
X184778571Y-107461904D01*
X184873809Y-107414285D01*
X185111904Y-107414285D01*
X185207142Y-107461904D01*
X185254761Y-107509523D01*
X185302380Y-107604761D01*
X185302380Y-107890476D01*
X185254761Y-107985714D01*
X185207142Y-108033333D01*
X189302380Y-113080952D02*
X189302380Y-113652380D01*
X189302380Y-113366666D02*
X188302380Y-113366666D01*
X188445238Y-113461904D01*
X188540476Y-113557142D01*
X188588095Y-113652380D01*
X189302380Y-112652380D02*
X188635714Y-112652380D01*
X188730952Y-112652380D02*
X188683333Y-112604761D01*
X188635714Y-112509523D01*
X188635714Y-112366666D01*
X188683333Y-112271428D01*
X188778571Y-112223809D01*
X189302380Y-112223809D01*
X188778571Y-112223809D02*
X188683333Y-112176190D01*
X188635714Y-112080952D01*
X188635714Y-111938095D01*
X188683333Y-111842857D01*
X188778571Y-111795238D01*
X189302380Y-111795238D01*
X178207142Y-108366666D02*
X178254761Y-108414285D01*
X178302380Y-108557142D01*
X178302380Y-108652380D01*
X178254761Y-108795238D01*
X178159523Y-108890476D01*
X178064285Y-108938095D01*
X177873809Y-108985714D01*
X177730952Y-108985714D01*
X177540476Y-108938095D01*
X177445238Y-108890476D01*
X177350000Y-108795238D01*
X177302380Y-108652380D01*
X177302380Y-108557142D01*
X177350000Y-108414285D01*
X177397619Y-108366666D01*
X177635714Y-107509523D02*
X178302380Y-107509523D01*
X177254761Y-107747619D02*
X177969047Y-107985714D01*
X177969047Y-107366666D01*
X181397619Y-114390476D02*
X181350000Y-114342857D01*
X181302380Y-114247619D01*
X181302380Y-114009523D01*
X181350000Y-113914285D01*
X181397619Y-113866666D01*
X181492857Y-113819047D01*
X181588095Y-113819047D01*
X181730952Y-113866666D01*
X182302380Y-114438095D01*
X182302380Y-113819047D01*
X181397619Y-113438095D02*
X181350000Y-113390476D01*
X181302380Y-113295238D01*
X181302380Y-113057142D01*
X181350000Y-112961904D01*
X181397619Y-112914285D01*
X181492857Y-112866666D01*
X181588095Y-112866666D01*
X181730952Y-112914285D01*
X182302380Y-113485714D01*
X182302380Y-112866666D01*
X181302380Y-112247619D02*
X181302380Y-112152380D01*
X181350000Y-112057142D01*
X181397619Y-112009523D01*
X181492857Y-111961904D01*
X181683333Y-111914285D01*
X181921428Y-111914285D01*
X182111904Y-111961904D01*
X182207142Y-112009523D01*
X182254761Y-112057142D01*
X182302380Y-112152380D01*
X182302380Y-112247619D01*
X182254761Y-112342857D01*
X182207142Y-112390476D01*
X182111904Y-112438095D01*
X181921428Y-112485714D01*
X181683333Y-112485714D01*
X181492857Y-112438095D01*
X181397619Y-112390476D01*
X181350000Y-112342857D01*
X181302380Y-112247619D01*
X181635714Y-111485714D02*
X182302380Y-111485714D01*
X181730952Y-111485714D02*
X181683333Y-111438095D01*
X181635714Y-111342857D01*
X181635714Y-111200000D01*
X181683333Y-111104761D01*
X181778571Y-111057142D01*
X182302380Y-111057142D01*
X178374380Y-70557333D02*
X179088666Y-70557333D01*
X179231523Y-70604952D01*
X179326761Y-70700190D01*
X179374380Y-70843047D01*
X179374380Y-70938285D01*
X178374380Y-70176380D02*
X178374380Y-69557333D01*
X178755333Y-69890666D01*
X178755333Y-69747809D01*
X178802952Y-69652571D01*
X178850571Y-69604952D01*
X178945809Y-69557333D01*
X179183904Y-69557333D01*
X179279142Y-69604952D01*
X179326761Y-69652571D01*
X179374380Y-69747809D01*
X179374380Y-70033523D01*
X179326761Y-70128761D01*
X179279142Y-70176380D01*
X172650571Y-71962095D02*
X172698190Y-71819238D01*
X172745809Y-71771619D01*
X172841047Y-71724000D01*
X172983904Y-71724000D01*
X173079142Y-71771619D01*
X173126761Y-71819238D01*
X173174380Y-71914476D01*
X173174380Y-72295428D01*
X172174380Y-72295428D01*
X172174380Y-71962095D01*
X172222000Y-71866857D01*
X172269619Y-71819238D01*
X172364857Y-71771619D01*
X172460095Y-71771619D01*
X172555333Y-71819238D01*
X172602952Y-71866857D01*
X172650571Y-71962095D01*
X172650571Y-72295428D01*
X172174380Y-71438285D02*
X172174380Y-70866857D01*
X173174380Y-71152571D02*
X172174380Y-71152571D01*
X173269619Y-70771619D02*
X173269619Y-70009714D01*
X172174380Y-69581142D02*
X172174380Y-69390666D01*
X172222000Y-69295428D01*
X172317238Y-69200190D01*
X172507714Y-69152571D01*
X172841047Y-69152571D01*
X173031523Y-69200190D01*
X173126761Y-69295428D01*
X173174380Y-69390666D01*
X173174380Y-69581142D01*
X173126761Y-69676380D01*
X173031523Y-69771619D01*
X172841047Y-69819238D01*
X172507714Y-69819238D01*
X172317238Y-69771619D01*
X172222000Y-69676380D01*
X172174380Y-69581142D01*
X173174380Y-68724000D02*
X172174380Y-68724000D01*
X173174380Y-68152571D01*
X172174380Y-68152571D01*
X165702380Y-119742857D02*
X164702380Y-119742857D01*
X165702380Y-119171428D01*
X164702380Y-119171428D01*
X164702380Y-118838095D02*
X164702380Y-118266666D01*
X165702380Y-118552380D02*
X164702380Y-118552380D01*
X165702380Y-117409523D02*
X165702380Y-117980952D01*
X165702380Y-117695238D02*
X164702380Y-117695238D01*
X164845238Y-117790476D01*
X164940476Y-117885714D01*
X164988095Y-117980952D01*
X191582380Y-99861904D02*
X192391904Y-99861904D01*
X192487142Y-99814285D01*
X192534761Y-99766666D01*
X192582380Y-99671428D01*
X192582380Y-99480952D01*
X192534761Y-99385714D01*
X192487142Y-99338095D01*
X192391904Y-99290476D01*
X191582380Y-99290476D01*
X191677619Y-98861904D02*
X191630000Y-98814285D01*
X191582380Y-98719047D01*
X191582380Y-98480952D01*
X191630000Y-98385714D01*
X191677619Y-98338095D01*
X191772857Y-98290476D01*
X191868095Y-98290476D01*
X192010952Y-98338095D01*
X192582380Y-98909523D01*
X192582380Y-98290476D01*
X174611904Y-105652380D02*
X174611904Y-104652380D01*
X174945238Y-105366666D01*
X175278571Y-104652380D01*
X175278571Y-105652380D01*
X176326190Y-105557142D02*
X176278571Y-105604761D01*
X176135714Y-105652380D01*
X176040476Y-105652380D01*
X175897619Y-105604761D01*
X175802380Y-105509523D01*
X175754761Y-105414285D01*
X175707142Y-105223809D01*
X175707142Y-105080952D01*
X175754761Y-104890476D01*
X175802380Y-104795238D01*
X175897619Y-104700000D01*
X176040476Y-104652380D01*
X176135714Y-104652380D01*
X176278571Y-104700000D01*
X176326190Y-104747619D01*
X176659523Y-104652380D02*
X177326190Y-104652380D01*
X176897619Y-105652380D01*
X177850000Y-105080952D02*
X177754761Y-105033333D01*
X177707142Y-104985714D01*
X177659523Y-104890476D01*
X177659523Y-104842857D01*
X177707142Y-104747619D01*
X177754761Y-104700000D01*
X177850000Y-104652380D01*
X178040476Y-104652380D01*
X178135714Y-104700000D01*
X178183333Y-104747619D01*
X178230952Y-104842857D01*
X178230952Y-104890476D01*
X178183333Y-104985714D01*
X178135714Y-105033333D01*
X178040476Y-105080952D01*
X177850000Y-105080952D01*
X177754761Y-105128571D01*
X177707142Y-105176190D01*
X177659523Y-105271428D01*
X177659523Y-105461904D01*
X177707142Y-105557142D01*
X177754761Y-105604761D01*
X177850000Y-105652380D01*
X178040476Y-105652380D01*
X178135714Y-105604761D01*
X178183333Y-105557142D01*
X178230952Y-105461904D01*
X178230952Y-105271428D01*
X178183333Y-105176190D01*
X178135714Y-105128571D01*
X178040476Y-105080952D01*
X178850000Y-104652380D02*
X178945238Y-104652380D01*
X179040476Y-104700000D01*
X179088095Y-104747619D01*
X179135714Y-104842857D01*
X179183333Y-105033333D01*
X179183333Y-105271428D01*
X179135714Y-105461904D01*
X179088095Y-105557142D01*
X179040476Y-105604761D01*
X178945238Y-105652380D01*
X178850000Y-105652380D01*
X178754761Y-105604761D01*
X178707142Y-105557142D01*
X178659523Y-105461904D01*
X178611904Y-105271428D01*
X178611904Y-105033333D01*
X178659523Y-104842857D01*
X178707142Y-104747619D01*
X178754761Y-104700000D01*
X178850000Y-104652380D01*
X180088095Y-104652380D02*
X179611904Y-104652380D01*
X179564285Y-105128571D01*
X179611904Y-105080952D01*
X179707142Y-105033333D01*
X179945238Y-105033333D01*
X180040476Y-105080952D01*
X180088095Y-105128571D01*
X180135714Y-105223809D01*
X180135714Y-105461904D01*
X180088095Y-105557142D01*
X180040476Y-105604761D01*
X179945238Y-105652380D01*
X179707142Y-105652380D01*
X179611904Y-105604761D01*
X179564285Y-105557142D01*
X181135714Y-105557142D02*
X181088095Y-105604761D01*
X180945238Y-105652380D01*
X180850000Y-105652380D01*
X180707142Y-105604761D01*
X180611904Y-105509523D01*
X180564285Y-105414285D01*
X180516666Y-105223809D01*
X180516666Y-105080952D01*
X180564285Y-104890476D01*
X180611904Y-104795238D01*
X180707142Y-104700000D01*
X180850000Y-104652380D01*
X180945238Y-104652380D01*
X181088095Y-104700000D01*
X181135714Y-104747619D01*
X181421428Y-104652380D02*
X181992857Y-104652380D01*
X181707142Y-105652380D02*
X181707142Y-104652380D01*
X182326190Y-105271428D02*
X183088095Y-105271428D01*
X183897619Y-105128571D02*
X184040476Y-105176190D01*
X184088095Y-105223809D01*
X184135714Y-105319047D01*
X184135714Y-105461904D01*
X184088095Y-105557142D01*
X184040476Y-105604761D01*
X183945238Y-105652380D01*
X183564285Y-105652380D01*
X183564285Y-104652380D01*
X183897619Y-104652380D01*
X183992857Y-104700000D01*
X184040476Y-104747619D01*
X184088095Y-104842857D01*
X184088095Y-104938095D01*
X184040476Y-105033333D01*
X183992857Y-105080952D01*
X183897619Y-105128571D01*
X183564285Y-105128571D01*
X184564285Y-105652380D02*
X184564285Y-104652380D01*
X184945238Y-104652380D01*
X185040476Y-104700000D01*
X185088095Y-104747619D01*
X185135714Y-104842857D01*
X185135714Y-104985714D01*
X185088095Y-105080952D01*
X185040476Y-105128571D01*
X184945238Y-105176190D01*
X184564285Y-105176190D01*
X171207142Y-108366666D02*
X171254761Y-108414285D01*
X171302380Y-108557142D01*
X171302380Y-108652380D01*
X171254761Y-108795238D01*
X171159523Y-108890476D01*
X171064285Y-108938095D01*
X170873809Y-108985714D01*
X170730952Y-108985714D01*
X170540476Y-108938095D01*
X170445238Y-108890476D01*
X170350000Y-108795238D01*
X170302380Y-108652380D01*
X170302380Y-108557142D01*
X170350000Y-108414285D01*
X170397619Y-108366666D01*
X170302380Y-107509523D02*
X170302380Y-107700000D01*
X170350000Y-107795238D01*
X170397619Y-107842857D01*
X170540476Y-107938095D01*
X170730952Y-107985714D01*
X171111904Y-107985714D01*
X171207142Y-107938095D01*
X171254761Y-107890476D01*
X171302380Y-107795238D01*
X171302380Y-107604761D01*
X171254761Y-107509523D01*
X171207142Y-107461904D01*
X171111904Y-107414285D01*
X170873809Y-107414285D01*
X170778571Y-107461904D01*
X170730952Y-107509523D01*
X170683333Y-107604761D01*
X170683333Y-107795238D01*
X170730952Y-107890476D01*
X170778571Y-107938095D01*
X170873809Y-107985714D01*
X175302380Y-113819047D02*
X175302380Y-114390476D01*
X175302380Y-114104761D02*
X174302380Y-114104761D01*
X174445238Y-114200000D01*
X174540476Y-114295238D01*
X174588095Y-114390476D01*
X174302380Y-113200000D02*
X174302380Y-113104761D01*
X174350000Y-113009523D01*
X174397619Y-112961904D01*
X174492857Y-112914285D01*
X174683333Y-112866666D01*
X174921428Y-112866666D01*
X175111904Y-112914285D01*
X175207142Y-112961904D01*
X175254761Y-113009523D01*
X175302380Y-113104761D01*
X175302380Y-113200000D01*
X175254761Y-113295238D01*
X175207142Y-113342857D01*
X175111904Y-113390476D01*
X174921428Y-113438095D01*
X174683333Y-113438095D01*
X174492857Y-113390476D01*
X174397619Y-113342857D01*
X174350000Y-113295238D01*
X174302380Y-113200000D01*
X174302380Y-112247619D02*
X174302380Y-112152380D01*
X174350000Y-112057142D01*
X174397619Y-112009523D01*
X174492857Y-111961904D01*
X174683333Y-111914285D01*
X174921428Y-111914285D01*
X175111904Y-111961904D01*
X175207142Y-112009523D01*
X175254761Y-112057142D01*
X175302380Y-112152380D01*
X175302380Y-112247619D01*
X175254761Y-112342857D01*
X175207142Y-112390476D01*
X175111904Y-112438095D01*
X174921428Y-112485714D01*
X174683333Y-112485714D01*
X174492857Y-112438095D01*
X174397619Y-112390476D01*
X174350000Y-112342857D01*
X174302380Y-112247619D01*
X174635714Y-111485714D02*
X175302380Y-111485714D01*
X174730952Y-111485714D02*
X174683333Y-111438095D01*
X174635714Y-111342857D01*
X174635714Y-111200000D01*
X174683333Y-111104761D01*
X174778571Y-111057142D01*
X175302380Y-111057142D01*
M02*
